<svg style="margin-right: 8px;" width="20" height="20" viewBox="0 0 20 20" fill="none" xmlns="http://www.w3.org/2000/svg"> <g filter="url(#filter0_d_6005_6373)"> <path d="M10.8178 2.54467C12.4589 2.7247 13.9948 3.44123 15.1873 4.58313C16.3797 5.72503 17.162 7.22848 17.4129 8.86032L18.2365 8.73369C17.9578 6.92054 17.0885 5.25003 15.7636 3.98126C14.4387 2.71248 12.7321 1.91634 10.9086 1.71631L10.8178 2.54467Z" fill="white"></path> <path d="M10.5452 5.02962C11.6394 5.14963 12.6633 5.62732 13.4582 6.38859C14.2532 7.14985 14.7747 8.15216 14.942 9.24005L15.7656 9.11342C15.5705 7.84422 14.9621 6.67486 14.0346 5.78672C13.1072 4.89857 11.9126 4.34127 10.6361 4.20125L10.5452 5.02962Z" fill="white"></path> <path d="M17.5 16.63V13.6833C17.5001 13.5801 17.4628 13.4805 17.3936 13.4038C17.3245 13.3271 17.2294 13.2789 17.1267 13.2683C16.9367 13.25 16.7842 13.2317 16.6683 13.215C15.513 13.0501 14.3892 12.7116 13.335 12.2108C13.2535 12.1723 13.161 12.1637 13.0737 12.1864C12.9865 12.2091 12.91 12.2617 12.8575 12.335L11.5742 14.13C9.01212 13.0305 6.97038 10.9887 5.87083 8.42667L7.66917 7.14167C7.81917 7.035 7.87083 6.83583 7.79167 6.66917C7.29 5.61486 6.95061 4.49077 6.785 3.335C6.76833 3.21917 6.75083 3.06667 6.73167 2.875C6.72133 2.77215 6.67313 2.67682 6.59644 2.60752C6.51975 2.53822 6.42003 2.4999 6.31667 2.5H3.37C3.15902 2.4999 2.95585 2.57984 2.8015 2.72367C2.64715 2.86751 2.5531 3.06454 2.53833 3.275C2.5125 3.63917 2.5 3.93667 2.5 4.16667C2.5 11.5308 8.46917 17.5 15.8333 17.5C16.0633 17.5 16.3608 17.4867 16.725 17.4617C16.9355 17.4469 17.1325 17.3528 17.2763 17.1985C17.4202 17.0441 17.5001 16.841 17.5 16.63Z" fill="white"></path> </g> <defs> <filter id="filter0_d_6005_6373" x="0" y="0" width="20" height="20.5" filterUnits="userSpaceOnUse" color-interpolation-filters="sRGB"> <feFlood flood-opacity="0" result="BackgroundImageFix"></feFlood> <feColorMatrix in="SourceAlpha" type="matrix" values="0 0 0 0 0 0 0 0 0 0 0 0 0 0 0 0 0 0 127 0" result="hardAlpha"></feColorMatrix> <feOffset dy="0.5"></feOffset> <feComposite in2="hardAlpha" operator="out"></feComposite> <feColorMatrix type="matrix" values="0 0 0 0 0 0 0 0 0 0 0 0 0 0 0 0 0 0 0.15 0"></feColorMatrix> <feBlend mode="normal" in2="BackgroundImageFix" result="effect1_dropShadow_6005_6373"></feBlend> <feBlend mode="normal" in="SourceGraphic" in2="effect1_dropShadow_6005_6373" result="shape"></feBlend> </filter> </defs> </svg>