<svg width="70" height="60" viewBox="0 0 70 60" fill="none" xmlns="http://www.w3.org/2000/svg"><path opacity="0.15" d="M43 53C51.2843 53 58 46.2843 58 38C58 29.7157 51.2843 23 43 23C34.7157 23 28 29.7157 28 38C28 46.2843 34.7157 53 43 53Z" fill="white"></path><path d="M43.6478 13.0711C40.1055 11.148 36.0233 10.4605 32.0466 11.1173C28.0698 11.7741 24.4254 13.7377 21.6896 16.6976C18.9538 19.6576 17.2827 23.445 16.9405 27.4611C16.5982 31.4772 17.6045 35.4928 19.8 38.873C20.082 39.3072 19.9587 39.8878 19.5244 40.1698C19.0902 40.4519 18.5096 40.3285 18.2276 39.8943C15.8049 36.1644 14.6946 31.7335 15.0722 27.3019C15.4499 22.8704 17.2939 18.6912 20.3127 15.425C23.3315 12.1588 27.3529 9.99208 31.741 9.26734C36.1292 8.54261 40.6337 9.30123 44.5424 11.4233C48.4511 13.5453 51.541 16.9097 53.3235 20.9844C55.106 25.0592 55.4794 29.6119 54.3848 33.9227C53.2901 38.2334 50.7897 42.0563 47.279 44.7869C43.7683 47.5175 39.4476 49 35 49C34.4823 49 34.0625 48.5803 34.0625 48.0625C34.0625 47.5448 34.4823 47.125 35 47.125C39.0307 47.125 42.9463 45.7815 46.1279 43.3069C49.3094 40.8323 51.5754 37.3678 52.5674 33.4612C53.5595 29.5545 53.2211 25.4287 51.6057 21.7359C49.9903 18.0431 47.1901 14.9942 43.6478 13.0711Z" fill="#F1C494"></path><path d="M34.9519 17.7488C34.4565 17.7238 34.0625 17.3142 34.0625 16.8125V14.9375C34.0625 14.4428 34.4457 14.0376 34.9315 14.0025C34.9502 14.0012 34.969 14.0004 34.988 14.0001C34.992 14.0001 34.996 14 35 14C35.5178 14 35.9376 14.4198 35.9376 14.9375V16.8125C35.9376 17.3303 35.5179 17.75 35.0001 17.75C35.0002 17.75 35.0001 17.75 35.0001 17.75C34.984 17.75 34.9678 17.7496 34.9519 17.7488Z" fill="#F1C494"></path><path d="M28.5299 22.6187C28.0417 23.1069 28.0417 23.8983 28.5299 24.3865L34.6339 30.4905C34.9858 30.8424 35.4951 30.9406 35.935 30.7853C36.1054 30.7251 36.2654 30.6269 36.4018 30.4905L39.9373 26.955C40.4255 26.4668 40.4255 25.6754 39.9373 25.1872C39.4492 24.6991 38.6577 24.6991 38.1695 25.1872L35.5179 27.8389L30.2977 22.6187C29.8095 22.1306 29.018 22.1306 28.5299 22.6187Z" fill="#F1C494"></path><path d="M35.0001 40.25C34.4824 40.25 34.0626 40.6698 34.0626 41.1875V43.0625C34.0626 43.5803 34.4824 44 35.0001 44C35.5179 44 35.9376 43.5803 35.9376 43.0625V41.1875C35.9376 40.6698 35.5179 40.25 35.0001 40.25Z" fill="#F1C494"></path><path d="M49.0626 28.0625C49.5804 28.0625 50.0001 28.4823 50.0001 29C50.0001 29.5178 49.5804 29.9375 49.0626 29.9375H47.1876C46.6699 29.9375 46.2501 29.5178 46.2501 29C46.2501 28.4823 46.6699 28.0625 47.1876 28.0625H49.0626Z" fill="#F1C494"></path><path d="M45.6067 39.6066C45.9729 39.2405 45.9729 38.6469 45.6067 38.2808L44.2809 36.955C43.9148 36.5889 43.3212 36.5889 42.9551 36.955C42.589 37.3211 42.589 37.9147 42.9551 38.2808L44.2809 39.6066C44.647 39.9728 45.2406 39.9728 45.6067 39.6066Z" fill="#F1C494"></path><path d="M27.0452 19.7193C27.4113 20.0854 27.4113 20.679 27.0452 21.0451C26.6791 21.4112 26.0855 21.4112 25.7194 21.0451L24.3935 19.7193C24.0274 19.3532 24.0274 18.7596 24.3935 18.3934C24.7597 18.0273 25.3533 18.0273 25.7194 18.3934L27.0452 19.7193Z" fill="#F1C494"></path><path d="M42.9549 21.0451C42.5888 20.679 42.5888 20.0854 42.9549 19.7193L44.2807 18.3934C44.6469 18.0273 45.2404 18.0273 45.6066 18.3934C45.9727 18.7596 45.9727 19.3532 45.6066 19.7193L44.2807 21.0451C43.9146 21.4112 43.321 21.4112 42.9549 21.0451Z" fill="#F1C494"></path><path d="M3.75 32C1.67893 32 0 33.6789 0 35.75V49.5C0 51.5711 1.67893 53.25 3.75 53.25H15L21.7735 58.0882C22.6008 58.6791 23.75 58.0877 23.75 57.071V53.25H26.25C28.3211 53.25 30 51.5711 30 49.5V35.75C30 33.6789 28.3211 32 26.25 32H3.75Z" fill="#E48822"></path><path fill-rule="evenodd" clip-rule="evenodd" d="M16.0097 43.925L24 37.0001L22.9521 35.791L16.7261 41.1869H16.0097V36.1079H14.878H14.1384H13.4917L10.1005 41.2023V42.6898H14.0979V43.4647L7.95215 48.791L9.00004 50.0001L15.9233 44H16.0097V43.925ZM3.12126 44V42.6281L6.14053 40.1079C6.36687 39.9127 6.55953 39.7341 6.71851 39.5723C6.87749 39.4078 6.99875 39.2434 7.08228 39.079C7.16581 38.912 7.20758 38.7309 7.20758 38.5356C7.20758 38.3173 7.15773 38.131 7.05803 37.9769C6.95833 37.8202 6.82091 37.6994 6.64576 37.6146C6.47061 37.5299 6.26987 37.4875 6.04352 37.4875C5.81448 37.4875 5.61374 37.5324 5.44128 37.6224C5.26883 37.7097 5.1341 37.8369 5.0371 38.0039C4.94279 38.1708 4.89563 38.3738 4.89563 38.6127H3C3 38.0758 3.12665 37.6121 3.37994 37.2216C3.63323 36.8311 3.98891 36.5305 4.44699 36.3198C4.90776 36.1066 5.44263 36 6.05161 36C6.67944 36 7.22509 36.1002 7.68856 36.3006C8.15203 36.501 8.51041 36.781 8.7637 37.1407C9.01968 37.4978 9.14767 37.9127 9.14767 38.3854C9.14767 38.6859 9.08435 38.9839 8.9577 39.2794C8.83106 39.5748 8.60337 39.9011 8.27463 40.2582C7.94859 40.6153 7.48512 41.043 6.88423 41.5414L5.89397 42.4123V42.4624H9.24872V44H3.12126ZM14.0737 38.1272H14.1384V41.1869H12.0891V41.1252L14.0737 38.1272ZM20.5683 50L23.9215 43.6094V43.5586H20V42H26V43.5703L22.6346 50H20.5683Z" fill="white"></path></svg>