<svg width="70" height="60" viewBox="0 0 70 60" fill="none" xmlns="http://www.w3.org/2000/svg"><path opacity="0.15" d="M23 49C31.2843 49 38 42.2843 38 34C38 25.7157 31.2843 19 23 19C14.7157 19 8 25.7157 8 34C8 42.2843 14.7157 49 23 49Z" fill="white"></path><path d="M48.4572 15.1666C49.2461 15.992 49.9655 16.8865 50.6059 17.8419C52.4167 20.5375 53.5402 23.6339 53.8788 26.8617C53.9595 27.5818 53.9999 28.3059 54 29.0305L52.0645 29.0306C52.0645 28.378 52.028 27.7259 51.9553 27.0773L51.9538 27.0636C51.6494 24.1616 50.6421 21.377 49.0187 18.9502L48.9982 18.9196L48.9778 18.8892C48.6271 18.3684 48.2504 17.8676 47.8495 17.3886C47.3155 17.2971 47.1119 16.9337 46.9982 16.4415C46.3965 15.818 45.7506 15.2387 45.0658 14.7081C44.8415 14.6493 44.6427 14.6262 44.5026 14.6507C44.0306 14.7332 41.7646 13.8671 40.3329 13.3199C39.9263 13.1645 39.587 13.0348 39.3751 12.9599C38.876 12.7833 38.4856 12.2419 38.1292 11.7477C38.0403 11.6244 37.9535 11.5041 37.8677 11.3932C37.044 11.2205 36.2091 11.1047 35.3691 11.0467C34.6986 11.2565 33.9904 11.6151 33.4567 12.1764C32.8139 12.8526 32.4637 12.5373 32.0938 12.2042C31.815 11.9532 31.525 11.6921 31.09 11.8377C30.0778 12.1764 28.2141 13.9187 27.4262 15.2405C27.047 15.8768 26.8924 16.3504 26.7695 16.727C26.6371 17.1327 26.5415 17.4256 26.2413 17.6876C25.6625 18.1927 24.8322 16.9011 24.6231 16.4504C24.5272 16.2438 23.9716 16.2146 23.3862 16.1837C22.6945 16.1473 21.9614 16.1087 21.8957 15.7729C21.8877 15.7321 21.8937 15.6883 21.9118 15.6416C18.6467 18.5178 16.002 23.653 15.9369 29.0599C15.8143 38.9697 23.9971 47.0645 34.0023 47.0645C36.8549 47.0657 39.6564 46.3929 42.181 45.1153C41.3197 44.8715 40.765 43.3197 40.9237 42.533C41.0073 42.119 41.2679 41.6485 41.5011 41.2274C41.7416 40.7932 41.9532 40.4113 41.9116 40.1979L41.9018 40.1472C41.8666 39.9649 41.8511 39.8845 41.804 39.8328C41.7669 39.7921 41.7102 39.7692 41.6088 39.7282C41.581 39.717 41.5497 39.7044 41.5147 39.6897C41.2318 39.5712 41.1489 39.7868 41.0291 40.0983C41.0052 40.1606 40.9798 40.2267 40.951 40.2947C40.8365 40.5653 40.4665 40.3656 40.0244 40.1271C39.7994 40.0057 39.5558 39.8742 39.3176 39.7895C38.7124 39.5743 38.6682 39.3347 38.6336 39.1468C38.6278 39.1155 38.6223 39.0856 38.6145 39.0575C38.5919 38.9761 38.3893 38.9907 38.1256 39.0097C37.753 39.0366 37.2585 39.0722 36.9781 38.8579C36.6301 38.5919 36.1781 38.6391 35.7407 38.6847C35.5763 38.7018 35.4139 38.7188 35.2599 38.7188C34.946 38.7188 34.4744 38.3962 34.0212 38.0862C33.6604 37.8395 33.3113 37.6008 33.0628 37.5391C32.9656 37.5301 32.8716 37.4994 32.7877 37.4494C32.7039 37.3994 32.6323 37.3313 32.5782 37.2501C32.5242 37.1689 32.489 37.0766 32.4753 36.9801C32.4617 36.8835 32.4698 36.7852 32.4992 36.6922C32.5567 36.3292 31.5143 34.9166 31.1749 34.6625C30.8376 34.41 30.7487 34.0201 30.6346 33.5195L30.6324 33.5101C30.5173 33.005 30.2142 32.9052 29.9627 32.9354C29.7112 32.9657 29.9324 33.4405 30.1294 33.7793C30.3632 34.19 30.5609 34.6201 30.7203 35.0648C30.8634 35.4233 31.0241 35.5107 31.1324 35.5697C31.2535 35.6355 31.3093 35.6658 31.2021 35.9995C31.1567 36.1356 30.4961 35.7757 30.2445 35.2131C29.8386 34.38 29.4805 33.5246 29.1718 32.6511C28.881 31.8353 28.4627 31.0707 27.9323 30.3855C27.4744 29.7506 28.0759 28.4693 28.4033 27.7718C28.4377 27.6984 28.4692 27.6315 28.496 27.5725C28.7778 26.9524 28.6657 26.1388 28.496 25.5762C28.2845 24.9959 28.2169 24.3732 28.299 23.7613C28.3787 23.239 27.932 22.6342 27.5863 22.1662C27.4455 21.9756 27.3214 21.8077 27.2565 21.6772C27.0323 21.2265 26.7777 20.7516 26.2141 20.8333C25.9524 20.8712 25.6416 20.9529 25.3502 21.0294C25.0139 21.1177 24.7033 21.1993 24.5231 21.1993C24.1867 21.1993 23.3958 21.0057 23.2837 20.6942C23.2242 20.529 23.5523 20.5781 23.9658 20.6399C24.3323 20.6947 24.766 20.7596 25.0565 20.6942C25.4128 20.614 25.459 20.2895 25.5115 19.9212C25.55 19.6507 25.5919 19.3565 25.7625 19.1183C26.035 18.7379 26.5014 18.4323 26.8995 18.1713C27.0903 18.0463 27.2654 17.9315 27.3959 17.8237C27.7197 17.5603 27.7337 17.5634 27.9019 17.6C28.0061 17.6227 28.1694 17.6582 28.502 17.6513C29.0285 17.6403 29.2785 18.0527 29.5114 18.4369C29.6633 18.6875 29.8079 18.9261 30.0173 19.0275C30.5476 19.2846 31.4567 19.0064 32.2052 18.3167C32.5966 17.9561 33.0154 17.8072 33.3983 17.6711C33.7475 17.5469 34.0669 17.4334 34.3083 17.1794C34.8144 16.647 35.8235 16.4897 35.972 17.4153C36.119 18.3317 36.979 18.8211 38.1048 19.4619L38.1388 19.4812C38.413 19.6373 38.6226 19.7377 38.7841 19.815C39.2956 20.0598 39.325 20.0739 39.3964 20.8968C39.4328 21.3164 39.4801 21.508 39.5015 21.5947C39.5121 21.6374 39.5163 21.6546 39.5098 21.661C39.5055 21.6653 39.4962 21.6648 39.4808 21.6638C39.4457 21.6617 39.3784 21.6575 39.2631 21.7045C38.8691 21.8648 38.0509 21.526 37.7054 20.6609C37.3599 19.7958 36.6599 19.9531 36.7205 20.8968L36.7257 20.9759C36.7517 21.3766 36.7643 21.5702 36.6886 21.7188C36.6179 21.8577 36.4702 21.9573 36.1845 22.15C36.1207 22.193 36.0501 22.2406 35.972 22.2943C35.8935 22.3482 35.8145 22.4015 35.7367 22.4539C34.9945 22.9542 34.3652 23.3784 35.3993 23.5919C35.9954 23.715 36.646 24.3256 37.2382 24.8815C37.781 25.391 38.2748 25.8544 38.6327 25.8544C39.2033 25.8544 38.9374 25.009 38.6741 24.1716C38.592 23.9105 38.5101 23.6501 38.4539 23.4165L38.4395 23.3567C38.2139 22.4198 38.1368 22.0993 38.9085 22.1763C38.9946 22.1849 39.0755 22.1923 39.1522 22.1994C39.7775 22.2568 40.1205 22.2884 40.6631 22.7087C40.9951 22.9658 41.4107 23.0065 41.8002 23.0446C42.1254 23.0764 42.4324 23.1064 42.6571 23.2592C43.0073 23.4972 42.861 23.793 42.6749 24.1692C42.5984 24.3236 42.5153 24.4917 42.4571 24.6748C42.3649 24.965 42.1817 25.1162 42.0364 25.2361C41.8667 25.3762 41.7486 25.4737 41.8874 25.7002C42.0085 25.8978 42.3024 25.927 42.5711 25.9537C42.8739 25.9838 43.1445 26.0106 43.0996 26.2718C43.064 26.4783 42.9058 26.515 42.7237 26.5573C42.4711 26.6159 42.1727 26.6852 42.0935 27.2337C42.0239 27.7148 41.7434 28.2681 41.4794 28.7889C41.2255 29.2896 40.9869 29.7603 40.9661 30.1073C40.9564 30.2698 40.9534 30.3825 40.9511 30.4667C40.9482 30.5742 40.9466 30.6352 40.9338 30.6938C40.9171 30.7705 40.8813 30.843 40.7987 31.0105C40.7786 31.0512 40.7558 31.0975 40.7298 31.1508C40.6358 31.3435 40.455 31.5438 40.2725 31.7461C39.9134 32.1438 39.5474 32.5493 39.8206 32.9203C40.2328 33.4799 40.7055 34.5174 40.551 34.9681C40.3964 35.4187 40.0176 34.6656 39.6994 33.985C39.3812 33.3044 36.2084 33.8035 35.3872 34.2209C34.6239 34.6089 34.9417 35.6029 35.3042 36.7369C35.3317 36.823 35.3596 36.9102 35.3872 36.9977C35.6341 37.7812 36.2561 37.3139 36.8961 36.833C37.2691 36.5528 37.6483 36.2679 37.963 36.2233C38.5578 36.1391 38.3246 36.9956 38.1555 37.6169C38.0816 37.8883 38.02 38.1148 38.0448 38.1985C38.0883 38.3449 38.3589 38.2842 38.6967 38.2086C38.9941 38.1419 39.3435 38.0637 39.6358 38.1047C40.0707 38.1658 40.0291 38.3063 39.9289 38.6436C39.8853 38.7904 39.8307 38.9746 39.7994 39.2058C39.7177 39.8102 40.0343 39.8364 40.3623 39.8636C40.4479 39.8707 40.5343 39.8779 40.6146 39.8954C40.8512 39.9471 40.9356 39.8231 41.0274 39.6884C41.086 39.6023 41.1477 39.5117 41.254 39.4598C41.3292 39.4231 41.423 39.4042 41.523 39.3839C41.7857 39.3307 42.0909 39.269 42.2116 38.8549C42.3032 38.5408 42.8651 38.4029 43.5307 38.2395C44.0765 38.1056 44.6921 37.9546 45.1754 37.6752C45.728 37.3558 46.1366 37.4457 46.5455 37.5357C46.9304 37.6203 47.3155 37.705 47.821 37.4484C48.595 37.0553 49.0115 37.2943 49.3707 37.5004C49.4952 37.5719 49.6129 37.6394 49.7362 37.6752C49.7702 37.6851 49.8124 37.6879 49.8616 37.6844C50.2234 37.024 50.5447 36.3393 50.8227 35.6337C51.6472 33.5307 52.0684 31.2919 52.0645 29.0338L54 29.0305C54.0043 31.532 53.5376 34.012 52.6242 36.3414C51.1536 40.0745 48.5905 43.2789 45.2689 45.5369C44.674 45.9412 44.0599 46.3118 43.4292 46.6478C43.2295 46.7555 43.0277 46.86 42.8238 46.9613L42.821 46.9624L42.8186 46.963L42.8153 46.9634L42.8118 46.9632C40.0808 48.299 37.0685 49.0013 34.0023 49C22.9534 49 13.8652 40.0588 14.0015 29.0365C14.0742 23.0021 17.0319 17.2884 20.7624 14.076C20.8068 14.0372 20.8514 13.9986 20.8961 13.9601C24.7345 10.6263 29.7694 8.80695 34.8565 9.01627C40.018 9.22865 44.8944 11.4342 48.4572 15.1666Z" fill="#F1C494"></path><path d="M36.0387 15.8817C36.0902 15.1588 37.7327 14.3512 38.3751 15.0348C38.7004 15.3809 39.3473 15.6347 39.9312 15.8638C40.5004 16.0872 41.0098 16.287 41.1025 16.526C41.1873 16.7444 41.253 17.1014 41.3218 17.4755C41.4054 17.9304 41.4937 18.4106 41.6268 18.6978C41.6819 18.8168 41.7892 18.9839 41.9078 19.1685C42.3102 19.795 42.8425 20.6238 41.9086 20.4672C41.3067 20.3664 40.4781 19.7304 39.6716 19.1114C38.8579 18.4869 38.0668 17.8797 37.5539 17.8569C36.5326 17.8115 35.9993 16.4443 36.0387 15.8817Z" fill="#F1C494"></path><path d="M42.9814 16.3898C42.8389 16.1902 42.3389 16.2507 42.3389 16.2507C42.0446 16.492 42.2471 16.7948 42.3851 17.0011C42.4062 17.0327 42.4259 17.062 42.4419 17.0885C42.5373 17.1891 42.6632 17.2555 42.8002 17.2773C42.9372 17.2992 43.0775 17.2754 43.1995 17.2095C43.3996 17.0704 43.1238 16.5895 42.9814 16.3898Z" fill="#F1C494"></path><path d="M39.3812 35.7543C39.3812 35.7543 38.9085 36.1324 39.2903 36.1143C39.5026 36.1042 39.6793 35.9997 39.8214 35.9156C39.9349 35.8485 40.0264 35.7943 40.0964 35.8118C40.1811 35.8329 40.3587 35.8515 40.5472 35.8711C40.7093 35.888 40.8794 35.9058 41.0055 35.9267C41.0857 35.9401 41.1657 35.9419 41.2368 35.9435C41.4077 35.9475 41.5284 35.9502 41.4813 36.1082C41.4267 36.2916 41.5063 36.2659 41.7852 36.1757C41.8467 36.1558 41.9179 36.1328 41.9995 36.1082C42.451 35.9721 42.7632 35.5849 42.2238 35.6122C41.7111 35.6393 41.4224 35.5559 41.1671 35.4821C41.024 35.4408 40.8915 35.4025 40.7358 35.3883C40.2571 35.3663 39.7835 35.4943 39.3812 35.7543Z" fill="#F1C494"></path><path d="M42.9746 36.0533C42.937 35.9821 42.8953 35.9032 42.9268 35.8299C43.0229 35.5822 43.0872 35.5997 43.1749 35.6236C43.2199 35.6358 43.2711 35.6498 43.3359 35.6303C43.5669 35.507 43.8185 35.427 44.0784 35.3944C44.4632 35.3611 44.2935 35.7452 44.0784 35.8299C43.8632 35.9146 43.6056 36.0568 43.5602 36.2625C43.5147 36.4681 42.951 36.5982 42.5147 36.6436C42.0783 36.689 42.6813 36.326 42.9268 36.2625C43.0661 36.2264 43.0239 36.1466 42.9746 36.0533Z" fill="#F1C494"></path><path fill-rule="evenodd" clip-rule="evenodd" d="M54.6246 50.4785C57.0563 48.3461 59.75 45.0878 59.75 41.01V32.7734C59.75 32.2527 59.4272 31.7865 58.9398 31.6033L49.5648 28.0799C49.2813 27.9734 48.9687 27.9734 48.6852 28.0799L39.3102 31.6033C38.8228 31.7865 38.5 32.2527 38.5 32.7734V41.01C38.5 45.0878 41.1937 48.3461 43.6254 50.4785C45.1318 51.7996 46.7927 52.9339 48.5597 53.8727C48.9127 54.0603 49.3359 54.0575 49.6875 53.8673C51.4502 52.9141 53.1106 51.8062 54.6246 50.4785Z" fill="white"></path><path fill-rule="evenodd" clip-rule="evenodd" d="M54.6246 50.4785C57.0563 48.3461 59.75 45.0878 59.75 41.01V32.7734C59.75 32.2527 59.4272 31.7865 58.9398 31.6033L49.5648 28.0799C49.2813 27.9734 48.9687 27.9734 48.6852 28.0799L39.3102 31.6033C38.8228 31.7865 38.5 32.2527 38.5 32.7734V41.01C38.5 45.0878 41.1937 48.3461 43.6254 50.4785C45.1318 51.7996 46.7927 52.9339 48.5597 53.8727C48.9127 54.0603 49.3359 54.0575 49.6875 53.8673C51.4502 52.9141 53.1106 51.8062 54.6246 50.4785ZM57.3889 41.01V33.5477L49.125 30.4419V41.01H40.8611C40.8611 44.0313 42.8896 46.6889 45.1802 48.6976C46.7424 50.0676 48.3249 51.0418 49.125 51.4962V41.01H57.3889Z" fill="#E48822"></path></svg>