<svg xmlns="http://www.w3.org/2000/svg" width="68" height="32" viewBox="0 0 68 32" fill="none"><path d="M16.5885 8H3.92551C1.75751 8 0 9.79086 0 12V28C0 30.2091 1.75751 32 3.92551 32H64.0745C66.2425 32 68 30.2091 68 28V12C68 9.79086 66.2425 8 64.0745 8H51.2849V9.29032H64.0745C65.5431 9.29032 66.7337 10.5035 66.7337 12V28C66.7337 29.4965 65.5431 30.7097 64.0745 30.7097H3.92551C2.45687 30.7097 1.26629 29.4965 1.26629 28V12C1.26629 10.5035 2.45687 9.29032 3.92551 9.29032H16.5885V8Z" fill="#F1C494"></path><path d="M5.41406 23.5047V16.8117H10.5843V18.1255H7.20628V19.4981H10.32V20.8151H7.20628V22.1909H10.5843V23.5047H5.41406Z" fill="#F1C494"></path><path d="M13.5207 16.8117L14.8748 18.9261H14.9327L16.3013 16.8117H18.3072L16.0696 20.1582L18.3796 23.5047H16.3231L14.9327 21.3674H14.8748L13.4845 23.5047H11.4424L13.7415 20.1582L11.5004 16.8117H13.5207Z" fill="#F1C494"></path><path d="M25.5466 19.2366H23.7363C23.7122 19.0688 23.6627 18.9174 23.5879 18.7824C23.513 18.6473 23.4141 18.5318 23.291 18.4359C23.1679 18.3401 23.0218 18.2671 22.8529 18.217C22.6863 18.1647 22.5017 18.1385 22.2989 18.1385C21.9393 18.1385 21.6291 18.2181 21.3684 18.3771C21.1101 18.5362 20.911 18.766 20.771 19.0667C20.6334 19.3673 20.5646 19.7312 20.5646 20.1582C20.5646 20.6027 20.6346 20.9752 20.7746 21.2759C20.917 21.5743 21.1162 21.7998 21.372 21.9524C21.6303 22.1027 21.9357 22.1778 22.2881 22.1778C22.486 22.1778 22.6658 22.155 22.8275 22.1092C22.9917 22.0635 23.1353 21.997 23.2584 21.9099C23.3839 21.8205 23.4865 21.7127 23.5661 21.5863C23.6482 21.4578 23.7049 21.3129 23.7363 21.1517L25.5466 21.1615C25.5153 21.4578 25.4199 21.7497 25.2606 22.0373C25.1037 22.3249 24.8877 22.5874 24.6125 22.8249C24.3373 23.0602 24.0018 23.2476 23.606 23.387C23.2125 23.5265 22.7612 23.5962 22.2519 23.5962C21.5808 23.5962 20.9798 23.4633 20.4488 23.1975C19.9202 22.9295 19.5026 22.5395 19.196 22.0275C18.8895 21.5155 18.7362 20.8924 18.7362 20.1582C18.7362 19.4218 18.8919 18.7976 19.2033 18.2856C19.5147 17.7736 19.9359 17.3847 20.4669 17.1189C20.9979 16.8531 21.5929 16.7202 22.2519 16.7202C22.7008 16.7202 23.116 16.7769 23.4974 16.8902C23.8787 17.0013 24.2142 17.1647 24.5039 17.3804C24.7935 17.5939 25.0289 17.8564 25.2099 18.168C25.391 18.4795 25.5032 18.8357 25.5466 19.2366Z" fill="#F1C494"></path><path d="M26.5722 23.5047V16.8117H28.3644V22.1909H31.4492V23.5047H26.5722Z" fill="#F1C494"></path><path d="M36.863 16.8117H38.6516V21.1288C38.6516 21.6277 38.52 22.0624 38.2569 22.4328C37.9938 22.801 37.6269 23.0864 37.1562 23.289C36.6855 23.4894 36.1388 23.5896 35.5161 23.5896C34.8861 23.5896 34.3358 23.4894 33.8651 23.289C33.3944 23.0864 33.0287 22.801 32.768 22.4328C32.5073 22.0624 32.377 21.6277 32.377 21.1288V16.8117H34.1692V20.9883C34.1692 21.2192 34.2247 21.4251 34.3358 21.6059C34.4492 21.7868 34.6073 21.9284 34.8101 22.0308C35.0128 22.1332 35.2482 22.1844 35.5161 22.1844C35.784 22.1844 36.0181 22.1332 36.2185 22.0308C36.4212 21.9284 36.5793 21.7868 36.6928 21.6059C36.8062 21.4251 36.863 21.2192 36.863 20.9883V16.8117Z" fill="#F1C494"></path><path d="M43.7829 18.8183C43.7588 18.5786 43.6514 18.3924 43.4607 18.2595C43.2724 18.1244 43.0033 18.0568 42.6533 18.0568C42.4216 18.0568 42.2284 18.0841 42.074 18.1385C41.9195 18.193 41.8036 18.2682 41.7264 18.364C41.6491 18.4577 41.6093 18.5656 41.6069 18.6876C41.6021 18.7878 41.6238 18.876 41.6721 18.9523C41.7228 19.0285 41.7952 19.0961 41.8893 19.1549C41.9859 19.2116 42.1017 19.2617 42.2369 19.3052C42.3721 19.3488 42.5241 19.3869 42.6931 19.4196L43.3303 19.5503C43.6972 19.6222 44.0207 19.7181 44.3007 19.8379C44.5831 19.9578 44.8196 20.1005 45.0103 20.266C45.2034 20.4316 45.3494 20.6223 45.4484 20.838C45.5474 21.0536 45.5981 21.2955 45.6005 21.5635C45.5981 21.9861 45.4798 22.3489 45.2456 22.6517C45.0115 22.9546 44.6748 23.1866 44.2355 23.3478C43.7986 23.509 43.2712 23.5896 42.6533 23.5896C42.0329 23.5896 41.4923 23.5058 41.0312 23.338C40.5702 23.1702 40.2118 22.9153 39.9559 22.5733C39.7 22.2312 39.5685 21.7988 39.5612 21.2759H41.2774C41.2919 21.4916 41.3559 21.6713 41.4693 21.8151C41.5828 21.9589 41.7385 22.0678 41.9364 22.1419C42.1367 22.216 42.3684 22.253 42.6315 22.253C42.8729 22.253 43.0781 22.2236 43.2471 22.1648C43.4184 22.106 43.55 22.0243 43.6417 21.9197C43.7334 21.8151 43.7805 21.6953 43.7829 21.5602C43.7805 21.4338 43.737 21.326 43.6526 21.2367C43.5681 21.1451 43.4377 21.0667 43.2615 21.0014C43.0877 20.9338 42.8657 20.8717 42.5953 20.8151L41.8205 20.6517C41.1785 20.5188 40.6728 20.3042 40.3035 20.0079C39.9342 19.7094 39.7507 19.3063 39.7531 18.7987C39.7507 18.3847 39.8738 18.022 40.1224 17.7104C40.3711 17.3989 40.715 17.156 41.1543 16.9817C41.5936 16.8074 42.0945 16.7202 42.6569 16.7202C43.2314 16.7202 43.7298 16.8085 44.1522 16.9849C44.577 17.1592 44.9065 17.4043 45.1407 17.7202C45.3748 18.0361 45.4943 18.4022 45.4991 18.8183H43.7829Z" fill="#F1C494"></path><path d="M48.2979 16.8117V23.5047H46.5056V16.8117H48.2979Z" fill="#F1C494"></path><path d="M51.1066 16.8117L52.7648 21.7138H52.8264L54.4846 16.8117H56.4905L53.9886 23.5047H51.6026L49.1007 16.8117H51.1066Z" fill="#F1C494"></path><path d="M57.2888 23.5047V16.8117H62.4591V18.1255H59.081V19.4981H62.1948V20.8151H59.081V22.1909H62.4591V23.5047H57.2888Z" fill="#F1C494"></path><path d="M33.9232 0.300736C34.1145 -0.100246 34.6853 -0.100245 34.8766 0.300737L36.452 3.60211C36.529 3.76348 36.6824 3.87495 36.8597 3.89832L40.4863 4.37637C40.9267 4.43443 41.1031 4.97727 40.7809 5.28315L38.1279 7.80157C37.9982 7.92467 37.9396 8.10502 37.9722 8.28084L38.6382 11.8777C38.7191 12.3145 38.2573 12.65 37.8668 12.4381L34.6519 10.6932C34.4947 10.6079 34.3051 10.6079 34.1479 10.6932L30.933 12.4381C30.5425 12.65 30.0807 12.3145 30.1616 11.8777L30.8276 8.28084C30.8602 8.10502 30.8016 7.92467 30.6719 7.80157L28.0189 5.28315C27.6967 4.97727 27.8731 4.43443 28.3136 4.37637L31.9402 3.89832C32.1174 3.87495 32.2708 3.76348 32.3478 3.60211L33.9232 0.300736Z" fill="#F1C494"></path><path d="M22.9776 5.34591C23.1159 5.05592 23.5287 5.05592 23.6671 5.3459L24.6816 7.47209C24.7373 7.58879 24.8483 7.6694 24.9765 7.6863L27.3121 7.99418C27.6307 8.03617 27.7582 8.42874 27.5252 8.64995L25.8166 10.2719C25.7228 10.3609 25.6804 10.4913 25.704 10.6185L26.1329 12.935C26.1914 13.2509 25.8575 13.4935 25.5751 13.3402L23.5045 12.2165C23.3909 12.1548 23.2537 12.1548 23.1401 12.2165L21.0696 13.3402C20.7872 13.4935 20.4532 13.2509 20.5117 12.935L20.9407 10.6185C20.9642 10.4913 20.9218 10.3609 20.828 10.2719L19.1194 8.64995C18.8864 8.42874 19.014 8.03617 19.3325 7.99418L21.6682 7.6863C21.7964 7.6694 21.9073 7.58879 21.963 7.47209L22.9776 5.34591Z" fill="#F1C494"></path><path d="M44.5335 5.34591C44.6718 5.05592 45.0846 5.05592 45.223 5.3459L46.2375 7.47209C46.2932 7.58879 46.4042 7.6694 46.5324 7.6863L48.868 7.99418C49.1866 8.03617 49.3141 8.42874 49.0811 8.64995L47.3725 10.2719C47.2787 10.3609 47.2363 10.4913 47.2599 10.6185L47.6888 12.935C47.7473 13.2509 47.4134 13.4935 47.131 13.3402L45.0604 12.2165C44.9468 12.1548 44.8097 12.1548 44.696 12.2165L42.6255 13.3402C42.3431 13.4935 42.0091 13.2509 42.0676 12.935L42.4966 10.6185C42.5201 10.4913 42.4777 10.3609 42.384 10.2719L40.6754 8.64995C40.4423 8.42874 40.5699 8.03617 40.8884 7.99418L43.2241 7.6863C43.3523 7.6694 43.4632 7.58879 43.5189 7.47209L44.5335 5.34591Z" fill="#F1C494"></path></svg>