<svg width="70" height="60" viewBox="0 0 70 60" fill="none" xmlns="http://www.w3.org/2000/svg"><path opacity="0.15" d="M22 37C30.2843 37 37 30.2843 37 22C37 13.7157 30.2843 7 22 7C13.7157 7 7 13.7157 7 22C7 30.2843 13.7157 37 22 37Z" fill="white"></path><path fill-rule="evenodd" clip-rule="evenodd" d="M34.25 11.5C34.9404 11.5 35.5 10.9404 35.5 10.25C35.5 9.55964 34.9404 9 34.25 9C33.5596 9 33 9.55964 33 10.25C33 10.9404 33.5596 11.5 34.25 11.5ZM32.3336 35.5272V37.6757C32.3336 37.8541 32.4835 38 32.6668 38H34.3332C34.5165 38 34.6664 37.8541 34.6664 37.6757V35.5272C35.0103 35.2869 35.267 34.9467 35.3995 34.5555C35.532 34.1642 35.5335 33.7422 35.4038 33.35C35.2742 32.9579 35.02 32.6159 34.6779 32.3733C34.3357 32.1307 33.9233 32 33.5 32C33.0767 32 32.6643 32.1307 32.3221 32.3733C31.98 32.6159 31.7258 32.9579 31.5962 33.35C31.4665 33.7422 31.468 34.1642 31.6005 34.5555C31.733 34.9467 31.9897 35.2869 32.3336 35.5272ZM36.8447 11.6933C37.0759 11.2507 37.2066 10.7473 37.2066 10.2134C37.2066 9.9891 37.1836 9.77015 37.1396 9.55884C38.7583 9.99464 40.2563 10.7674 41.4938 11.8368C43.5077 13.5772 44.6759 15.974 44.6759 18.5124V24.0114H45.6244C47.9973 24.0114 49.8415 25.947 50 28.2794C49.2774 28.28 48.5667 28.3318 47.8716 28.4315C47.7884 27.1008 46.7594 26.1454 45.6244 26.1454H22.3867C21.2027 26.1454 20.1341 27.185 20.1341 28.6057V43.4034C20.1341 44.8241 21.2027 45.8637 22.3867 45.8637H35.2238C35.3282 46.5933 35.4853 47.306 35.6912 47.9977H22.3867C19.9039 47.9977 18 45.8788 18 43.4034V28.6057C18 26.1303 19.9039 24.0114 22.3867 24.0114H23.3352V18.5124C23.3352 15.974 24.5034 13.5772 26.5173 11.8368C27.7548 10.7674 29.2528 9.99464 30.8714 9.55884C30.8275 9.77015 30.8044 9.9891 30.8044 10.2134C30.8044 10.7473 30.9351 11.2507 31.1663 11.6933C29.9445 12.0594 28.8297 12.659 27.9127 13.4515C26.3246 14.8238 25.4692 16.6488 25.4692 18.5124V24.0114H42.5418V18.5124C42.5418 16.6488 41.6864 14.8238 40.0984 13.4515C39.1814 12.659 38.0665 12.0594 36.8447 11.6933Z" fill="#F1C494"></path><path d="M49 53C55.0751 53 60 48.0751 60 42C60 35.9249 55.0751 31 49 31C42.9249 31 38 35.9249 38 42C38 48.0751 42.9249 53 49 53Z" fill="#E48822"></path><path d="M54.6888 37.8024L51.953 40.5382L53.444 47.0013L52.4523 48L49.7024 42.7746L46.9807 45.4963L47.2409 47.2545L46.4813 48L45.2365 45.7565L43 44.5188L43.7455 43.7662L45.4826 44.0194L48.2255 41.2766L43 38.5479L43.9987 37.5563L50.462 39.0472L53.1978 36.3115C53.2953 36.2128 53.4114 36.1345 53.5393 36.081C53.6673 36.0275 53.8046 36 53.9433 36C54.082 36 54.2193 36.0275 54.3473 36.081C54.4752 36.1345 54.5913 36.2128 54.6888 36.3115C55.1037 36.7053 55.1037 37.3875 54.6888 37.8024Z" fill="white"></path></svg>