<svg width="120" height="56" viewBox="0 0 120 56" fill="none" xmlns="http://www.w3.org/2000/svg"><g clip-path="url(#clip0_2564_14472)"><path d="M31.5334 16.549V19.1172H37.6711C37.4841 20.5571 37.0035 21.6129 36.2634 22.353C35.3665 23.2499 33.9668 24.2313 31.5233 24.2313C27.7445 24.2313 24.7903 21.1825 24.7903 17.3937C24.7903 13.6048 27.7445 10.5561 31.5233 10.5561C33.2474 10.5339 34.9102 11.1947 36.1488 12.3942L37.9587 10.5842C37.1172 9.73774 36.1135 9.06987 35.0077 8.62063C33.9019 8.1714 32.7168 7.95004 31.5233 7.96985C26.3449 7.96985 21.9909 12.1931 21.9909 17.3655C21.9909 22.538 26.3449 26.7612 31.5233 26.7612C34.3207 26.7612 36.4303 25.8421 38.0794 24.1307C39.7707 22.4394 40.3036 20.0483 40.3036 18.1277C40.3114 17.5883 40.2663 17.0495 40.1689 16.5189L31.5334 16.549Z" fill="#4285F4"></path><path d="M47.9859 14.4615C44.6354 14.4615 41.9004 17.0096 41.9004 20.5269C41.9004 24.0141 44.6354 26.5923 47.9859 26.5923C51.3363 26.5923 54.0713 24.0241 54.0713 20.5269C54.0713 17.0297 51.3363 14.4615 47.9859 14.4615ZM47.9859 24.2011C46.1478 24.2011 44.5671 22.6868 44.5671 20.5269C44.5671 18.367 46.1538 16.8527 47.9859 16.8527C49.8179 16.8527 51.4047 18.3449 51.4047 20.5269C51.4047 22.7089 49.824 24.2011 47.9859 24.2011Z" fill="#EA4335"></path><path d="M77.822 15.819H77.7275C77.1242 15.1091 75.9839 14.4615 74.5339 14.4615C71.5073 14.4615 68.8647 17.1021 68.8647 20.5269C68.8647 23.9517 71.5053 26.5923 74.5339 26.5923C75.9859 26.5923 77.1342 25.9447 77.7275 25.2147H77.822V26.0593C77.822 28.3761 76.5792 29.6189 74.5862 29.6189C72.9573 29.6189 71.9457 28.4505 71.5274 27.457L69.2086 28.4203C69.6461 29.4848 70.3914 30.3944 71.3491 31.0326C72.3069 31.6707 73.4334 32.0083 74.5842 32.002C77.7054 32.002 80.3479 30.1639 80.3479 25.6853V14.7713H77.822V15.819ZM74.7632 24.2011C72.9251 24.2011 71.5274 22.6345 71.5274 20.5269C71.5274 18.3871 72.9351 16.8527 74.7632 16.8527C76.5912 16.8527 77.999 18.4193 77.999 20.549C77.999 22.6787 76.5812 24.2011 74.7632 24.2011Z" fill="#4285F4"></path><path d="M61.5666 14.4615C58.2162 14.4615 55.4811 17.0096 55.4811 20.5269C55.4811 24.0141 58.2162 26.5923 61.5666 26.5923C64.917 26.5923 67.6521 24.0241 67.6521 20.5269C67.6521 17.0297 64.909 14.4615 61.5666 14.4615ZM61.5666 24.2011C59.7285 24.2011 58.1478 22.6868 58.1478 20.5269C58.1478 18.367 59.7345 16.8527 61.5666 16.8527C63.3987 16.8527 64.9854 18.3449 64.9854 20.5269C64.9854 22.7089 63.3947 24.2011 61.5666 24.2011Z" fill="#FBBC05"></path><path d="M82.4374 8.24939H85.0518V26.5923H82.4374V8.24939Z" fill="#34A853"></path><path d="M93.1403 24.2011C91.7828 24.2011 90.8235 23.5857 90.1961 22.3629L98.3087 19.0125L98.0372 18.3227C97.5365 16.9653 95.992 14.4595 92.8487 14.4595C89.7054 14.4595 87.1272 16.913 87.1272 20.5248C87.1272 23.9275 89.6953 26.5902 93.1403 26.5902C94.1386 26.5946 95.1225 26.3519 96.0043 25.8839C96.8861 25.4158 97.6384 24.7368 98.1941 23.9074L96.1267 22.5299C95.4369 23.5354 94.4977 24.2011 93.1403 24.2011ZM92.9532 16.736C94.0292 16.736 94.9482 17.289 95.2499 18.0713L89.7697 20.3358C89.7758 17.7878 91.5817 16.738 92.9613 16.738L92.9532 16.736Z" fill="#EA4335"></path></g><g clip-path="url(#clip1_2564_14472)"><path d="M8.001 52.1734L3.299 54.8054L4.349 49.52L0.392334 45.8614L5.74367 45.2267L8.001 40.3334L10.2583 45.2267L15.6097 45.8614L11.653 49.52L12.703 54.8054L8.001 52.1734Z" fill="url(#paint0_linear_2564_14472)"></path></g><g clip-path="url(#clip2_2564_14472)"><path d="M26.001 52.1734L21.299 54.8054L22.349 49.52L18.3923 45.8614L23.7437 45.2267L26.001 40.3334L28.2583 45.2267L33.6097 45.8614L29.653 49.52L30.703 54.8054L26.001 52.1734Z" fill="url(#paint1_linear_2564_14472)"></path></g><g clip-path="url(#clip3_2564_14472)"><path d="M44.001 52.1734L39.299 54.8054L40.349 49.52L36.3923 45.8614L41.7437 45.2267L44.001 40.3334L46.2583 45.2267L51.6097 45.8614L47.653 49.52L48.703 54.8054L44.001 52.1734Z" fill="url(#paint2_linear_2564_14472)"></path></g><g clip-path="url(#clip4_2564_14472)"><path d="M62.001 52.1734L57.299 54.8054L58.349 49.52L54.3923 45.8614L59.7437 45.2267L62.001 40.3334L64.2583 45.2267L69.6097 45.8614L65.653 49.52L66.703 54.8054L62.001 52.1734Z" fill="url(#paint3_linear_2564_14472)"></path></g><g clip-path="url(#clip5_2564_14472)"><path d="M80.001 52.1734L75.299 54.8054L76.349 49.52L72.3923 45.8614L77.7437 45.2267L80.001 40.3334L82.2583 45.2267L87.6097 45.8614L83.653 49.52L84.703 54.8054L80.001 52.1734Z" fill="#DCDCE6"></path></g><path fill-rule="evenodd" clip-rule="evenodd" d="M80.0008 40.3337V52.1734L75.299 54.8053L76.349 49.52L72.3923 45.8613L77.7437 45.2267L80.0008 40.3337Z" fill="url(#paint4_linear_2564_14472)"></path><path d="M99.7819 51.3381V49.7638L103.729 43.5455H105.086V45.7244H104.283L101.795 49.6623V49.7362H107.404V51.3381H99.7819ZM104.32 53V50.858L104.357 50.1609V43.5455H106.231V53H104.32ZM109.726 53.12C109.421 53.12 109.16 53.0123 108.941 52.7969C108.726 52.5784 108.618 52.3168 108.618 52.0121C108.618 51.7105 108.726 51.4519 108.941 51.2365C109.16 51.0211 109.421 50.9134 109.726 50.9134C110.021 50.9134 110.28 51.0211 110.501 51.2365C110.723 51.4519 110.834 51.7105 110.834 52.0121C110.834 52.2152 110.781 52.4014 110.677 52.5707C110.575 52.7369 110.441 52.8707 110.275 52.9723C110.109 53.0708 109.926 53.12 109.726 53.12ZM115.363 43.5455V53H113.364V45.4428H113.308L111.143 46.8001V45.0273L113.484 43.5455H115.363Z" fill="black"></path><defs><linearGradient id="paint0_linear_2564_14472" x1="8.001" y1="40.3334" x2="8.001" y2="54.8054" gradientUnits="userSpaceOnUse"><stop stop-color="#FEC900"></stop><stop offset="1" stop-color="#F49700"></stop></linearGradient><linearGradient id="paint1_linear_2564_14472" x1="26.001" y1="40.3334" x2="26.001" y2="54.8054" gradientUnits="userSpaceOnUse"><stop stop-color="#FEC900"></stop><stop offset="1" stop-color="#F49700"></stop></linearGradient><linearGradient id="paint2_linear_2564_14472" x1="44.001" y1="40.3334" x2="44.001" y2="54.8054" gradientUnits="userSpaceOnUse"><stop stop-color="#FEC900"></stop><stop offset="1" stop-color="#F49700"></stop></linearGradient><linearGradient id="paint3_linear_2564_14472" x1="62.001" y1="40.3334" x2="62.001" y2="54.8054" gradientUnits="userSpaceOnUse"><stop stop-color="#FEC900"></stop><stop offset="1" stop-color="#F49700"></stop></linearGradient><linearGradient id="paint4_linear_2564_14472" x1="76.1966" y1="40.3337" x2="76.1966" y2="54.8053" gradientUnits="userSpaceOnUse"><stop stop-color="#FEC900"></stop><stop offset="1" stop-color="#F49700"></stop></linearGradient><clipPath id="clip0_2564_14472"><rect width="76.3137" height="24" fill="white" transform="translate(22.001 8)"></rect></clipPath><clipPath id="clip1_2564_14472"><rect width="16" height="16" fill="white" transform="translate(0.000976562 40)"></rect></clipPath><clipPath id="clip2_2564_14472"><rect width="16" height="16" fill="white" transform="translate(18.001 40)"></rect></clipPath><clipPath id="clip3_2564_14472"><rect width="16" height="16" fill="white" transform="translate(36.001 40)"></rect></clipPath><clipPath id="clip4_2564_14472"><rect width="16" height="16" fill="white" transform="translate(54.001 40)"></rect></clipPath><clipPath id="clip5_2564_14472"><rect width="16" height="16" fill="white" transform="translate(72.001 40)"></rect></clipPath></defs></svg>