<svg width="70" height="60" viewBox="0 0 70 60" fill="none" xmlns="http://www.w3.org/2000/svg"><path fill-rule="evenodd" clip-rule="evenodd" d="M45.0335 27.6446L47.5936 29.7041L47.597 29.7069C47.974 30.0196 48.5725 29.951 48.8721 29.5656L50.9297 27.0025C51.2429 26.6122 51.1806 26.0417 50.7902 25.7284C50.3999 25.4152 49.8295 25.4776 49.5162 25.8678L48.8753 26.6663C48.7876 26.147 48.6714 25.6313 48.5253 25.1217C47.4895 21.5093 45.1084 18.5159 41.8216 16.694C38.5346 14.8721 34.7344 14.439 31.122 15.4749C27.3856 16.5463 24.23 19.1475 22.4638 22.612C22.2365 23.0578 22.4137 23.6037 22.8596 23.831C23.3056 24.0584 23.8512 23.881 24.0786 23.4352C25.6172 20.417 28.3668 18.1504 31.6216 17.2172C34.7691 16.3146 38.0791 16.6918 40.9429 18.2792C43.8067 19.8666 45.8805 22.4738 46.783 25.6213C46.9109 26.0672 47.0133 26.5184 47.0901 26.9727L46.1696 26.2323C45.7796 25.9186 45.2091 25.9804 44.8954 26.3704C44.5818 26.7604 44.6436 27.3308 45.0335 27.6446Z" fill="#F1C494"></path><path d="M25.1051 31.6296C25.4187 31.2396 25.3569 30.6691 24.967 30.3554L22.4052 28.2946C22.029 27.9818 21.4291 28.0461 21.1289 28.4336L19.0709 30.9975C18.7576 31.3878 18.82 31.9582 19.2104 32.2715C19.6 32.5843 20.1701 32.5227 20.4837 32.1329L21.1253 31.3336C21.2129 31.8529 21.3291 32.3686 21.4752 32.8782C22.5111 36.4907 24.8921 39.484 28.1789 41.3059C30.2953 42.4791 32.6244 43.0764 34.98 43.0764C36.2822 43.0764 37.5926 42.8937 38.8785 42.525C42.6149 41.4536 45.7706 38.8524 47.5368 35.3879C47.764 34.942 47.5869 34.3963 47.141 34.1689C46.6952 33.9418 46.1494 34.1188 45.922 34.5647C44.3834 37.5829 41.6338 39.8495 38.3789 40.7827C35.2313 41.6851 31.9215 41.3081 29.0576 39.7207C26.1938 38.1333 24.12 35.5261 23.2175 32.3786C23.0896 31.9327 22.9872 31.4815 22.9105 31.0272L23.8317 31.7682C24.2212 32.0811 24.7914 32.0194 25.1051 31.6296Z" fill="#F1C494"></path><path d="M30.4527 9.20197C21.4447 11.3082 15 19.425 15 28.8393C15 34.2239 17.0802 39.2869 20.8575 43.0947C24.6348 46.9025 29.6577 49 35 49C40.3423 49 45.3652 46.9025 49.1425 43.0947C52.9198 39.2869 55 34.2239 55 28.8393C55 19.425 48.5553 11.3082 39.5474 9.20198C39.0589 9.08776 38.5842 9.41582 38.4935 9.9092C38.4032 10.4008 38.7288 10.8706 39.215 10.9865C47.3697 12.9303 53.1988 20.2966 53.1988 28.8393C53.1988 38.9567 45.0338 47.1862 35 47.1862C24.9662 47.1862 16.8012 38.9567 16.8012 28.8393C16.8012 20.2966 22.6303 12.9303 30.7851 10.9865C31.2713 10.8706 31.5969 10.4008 31.5066 9.9092C31.4159 9.41582 30.9412 9.08776 30.4527 9.20197Z" fill="#F1C494"></path><path d="M35 11.5C35.6904 11.5 36.25 10.9404 36.25 10.25C36.25 9.55964 35.6904 9 35 9C34.3096 9 33.75 9.55964 33.75 10.25C33.75 10.9404 34.3096 11.5 35 11.5Z" fill="#F1C494"></path><path d="M34.5056 29.9385V33.3937C34.1658 33.384 33.836 33.2742 33.5577 33.0776C33.2659 32.8713 33.0451 32.5797 32.9258 32.2429L32.9255 32.242C32.8393 32.0116 32.6661 31.8242 32.4432 31.7201C32.2203 31.616 31.9654 31.6036 31.7334 31.6856C31.5014 31.7675 31.3108 31.9373 31.2027 32.1583C31.0946 32.3793 31.0775 32.6339 31.1552 32.8673L31.1555 32.8682C31.4042 33.5713 31.8647 34.1799 32.4736 34.6104C33.0689 35.0313 33.7774 35.2617 34.5056 35.2719V36.1111C34.5056 36.3601 34.6045 36.5989 34.7806 36.775C34.9566 36.9511 35.1954 37.05 35.4444 37.05C35.6935 37.05 35.9323 36.9511 36.1083 36.775C36.2844 36.5989 36.3833 36.3601 36.3833 36.1111V35.2719C37.3215 35.2589 38.2185 34.8806 38.8828 34.2162C39.559 33.54 39.9389 32.6229 39.9389 31.6667C39.9389 30.7104 39.559 29.7933 38.8828 29.1172C38.2185 28.4528 37.3215 28.0745 36.3833 28.0615V24.6063C36.7231 24.616 37.0529 24.7258 37.3312 24.9224C37.623 25.1287 37.8438 25.4203 37.9631 25.7571L37.9634 25.758C38.0496 25.9884 38.2227 26.1758 38.4457 26.2799C38.6686 26.384 38.9235 26.3964 39.1555 26.3144C39.3875 26.2325 39.5781 26.0627 39.6862 25.8417C39.7943 25.6207 39.8114 25.3661 39.7337 25.1327L39.7334 25.1318C39.4847 24.4287 39.0242 23.8201 38.4153 23.3896C37.82 22.9687 37.1115 22.7383 36.3833 22.7281V21.8889C36.3833 21.6399 36.2844 21.4011 36.1083 21.225C35.9323 21.0489 35.6935 20.95 35.4444 20.95C35.1954 20.95 34.9566 21.0489 34.7806 21.225C34.6045 21.4011 34.5056 21.6399 34.5056 21.8889V22.7281C33.5674 22.7411 32.6704 23.1194 32.006 23.7838C31.3299 24.46 30.95 25.3771 30.95 26.3333C30.95 27.2896 31.3299 28.2067 32.006 28.8828C32.6704 29.5472 33.5674 29.9255 34.5056 29.9385ZM33.3338 25.1116C33.646 24.7994 34.0655 24.619 34.5056 24.6063V28.0604C34.0655 28.0477 33.646 27.8673 33.3338 27.5551C33.0098 27.231 32.8278 26.7916 32.8278 26.3333C32.8278 25.8751 33.0098 25.4356 33.3338 25.1116ZM36.3833 33.3937V29.9396C36.8234 29.9523 37.2428 30.1327 37.5551 30.4449C37.8791 30.769 38.0611 31.2084 38.0611 31.6667C38.0611 32.1249 37.8791 32.5644 37.5551 32.8884C37.2428 33.2006 36.8234 33.381 36.3833 33.3937Z" fill="#E48822" stroke="#E48822" stroke-width="0.1"></path><path opacity="0.15" d="M46 36C54.2843 36 61 29.2843 61 21C61 12.7157 54.2843 6 46 6C37.7157 6 31 12.7157 31 21C31 29.2843 37.7157 36 46 36Z" fill="white"></path></svg>