<svg width="94" height="36" viewBox="0 0 94 36" fill="none" xmlns="http://www.w3.org/2000/svg"><path d="M12.478 13.4918L13.83 11.4773L14.1937 11.7595C14.0262 12.1335 14.0569 12.4662 14.3602 12.7048L16.8871 14.6964C18.0503 15.613 18.1182 17.2123 17.3346 18.3871L16.0664 20.2892L15.7026 19.9966C15.9073 19.641 15.8734 19.3083 15.4429 18.9722L12.9361 17.0138C12.0104 16.2911 11.8005 14.5014 12.478 13.4918Z" fill="#ffffff52"></path><path d="M13.8936 5.72157L15.9985 2.57241L16.3166 2.81677C15.8861 3.47643 16.1448 4.16821 16.6623 4.57548L20.363 7.48258C22.0458 8.80534 22.1084 11.2157 21.0363 12.8471L18.6494 16.4804L18.3557 16.2417C18.8668 15.5144 18.7756 14.0953 18.0737 13.5388L14.6136 10.7912C13.2659 9.72084 12.9064 7.19806 13.8936 5.72157Z" fill="#ffffff52"></path><path d="M13.2405 22.3221H10.4517L10.8164 20.9764H21.2155L21.5814 22.3221H18.7926L18.2953 24.1519H13.7378L13.2405 22.3221Z" fill="#ffffff52"></path><path fill-rule="evenodd" clip-rule="evenodd" d="M11.7591 28.4426C12.407 28.7512 12.7315 28.96 12.8502 29.8296C13.057 31.3486 11.7644 31.9256 10.5439 31.9268H7.68726V25.2923H10.5715C11.6032 25.2923 12.5501 25.8005 12.5501 27.051C12.5501 27.6762 12.249 28.1328 11.7591 28.4426ZM8.99153 30.6717H10.6627C11.8174 30.6717 11.8917 29.1585 10.6627 29.1573H8.99153V30.6717ZM8.99153 27.9745H10.5492C11.4601 27.9745 11.4262 26.5588 10.4898 26.5588H8.99153V27.9745Z" fill="#ffffff52"></path><path fill-rule="evenodd" clip-rule="evenodd" d="M17.4851 28.4426C18.133 28.7512 18.4575 28.96 18.5763 29.8296C18.7841 31.3486 17.4904 31.9256 16.271 31.9268H13.4133V25.2923H16.2975C17.3293 25.2923 18.2762 25.8005 18.2762 27.051C18.2762 27.6762 17.975 28.1328 17.4851 28.4426ZM14.7176 30.6717H16.3887C17.5435 30.6717 17.6177 29.1585 16.3887 29.1573H14.7176V30.6717ZM14.7176 27.9745H16.2753C17.1861 27.9745 17.1522 26.5588 16.2159 26.5588H14.7176V27.9745Z" fill="#ffffff52"></path><path fill-rule="evenodd" clip-rule="evenodd" d="M23.2112 28.4426C23.8591 28.7512 24.1835 28.96 24.3023 29.8296C24.5101 31.3486 23.2165 31.9256 21.997 31.9268H19.1393V25.2923H22.0236C23.0553 25.2923 24.0022 25.8005 24.0022 27.051C24.0022 27.6762 23.7011 28.1328 23.2112 28.4426ZM20.4436 30.6717H22.1147C23.2695 30.6717 23.3437 29.1585 22.1147 29.1573H20.4436V30.6717ZM20.4436 27.9745H22.0013C22.9121 27.9745 22.8782 26.5588 21.9419 26.5588H20.4436V27.9745Z" fill="#ffffff52"></path><path d="M37.4028 14.9568L37.0266 13.8652C36.9667 13.6894 36.9097 13.5168 36.8556 13.3503C36.8014 13.1837 36.7615 13.0419 36.733 12.9278C36.7045 13.045 36.6646 13.1837 36.6104 13.3503C36.5591 13.5168 36.5021 13.6864 36.4394 13.8652L36.0632 14.9568H37.4028Z" fill="#ffffff52"></path><path d="M53.5426 14.1427C54.1012 14.1427 54.3806 13.8806 54.3806 13.3595C54.3806 13.0851 54.3065 12.8877 54.1583 12.7706C54.01 12.6534 53.8048 12.5948 53.5426 12.5948H52.0093V14.1427H53.5426Z" fill="#ffffff52"></path><path d="M64.9714 14.4326C64.9714 14.707 64.9343 14.9599 64.8631 15.1849C64.7918 15.41 64.6807 15.6043 64.5382 15.7647C64.3928 15.925 64.2076 16.0483 63.9795 16.1378C63.7544 16.2272 63.4865 16.2703 63.1815 16.2703H62.603V12.5917H63.2214C63.8399 12.5917 64.2874 12.7459 64.561 13.0511C64.8346 13.3595 64.9714 13.8189 64.9714 14.4326Z" fill="#ffffff52"></path><path d="M83.2089 15.1849C83.2801 14.9599 83.3172 14.707 83.3172 14.4326C83.3172 13.8189 83.1804 13.3595 82.9068 13.0511C82.6332 12.7459 82.1857 12.5917 81.5672 12.5917H80.9459V16.2703H81.5245C81.8323 16.2703 82.1002 16.2272 82.3254 16.1378C82.5534 16.0483 82.7386 15.925 82.884 15.7647C83.0265 15.6043 83.1376 15.41 83.2089 15.1849Z" fill="#ffffff52"></path><path d="M37.2147 22.5774C37.2147 22.7439 37.1662 22.8796 37.0722 22.9845C36.9781 23.0893 36.81 23.1448 36.5705 23.1448H35.06V22.0008H36.5135C36.7644 22.0008 36.9439 22.0502 37.0522 22.1457C37.1605 22.2444 37.2147 22.3893 37.2147 22.5774Z" fill="#ffffff52"></path><path d="M37.1947 25.5561C37.3287 25.4174 37.3942 25.2262 37.3942 24.9857C37.3942 24.4676 37.1206 24.2117 36.5791 24.2086H35.0629V25.7658H36.5791C36.8556 25.7658 37.0608 25.698 37.1947 25.5561Z" fill="#ffffff52"></path><path fill-rule="evenodd" clip-rule="evenodd" d="M0 5.14383C0 2.30348 2.12821 0.000976562 4.75348 0.000976562H84.3742C86.9995 0.000976562 89.1277 2.30348 89.1277 5.14383V30.8581C89.1277 33.6985 86.9995 36.001 84.3742 36.001H4.75348C2.12821 36.001 0 33.6985 0 30.8581V5.14383ZM4.75348 0.643834H29.7092V35.3581H4.75348C2.45638 35.3581 0.594185 33.3434 0.594185 30.8581V5.14383C0.594185 2.65857 2.45638 0.643834 4.75348 0.643834ZM39.5546 17.4421L37.3258 11.4231H36.1858L33.9428 17.4421H35.1997L35.6614 16.1008H37.8046L38.2663 17.4421H39.5546ZM44.5051 12.4067C44.1602 11.975 43.6159 11.5803 43.1 11.4292C42.8777 11.3645 42.6269 11.3305 42.3533 11.3305C41.9686 11.3305 41.6151 11.4076 41.2988 11.5587C40.9796 11.7098 40.706 11.9226 40.478 12.1939C40.25 12.4653 40.0704 12.7921 39.9422 13.1745C39.8139 13.5569 39.7484 13.9762 39.7484 14.4326C39.7484 14.9074 39.8111 15.336 39.9336 15.7184C40.0562 16.1008 40.23 16.4245 40.458 16.6959C40.6832 16.9641 40.9539 17.1738 41.2674 17.3187C41.5809 17.4637 41.9287 17.5377 42.3134 17.5377C43.0231 17.5377 44.2515 17.1183 44.602 16.369L43.7698 15.5704C43.5332 15.9774 42.7922 16.3444 42.3476 16.3444C42.131 16.3444 41.9344 16.295 41.7605 16.1994C41.5866 16.1008 41.4413 15.9682 41.3216 15.7955C41.2019 15.6228 41.1107 15.4224 41.048 15.188C40.9853 14.9568 40.9568 14.7039 40.9568 14.4357C40.9568 14.1551 40.9881 13.8991 41.048 13.6648C41.1107 13.4335 41.199 13.2331 41.3159 13.0635C41.4327 12.8939 41.5781 12.7613 41.752 12.6688C41.9258 12.5732 42.1196 12.527 42.3391 12.527C42.778 12.527 43.4021 12.8415 43.6928 13.2577L44.5051 12.4067ZM55.6289 17.4421L55.6271 17.439H55.6289V17.4421ZM55.6271 17.439H54.2808L53.0553 15.3237L52.0093 15.2713V17.439H50.8379V11.42H53.5683C53.8419 11.42 54.1012 11.4601 54.3464 11.5371C54.5915 11.6142 54.8052 11.7345 54.9905 11.8948C55.1757 12.0552 55.3211 12.2556 55.4265 12.493C55.532 12.7305 55.5861 13.0111 55.5861 13.3317C55.5861 13.785 55.4949 14.1551 55.3068 14.4449C55.1187 14.7348 54.7026 15.0061 54.3293 15.1541L55.6271 17.439ZM60.5566 17.4452V16.2642H57.5327V14.8118H59.9667V13.6432H57.5327V12.604H60.4312V11.4261H56.3613V17.4452H60.5566ZM66.1798 14.4326C66.1798 13.8837 66.1057 13.4181 65.9575 13.0357C65.8093 12.6534 65.6069 12.345 65.3476 12.1014C65.0882 11.8609 64.7804 11.6882 64.427 11.5803C64.0736 11.4755 63.686 11.42 63.267 11.42H61.4316V17.439H63.1815C63.5549 17.439 63.9225 17.3804 64.2816 17.2663C64.6408 17.1522 64.9628 16.9734 65.245 16.7298C65.5271 16.4862 65.7523 16.1748 65.9233 15.7924C66.0943 15.4162 66.1798 14.9599 66.1798 14.4326ZM68.4855 11.4231H67.3141V17.4421H68.4855V11.4231ZM73.9491 12.6102V11.4231H69.4089V12.6102H71.0933V17.4421H72.2647V12.6102H73.9491ZM84.5228 14.4326C84.5228 13.8837 84.4487 13.4181 84.3005 13.0357C84.1523 12.6534 83.9499 12.345 83.6905 12.1014C83.4312 11.8609 83.1234 11.6882 82.77 11.5803C82.4166 11.4755 82.029 11.42 81.61 11.42H79.7746V17.439H81.5245C81.8979 17.439 82.2655 17.3804 82.6275 17.2663C82.9866 17.1522 83.3086 16.9734 83.5908 16.7298C83.8729 16.4862 84.0981 16.1748 84.2691 15.7924C84.4401 15.4162 84.5228 14.9599 84.5228 14.4326ZM78.8968 17.4452V16.2642H75.8728V14.8118H78.3068V13.6432H75.8728V12.604H78.7713V11.4261H74.7015V17.4452H78.8968ZM62.5289 26.9129V25.7319H59.505V24.2795H61.9389V23.1109H59.505V22.0717H62.4035V20.8938H58.3336V26.9129H62.5289ZM49.9174 12.4067C49.5725 11.975 49.0281 11.5803 48.5123 11.4292C48.29 11.3645 48.0392 11.3305 47.7656 11.3305C47.3808 11.3305 47.0274 11.4076 46.7111 11.5587C46.3918 11.7098 46.1182 11.9226 45.8902 12.1939C45.6622 12.4653 45.4827 12.7921 45.3544 13.1745C45.2262 13.5569 45.1606 13.9762 45.1606 14.4326C45.1606 14.9074 45.2233 15.336 45.3459 15.7184C45.4684 16.1008 45.6423 16.4245 45.8703 16.6959C46.0954 16.9641 46.3662 17.1738 46.6797 17.3187C46.9932 17.4637 47.3409 17.5377 47.7257 17.5377C48.4353 17.5377 49.6637 17.1183 50.0143 16.369L49.182 15.5704C48.9455 15.9774 48.2045 16.3444 47.7599 16.3444C47.5433 16.3444 47.3466 16.295 47.1728 16.1994C46.9989 16.1008 46.8535 15.9682 46.7339 15.7955C46.6141 15.6228 46.5229 15.4224 46.4631 15.188C46.4004 14.9568 46.3719 14.7039 46.3719 14.4357C46.3719 14.1551 46.4032 13.8991 46.4631 13.6648C46.5258 13.4335 46.6141 13.2331 46.731 13.0635C46.8479 12.8939 46.9932 12.7613 47.1671 12.6688C47.3409 12.5732 47.5347 12.527 47.7542 12.527C48.1931 12.527 48.8172 12.8415 49.1079 13.2577L49.9174 12.4067ZM38.5684 24.9672C38.5684 24.6341 38.4915 24.3597 38.3404 24.1408C38.1894 23.9219 37.9984 23.7584 37.7704 23.6505C37.9614 23.5302 38.1096 23.3699 38.215 23.1695C38.3205 22.969 38.3746 22.7409 38.3746 22.4818C38.3746 21.9669 38.2122 21.5722 37.8844 21.3008C37.5567 21.0295 37.1178 20.8938 36.562 20.8938H33.9428V26.9129H36.5363C36.8413 26.9129 37.1178 26.8728 37.3686 26.7895C37.6194 26.7063 37.8331 26.5829 38.0098 26.4195C38.1865 26.2561 38.3233 26.0526 38.4231 25.809C38.52 25.5623 38.5684 25.2817 38.5684 24.9672ZM43.9579 24.2549V20.8938H42.815V24.2734C42.815 24.7606 42.7096 25.1429 42.5015 25.4174C42.2935 25.6918 42.0056 25.8305 41.6408 25.8305C41.276 25.8305 40.991 25.6887 40.7829 25.4081C40.5777 25.1275 40.4723 24.7421 40.4723 24.2549V20.8938H39.3294V24.2734C39.3294 24.7143 39.3864 25.1028 39.4976 25.442C39.6087 25.7812 39.7655 26.0649 39.9678 26.2962C40.1702 26.5274 40.4124 26.7032 40.6974 26.8234C40.9824 26.9437 41.2959 27.0054 41.6408 27.0054C42.3704 27.0054 42.9376 26.7648 43.3451 26.2869C43.7527 25.809 43.9579 25.1306 43.9579 24.2549ZM49.2048 25.0874C49.2048 24.7606 49.1479 24.4923 49.0338 24.2795C48.9198 24.0668 48.7716 23.8941 48.5892 23.7553C48.4068 23.6166 48.2016 23.5117 47.9765 23.4316C47.7513 23.3545 47.5233 23.2866 47.2953 23.2281C47.0673 23.1695 46.8792 23.1201 46.731 23.0739C46.5828 23.0276 46.4659 22.9783 46.3804 22.9289C46.2921 22.8765 46.2322 22.8179 46.198 22.7532C46.1638 22.6884 46.1439 22.6052 46.1439 22.5096C46.1439 22.4418 46.1581 22.3739 46.1838 22.3122C46.2123 22.2506 46.2579 22.192 46.3234 22.1396C46.389 22.0871 46.4745 22.0471 46.5771 22.0162C46.6797 21.9854 46.8079 21.97 46.9619 21.97C47.2241 21.97 47.4578 22.0224 47.6687 22.1303C47.8767 22.2352 48.0762 22.3893 48.2615 22.5898L49.0851 21.748C48.8144 21.4489 48.5094 21.2176 48.176 21.0511C47.8425 20.8846 47.4521 20.8013 47.0046 20.8013C46.7225 20.8013 46.4574 20.8414 46.2094 20.9216C45.9615 21.0018 45.7449 21.1189 45.5596 21.27C45.3744 21.4211 45.229 21.6061 45.1236 21.8251C45.0181 22.044 44.964 22.2907 44.964 22.5651C44.964 22.8642 45.0067 23.114 45.0951 23.3144C45.1834 23.5148 45.3031 23.6813 45.4627 23.8139C45.6195 23.9465 45.8104 24.0544 46.0299 24.1408C46.2493 24.2271 46.4916 24.3011 46.7509 24.3628C47.0189 24.4245 47.2355 24.4861 47.4036 24.5447C47.5718 24.6033 47.7 24.6619 47.7912 24.7236C47.8824 24.7883 47.9423 24.8531 47.9736 24.9271C48.005 24.998 48.0221 25.0843 48.0221 25.1799C48.0221 25.4081 47.9423 25.5746 47.7827 25.6795C47.6231 25.7812 47.3694 25.8336 47.0274 25.8336C46.7509 25.8336 46.4887 25.7812 46.2408 25.6733C45.9928 25.5684 45.7677 25.3896 45.5682 25.146L44.7445 25.92C44.9611 26.2592 45.2661 26.5243 45.6594 26.7186C46.0498 26.9129 46.4859 27.0115 46.9647 27.0115C47.3552 27.0115 47.6915 26.9653 47.9736 26.8728C48.2529 26.7803 48.4866 26.6508 48.6719 26.4812C48.8571 26.3116 48.9939 26.1111 49.0794 25.8737C49.1621 25.6332 49.2048 25.3742 49.2048 25.0874ZM51.274 26.9098V20.8907H50.1311V26.9098H51.274ZM57.0853 26.9036V20.8907H55.9595V23.4347C55.9595 23.5063 55.9614 23.5906 55.9637 23.6895L55.9652 23.7523C55.968 23.8787 55.968 24.0082 55.968 24.1377C55.968 24.2641 55.968 24.3813 55.9709 24.4954L55.973 24.5745C55.975 24.6479 55.9766 24.7067 55.9766 24.7482C55.9395 24.6681 55.8797 24.5632 55.7999 24.4337C55.7201 24.3042 55.646 24.1839 55.5747 24.0699L53.5512 20.8877H52.4568V26.9067H53.5825V24.2575C53.5825 24.1713 53.5825 24.0666 53.5797 23.9404C53.5768 23.8139 53.574 23.6869 53.574 23.5604C53.574 23.4281 53.574 23.308 53.5711 23.1941C53.5683 23.0831 53.5683 22.9968 53.5683 22.9413C53.6053 23.0215 53.6652 23.1263 53.745 23.2558C53.8248 23.3853 53.8989 23.5056 53.9701 23.6197L56.0678 26.9036H57.0853ZM67.1944 25.0874C67.1944 24.7606 67.1374 24.4923 67.0234 24.2795C66.9094 24.0668 66.7612 23.8941 66.5788 23.7553C66.3964 23.6166 66.1912 23.5117 65.966 23.4316C65.7409 23.3545 65.5129 23.2866 65.2849 23.2281C65.0569 23.1695 64.8688 23.1201 64.7234 23.0739C64.5752 23.0276 64.4584 22.9783 64.3729 22.9289C64.2874 22.8765 64.2247 22.8179 64.1905 22.7532C64.1534 22.6884 64.1363 22.6052 64.1363 22.5096C64.1363 22.4418 64.1506 22.3739 64.1762 22.3122C64.2047 22.2506 64.2503 22.192 64.3159 22.1396C64.3814 22.0871 64.4641 22.0471 64.5695 22.0162C64.6721 21.9854 64.8004 21.97 64.9543 21.97C65.2165 21.97 65.4502 22.0224 65.6611 22.1303C65.8691 22.2352 66.0686 22.3893 66.251 22.5898L67.0747 21.748C66.8011 21.4489 66.499 21.2176 66.1655 21.0511C65.8321 20.8846 65.4416 20.8013 64.9942 20.8013C64.712 20.8013 64.447 20.8414 64.199 20.9216C63.9511 21.0018 63.7344 21.1189 63.5492 21.27C63.3639 21.4211 63.2186 21.6061 63.1131 21.8251C63.0077 22.044 62.9535 22.2907 62.9535 22.5651C62.9535 22.8642 62.9963 23.114 63.0846 23.3144C63.1701 23.5148 63.2927 23.6813 63.4523 23.8139C63.609 23.9465 63.8 24.0544 64.0195 24.1408C64.2389 24.2271 64.4812 24.3011 64.7405 24.3628C65.0084 24.4245 65.225 24.4861 65.3932 24.5447C65.5613 24.6033 65.6896 24.6619 65.7808 24.7236C65.8691 24.7883 65.9318 24.8531 65.9632 24.9271C65.9974 24.998 66.0116 25.0843 66.0116 25.1799C66.0116 25.4081 65.9318 25.5746 65.7722 25.6795C65.6126 25.7812 65.359 25.8336 65.017 25.8336C64.7405 25.8336 64.4783 25.7812 64.2304 25.6733C63.9824 25.5684 63.7572 25.3896 63.5577 25.146L62.7341 25.92C62.9507 26.2592 63.2556 26.5243 63.6489 26.7186C64.0394 26.9129 64.4755 27.0115 64.9543 27.0115C65.3476 27.0115 65.681 26.9653 65.9632 26.8728C66.2425 26.7803 66.4762 26.6508 66.6615 26.4812C66.8467 26.3116 66.9835 26.1111 67.069 25.8737C67.1517 25.6332 67.1944 25.3742 67.1944 25.0874ZM72.1022 25.0874C72.1022 24.7606 72.0452 24.4923 71.9312 24.2795C71.8172 24.0668 71.669 23.8941 71.4866 23.7553C71.3042 23.6166 71.099 23.5117 70.8738 23.4316C70.6487 23.3545 70.4207 23.2866 70.1927 23.2281C69.9647 23.1695 69.7766 23.1201 69.6312 23.0739C69.483 23.0276 69.3661 22.9783 69.2807 22.9289C69.1923 22.8765 69.1324 22.8179 69.0983 22.7532C69.0612 22.6884 69.0441 22.6052 69.0441 22.5096C69.0441 22.4418 69.0584 22.3739 69.084 22.3122C69.1125 22.2506 69.1581 22.192 69.2237 22.1396C69.2892 22.0871 69.3747 22.0471 69.4773 22.0162C69.5799 21.9854 69.7082 21.97 69.8621 21.97C70.1243 21.97 70.358 22.0224 70.5689 22.1303C70.7769 22.2352 70.9764 22.3893 71.1617 22.5898L71.9854 21.748C71.7118 21.4489 71.4096 21.2176 71.0762 21.0511C70.7427 20.8846 70.3523 20.8013 69.9048 20.8013C69.6227 20.8013 69.3576 20.8414 69.1097 20.9216C68.8617 21.0018 68.6451 21.1189 68.4598 21.27C68.2746 21.4211 68.1292 21.6061 68.0238 21.8251C67.9183 22.044 67.8642 22.2907 67.8642 22.5651C67.8642 22.8642 67.9069 23.114 67.9953 23.3144C68.0808 23.5148 68.2033 23.6813 68.3629 23.8139C68.5197 23.9465 68.7106 24.0544 68.9301 24.1408C69.1496 24.2271 69.3918 24.3011 69.6512 24.3628C69.9191 24.4245 70.1357 24.4861 70.3038 24.5447C70.472 24.6033 70.6002 24.6619 70.6914 24.7236C70.7798 24.7883 70.8425 24.8531 70.8738 24.9271C70.9052 24.998 70.9223 25.0843 70.9223 25.1799C70.9223 25.4081 70.8425 25.5746 70.6829 25.6795C70.5233 25.7812 70.2696 25.8336 69.9276 25.8336C69.6512 25.8336 69.389 25.7812 69.141 25.6733C68.893 25.5684 68.6679 25.3896 68.4684 25.146L67.6447 25.92C67.8613 26.2592 68.1663 26.5243 68.5596 26.7186C68.9529 26.9129 69.3861 27.0115 69.8649 27.0115C70.2582 27.0115 70.5917 26.9653 70.8738 26.8728C71.1531 26.7803 71.3868 26.6508 71.5721 26.4812C71.7574 26.3116 71.8941 26.1111 71.9797 25.8737C72.0566 25.6332 72.1022 25.3742 72.1022 25.0874Z" fill="#ffffff52"></path><path fill-rule="evenodd" clip-rule="evenodd" d="M91.6835 35.8418C91.8834 35.9343 92.0978 35.9805 92.3266 35.9805C92.5555 35.9805 92.7698 35.9343 92.9697 35.8418C93.1696 35.7494 93.3454 35.6211 93.497 35.457C93.6487 35.293 93.7672 35.1028 93.8527 34.8865C93.9382 34.6703 93.9809 34.4384 93.9809 34.1908C93.9809 33.9432 93.9382 33.7113 93.8527 33.495C93.7672 33.2787 93.6487 33.0886 93.497 32.9245C93.3454 32.7604 93.1696 32.6322 92.9697 32.5397C92.7698 32.4472 92.5555 32.401 92.3266 32.401C92.0978 32.401 91.8834 32.4472 91.6835 32.5397C91.4836 32.6322 91.3079 32.7604 91.1562 32.9245C91.0046 33.0886 90.886 33.2787 90.8006 33.495C90.7151 33.7113 90.6724 33.9432 90.6724 34.1908C90.6724 34.4384 90.7151 34.6703 90.8006 34.8865C90.886 35.1028 91.0046 35.293 91.1562 35.457C91.3079 35.6211 91.4836 35.7494 91.6835 35.8418ZM93.0483 35.5331C92.8319 35.6718 92.5913 35.7412 92.3266 35.7412C92.0619 35.7412 91.8207 35.6718 91.6029 35.5331C91.3865 35.3944 91.2141 35.2072 91.0859 34.9716C90.9577 34.7359 90.8936 34.4756 90.8936 34.1908C90.8936 33.9044 90.9577 33.6441 91.0859 33.41C91.2141 33.1743 91.3865 32.9872 91.6029 32.8484C91.8207 32.7097 92.0619 32.6404 92.3266 32.6404C92.5913 32.6404 92.8319 32.7105 93.0483 32.8507C93.2647 32.9894 93.437 33.1758 93.5653 33.41C93.6948 33.6441 93.7596 33.9044 93.7596 34.1908C93.7596 34.4771 93.6955 34.7381 93.5673 34.9738C93.4391 35.208 93.2661 35.3944 93.0483 35.5331ZM91.7829 33.3652V35.0163H92.1385V34.4592H92.445L92.701 35.0163H93.0918L92.7866 34.3779C92.853 34.3356 92.9092 34.2777 92.9553 34.2042C93.0077 34.1207 93.0339 34.0193 93.0339 33.8999C93.0339 33.7821 93.0084 33.6837 92.9574 33.6046C92.9078 33.5241 92.845 33.4644 92.7692 33.4256C92.6948 33.3854 92.6203 33.3652 92.5459 33.3652H91.7829ZM92.1385 34.1751H92.428C92.4777 34.1751 92.5266 34.152 92.5748 34.1058C92.6245 34.0595 92.6493 33.9909 92.6493 33.8999C92.6493 33.8045 92.6245 33.7389 92.5748 33.7031C92.5266 33.6673 92.4797 33.6494 92.4342 33.6494H92.1385V34.1751Z" fill="#ffffff52"></path></svg>