<svg width="64" height="28" viewBox="0 0 64 28" fill="none" xmlns="http://www.w3.org/2000/svg"><path d="M14.9302 5.09702C12.6902 5.09702 10.9262 5.88102 9.65216 7.47702C8.37816 9.05902 7.73416 11.257 7.73416 14.043C7.73416 16.969 8.35016 19.167 9.58216 20.693C10.8282 22.191 12.5922 22.933 14.9302 22.933C15.9382 22.933 16.9182 22.835 17.8702 22.625C18.8222 22.429 19.8022 22.163 20.8242 21.855V25.201C18.9622 25.915 16.8202 26.265 14.4682 26.265C10.9822 26.265 8.29417 25.201 6.43216 23.087C4.57016 20.973 3.61816 17.935 3.61816 14.015C3.61816 11.537 4.08016 9.35302 4.99016 7.51902C5.90016 5.65702 7.21616 4.22902 8.93816 3.24902C10.6602 2.26902 12.6762 1.76502 14.9862 1.76502C17.4082 1.76502 19.6762 2.28302 21.7342 3.30502L20.3342 6.55302C19.5362 6.17502 18.6682 5.83902 17.7722 5.54502C16.8762 5.25102 15.9242 5.09702 14.9302 5.09702ZM40.0322 19.475C40.0322 21.589 39.2622 23.255 37.7362 24.459C36.1962 25.663 34.0822 26.265 31.4082 26.265C28.7062 26.265 26.4942 25.845 24.7862 25.005V21.323C25.8782 21.841 27.0262 22.233 28.2582 22.527C29.4902 22.821 30.6102 22.961 31.6742 22.961C33.2282 22.961 34.3622 22.667 35.0902 22.079C35.8182 21.491 36.1822 20.707 36.1822 19.699C36.1822 18.803 35.8602 18.061 35.1742 17.431C34.5022 16.815 33.1162 16.087 30.9882 15.219C28.8182 14.337 27.2782 13.343 26.3822 12.209C25.4862 11.075 25.0522 9.73102 25.0522 8.13502C25.0522 6.14702 25.7662 4.57902 27.1662 3.44502C28.5662 2.29702 30.4702 1.72302 32.8642 1.72302C35.1462 1.72302 37.4282 2.21302 39.6682 3.22102L38.4222 6.39902C36.3082 5.50302 34.4042 5.06902 32.7382 5.06902C31.4782 5.06902 30.5262 5.34902 29.8682 5.89502C29.2102 6.44102 28.8882 7.16902 28.8882 8.06502C28.8882 8.68102 29.0142 9.21302 29.2662 9.64702C29.5182 10.081 29.9662 10.501 30.5682 10.893C31.1702 11.271 32.2482 11.803 33.8022 12.447C35.5522 13.175 36.8262 13.847 37.6522 14.491C38.4782 15.135 39.0522 15.835 39.4442 16.633C39.8502 17.445 40.0322 18.397 40.0322 19.475ZM53.2202 25.929H49.3282V5.43302H42.3142V2.08702H60.2482V5.43302H53.2342V25.929H53.2202Z" fill="#ffffff52"></path></svg>