<svg xmlns="http://www.w3.org/2000/svg" width="105" height="40" viewBox="0 0 105 40" fill="none">
<path d="M16.7451 6.26791C16.38 5.16507 16.067 5.16507 15.7018 6.26791L11.8938 16.8C11.6851 17.2963 11.4243 17.572 10.9548 17.572H9.38981C8.81599 17.5168 8.60733 17.1308 8.86815 16.414L14.189 2.18741C14.5542 1.58085 15.2323 1.25 16.2235 1.25C17.2146 1.25 17.8928 1.58085 18.2058 2.24255L23.6831 16.5243C23.8918 17.186 23.7353 17.572 23.1615 17.572H21.5965C21.127 17.572 20.814 17.2963 20.6575 16.8L16.7451 6.26791Z" fill="white"/>
<path d="M38.15 11.1097C37.0171 11.1651 36.4776 10.6111 36.4776 9.50331C36.4776 8.45087 37.0171 7.89696 38.096 7.84157H41.4408C42.5485 7.84157 43.3289 7.31517 43.3289 6.17983C43.3289 4.65924 41.6539 4.58699 40.4408 4.53467C40.3192 4.52942 40.2023 4.52437 40.0921 4.51809H34.8053C34.05 4.51809 33.7263 4.90583 33.7263 5.7367V16.0395C33.7803 17.1473 33.2408 17.7012 32.1618 17.7012C31.0829 17.7012 30.5434 17.1473 30.5434 16.0395V3.29948C30.5434 1.9147 31.1368 1.25 32.3237 1.25H40.0921C42.8434 1.25 44.7316 2.02548 45.7566 3.52104C46.2421 4.29652 46.5118 5.18279 46.5118 6.23522C46.4039 8.17392 45.6487 9.33714 44.1921 9.66948C45.5947 10.0018 46.35 11.0543 46.4579 12.7714V16.0395C46.4579 17.1473 45.9184 17.7012 44.8395 17.7012C43.7605 17.7012 43.275 17.1473 43.275 16.0395V12.7714C43.275 11.618 42.6211 11.1097 41.4408 11.1097H38.15Z" fill="white"/>
<path d="M55.575 16.8704L59.5131 6.29061C59.8908 5.18279 60.2145 5.18279 60.5921 6.29061L64.6382 16.8704C64.8 17.3689 65.1237 17.6458 65.6092 17.6458H67.2276C67.8211 17.6458 67.9829 17.2581 67.7671 16.5934L62.1026 2.24704C61.7789 1.58235 61.0776 1.25 60.0526 1.25C58.9737 1.25 58.2724 1.58235 57.9487 2.13626L52.446 16.4826C52.1763 17.2027 52.3921 17.5904 52.9855 17.6458H54.6039C55.0895 17.6458 55.3592 17.3689 55.575 16.8704Z" fill="white"/>
<path d="M90.1012 16.2057C90.1012 17.2027 89.6157 17.7012 88.6447 17.7012H87.7815C87.242 17.7012 86.7565 17.5351 86.3789 17.1473L78.5565 8.72783C77.8012 8.06314 77.3697 8.06314 77.3697 8.72783V16.0395C77.4236 17.1473 76.8841 17.7012 75.8052 17.7012C74.7262 17.7012 74.1868 17.1473 74.1868 16.0395V2.524C74.1868 1.69313 74.5644 1.30539 75.2657 1.25H76.021C76.5065 1.25 76.9381 1.47157 77.3697 1.9147L85.8934 11.2204C86.5947 11.6636 86.9723 11.442 86.9723 10.7219V2.91174C86.9184 1.80391 87.4578 1.25 88.5368 1.25C89.6157 1.25 90.1552 1.80391 90.2091 2.85635L90.1012 16.2057Z" fill="white"/>
<path d="M15.6 28.8349C14.5211 28.8349 13.9816 29.3888 13.9816 30.4966V34.7063C13.9816 35.2049 13.7118 35.4818 13.1724 35.4818H9.23421C6.44335 35.4818 4.4329 33.3523 4.4329 30.552C4.4329 27.7536 6.38924 25.677 9.18026 25.5668L15.8158 25.5114C16.7329 25.5114 17.1645 25.0129 17.1645 23.905C17.1645 22.7972 16.7329 22.2987 15.8158 22.2987H9.18026C4.52581 22.2987 1.25 25.9761 1.25 30.552C1.25 35.2585 4.50928 38.6945 9.23421 38.6945H16.1395C16.7868 38.6945 17.1645 38.3622 17.2184 37.5867V30.4412C17.2184 29.3888 16.6789 28.8349 15.6 28.8349Z" fill="white"/>
<path d="M30.9211 32.1583C29.7882 32.2137 29.2487 31.6598 29.2487 30.552C29.2487 29.4996 29.7882 28.9456 30.8671 28.8902H34.2119C35.3196 28.8902 36.1 28.3638 36.1 27.2285C36.1 25.7079 34.425 25.6357 33.2119 25.5833C33.0903 25.5781 32.9733 25.5731 32.8632 25.5668H27.5763C26.8211 25.5668 26.4974 25.9545 26.4974 26.7854V37.0882C26.5513 38.196 26.0119 38.7499 24.9329 38.7499C23.854 38.7499 23.3145 38.196 23.3145 37.0882V24.3482C23.3145 22.9634 23.9079 22.2987 25.0947 22.2987H32.8632C35.6145 22.2987 37.5026 23.0742 38.5276 24.5697C39.0132 25.3452 39.2829 26.2315 39.2829 27.2839C39.175 29.2226 38.4197 30.3858 36.9632 30.7182C38.3658 31.0505 39.1211 32.1029 39.229 33.8201V37.0882C39.229 38.196 38.6895 38.7499 37.6105 38.7499C36.5316 38.7499 36.0461 38.196 36.0461 37.0882V33.8201C36.2703 32.669 35.2004 32.1583 34.2119 32.1583H30.9211Z" fill="white"/>
<path d="M81.4697 38.7499C82.4408 38.7499 82.9263 38.2514 82.9263 37.2543L82.9802 23.905C82.9263 22.8526 82.3868 22.2987 81.3078 22.2987C80.2289 22.2987 79.6894 22.8526 79.7434 23.9604V31.7706C79.7434 32.4907 79.3657 32.7122 78.6644 32.2691L70.1407 22.9634C69.7092 22.5202 69.2776 22.2987 68.792 22.2987H68.0368C67.3355 22.3541 66.9578 22.7418 66.9578 23.5727V37.0882C66.9578 38.196 67.4973 38.7499 68.5763 38.7499C69.6552 38.7499 70.1947 38.196 70.1407 37.0882V29.7765C70.1407 29.1118 70.5723 29.1118 71.3276 29.7765L79.1499 38.196C79.5276 38.5837 80.0131 38.7499 80.5526 38.7499H81.4697Z" fill="white"/>
<path d="M98.0728 37.1437C98.0728 38.2115 97.6142 38.75 96.4813 38.75C95.4024 38.75 94.8629 38.1961 94.8629 37.1437V26.7855C94.8629 26.01 94.5392 25.6223 93.8379 25.6223H90.6408C89.5079 25.6777 88.9684 25.0961 88.9684 23.9882C88.9684 22.9358 89.5079 22.4096 90.6408 22.3542H102.374C103.291 22.2988 103.75 22.8804 103.75 23.9882C103.75 25.0961 103.291 25.6223 102.374 25.5669H99.1248C98.4774 25.6223 98.1267 26.01 98.0728 26.8409V37.1437Z" fill="white"/>
<path d="M52.2841 27.3393C52.6618 26.2314 52.9855 26.2314 53.3631 27.3393L57.4091 37.8636C57.571 38.3622 57.8947 38.6391 58.3802 38.6391H59.9986C60.592 38.6391 60.7539 38.2514 60.5381 37.5867L54.8736 23.2403C54.5499 22.5756 53.8486 22.2433 52.8236 22.2433C51.7447 22.2433 51.0434 22.5756 50.7197 23.1849L45.217 37.5313C44.9473 38.2514 45.1631 38.6391 45.7565 38.6945H47.3749C47.8605 38.6945 48.1302 38.4175 48.346 37.919L52.2841 27.3393Z" fill="white"/>
<path d="M53.3632 27.3393C52.9855 26.2315 52.6618 26.2315 52.2842 27.3393L48.3461 37.919C48.1303 38.4176 47.8605 38.6945 47.375 38.6945H45.7566C45.1632 38.6391 44.9474 38.2514 45.2171 37.5313L50.7197 23.1849C51.0434 22.5756 51.7447 22.2433 52.8237 22.2433C53.8487 22.2433 54.55 22.5756 54.8737 23.2403L60.5382 37.5867C60.754 38.2514 60.5921 38.6391 59.9987 38.6391H58.3803C57.8947 38.6391 57.5711 38.3622 57.4092 37.8636L53.3632 27.3393Z" fill="url(#paint0_linear_1996_4078)"/>
<defs>
<linearGradient id="paint0_linear_1996_4078" x1="37.3387" y1="22.2433" x2="37.3387" y2="38.6945" gradientUnits="userSpaceOnUse">
<stop stop-color="#E89A43"/>
<stop offset="1" stop-color="#E48822"/>
</linearGradient>
</defs>
</svg>