<svg width="70" height="60" viewBox="0 0 70 60" fill="none" xmlns="http://www.w3.org/2000/svg"><path opacity="0.15" d="M18 36C26.2843 36 33 29.2843 33 21C33 12.7157 26.2843 6 18 6C9.71573 6 3 12.7157 3 21C3 29.2843 9.71573 36 18 36Z" fill="white"></path><path fill-rule="evenodd" clip-rule="evenodd" d="M50.1001 12.5448H47.8779V12.1744C47.8779 11.4868 47.6047 10.8274 47.1185 10.3412C46.6323 9.855 45.9729 9.58185 45.2853 9.58185C44.5977 9.58185 43.9383 9.855 43.4521 10.3412C42.9659 10.8274 42.6927 11.4868 42.6927 12.1744V12.5448H37.3964V12.1744C37.3964 11.4868 37.1233 10.8274 36.6371 10.3412C36.1509 9.855 35.4914 9.58185 34.8038 9.58185C34.1162 9.58185 33.4568 9.855 32.9706 10.3412C32.4844 10.8274 32.2112 11.4868 32.2112 12.1744V12.5448L26.3401 12.5448V12.1745C26.3401 11.4869 26.067 10.8274 25.5807 10.3412C25.0945 9.85501 24.4351 9.58186 23.7475 9.58186C23.0599 9.58186 22.4005 9.85501 21.9143 10.3412C21.4281 10.8274 21.1549 11.4869 21.1549 12.1745V12.5448H18.9327C17.9504 12.5448 17.0084 12.935 16.3138 13.6296C15.6192 14.3242 15.229 15.2662 15.229 16.2485V26.0679C15.229 26.2644 15.307 26.4528 15.4459 26.5917C15.5849 26.7306 15.7733 26.8087 15.9697 26.8087C16.1662 26.8087 16.3546 26.7306 16.4935 26.5917C16.6324 26.4528 16.7105 26.2644 16.7105 26.0679V16.2485C16.7105 15.6592 16.9446 15.0939 17.3613 14.6772C17.7781 14.2604 18.3433 14.0263 18.9327 14.0263H21.1549V15.1374C21.1549 15.825 21.4281 16.4845 21.9143 16.9707C22.4005 17.4569 23.0599 17.73 23.7475 17.73C24.4351 17.73 25.0945 17.4569 25.5807 16.9707C26.067 16.4845 26.3401 15.825 26.3401 15.1374V14.0263L32.2112 14.0263V15.1374C32.2112 15.825 32.4844 16.4844 32.9706 16.9706C33.4568 17.4569 34.1162 17.73 34.8038 17.73C35.4914 17.73 36.1509 17.4569 36.6371 16.9706C37.1233 16.4844 37.3964 15.825 37.3964 15.1374V14.0263H42.6927V15.1374C42.6927 15.825 42.9659 16.4844 43.4521 16.9706C43.9383 17.4569 44.5977 17.73 45.2853 17.73C45.9729 17.73 46.6323 17.4569 47.1185 16.9706C47.6047 16.4844 47.8779 15.825 47.8779 15.1374V14.0263H50.1001C50.6895 14.0263 51.2547 14.2604 51.6715 14.6772C52.0882 15.0939 52.3223 15.6591 52.3223 16.2485V35.4745C52.3223 35.6709 52.2443 35.8593 52.1054 35.9983C51.9665 36.1372 51.778 36.2152 51.5816 36.2152H47.8779C46.8956 36.2152 45.9536 36.6054 45.259 37.3C44.5644 37.9946 44.1742 38.9366 44.1742 39.9189V43.6226C44.1742 43.8191 44.0962 44.0075 43.9572 44.1464C43.8183 44.2853 43.6299 44.3634 43.4335 44.3634L18.9327 44.3189C18.3433 44.3189 17.7781 44.0848 17.3613 43.6681C16.9446 43.2513 16.7105 42.6861 16.7105 42.0967V35.0341C16.7105 34.8376 16.6324 34.6492 16.4935 34.5103C16.3546 34.3714 16.1662 34.2933 15.9697 34.2933C15.7733 34.2933 15.5849 34.3714 15.4459 34.5103C15.307 34.6492 15.229 34.8376 15.229 35.0341V45.1041C15.229 46.0864 15.6192 47.0285 16.3138 47.723C17.0084 48.4176 17.9504 48.8078 18.9327 48.8078H50.1001C51.0824 48.8078 52.0244 48.4176 52.719 47.723C53.4136 47.0284 53.8038 46.0864 53.8038 45.1041V16.2485C53.8038 15.2662 53.4136 14.3242 52.719 13.6296C52.0244 12.935 51.0824 12.5448 50.1001 12.5448ZM44.1742 12.1744C44.1742 11.8798 44.2913 11.5971 44.4996 11.3888C44.708 11.1804 44.9906 11.0633 45.2853 11.0633C45.58 11.0633 45.8626 11.1804 46.071 11.3888C46.2793 11.5971 46.3964 11.8798 46.3964 12.1744V15.1374C46.3964 15.4321 46.2793 15.7147 46.071 15.9231C45.8626 16.1315 45.58 16.2485 45.2853 16.2485C44.9906 16.2485 44.708 16.1315 44.4996 15.9231C44.2913 15.7147 44.1742 15.4321 44.1742 15.1374V12.1744ZM33.6927 12.1744C33.6927 11.8798 33.8098 11.5971 34.0181 11.3888C34.2265 11.1804 34.5091 11.0633 34.8038 11.0633C35.0985 11.0633 35.3811 11.1804 35.5895 11.3888C35.7979 11.5971 35.9149 11.8798 35.9149 12.1744V15.1374C35.9149 15.4321 35.7979 15.7147 35.5895 15.9231C35.3811 16.1315 35.0985 16.2485 34.8038 16.2485C34.5091 16.2485 34.2265 16.1315 34.0181 15.9231C33.8098 15.7147 33.6927 15.4321 33.6927 15.1374V12.1744ZM22.6364 12.1745C22.6364 11.8798 22.7535 11.5972 22.9618 11.3888C23.1702 11.1804 23.4528 11.0633 23.7475 11.0633C24.0422 11.0633 24.3248 11.1804 24.5332 11.3888C24.7416 11.5972 24.8586 11.8798 24.8586 12.1745V15.1374C24.8586 15.4321 24.7416 15.7147 24.5332 15.9231C24.3248 16.1315 24.0422 16.2485 23.7475 16.2485C23.4528 16.2485 23.1702 16.1315 22.9618 15.9231C22.7535 15.7147 22.6364 15.4321 22.6364 15.1374V12.1745ZM45.6557 39.9189C45.6557 39.3295 45.8898 38.7643 46.3065 38.3476C46.7233 37.9308 47.2885 37.6967 47.8779 37.6967H51.2779L45.6557 43.3189V39.9189ZM18.9327 47.3264C18.6352 47.3265 18.3407 47.2669 18.0666 47.1511C17.7925 47.0352 17.5445 46.8656 17.3373 46.6521C17.13 46.4386 16.9678 46.1857 16.8601 45.9084C16.7524 45.631 16.7015 45.3348 16.7105 45.0375C17.349 45.5232 18.1304 45.7837 18.9327 45.7782L43.6779 45.8448C44.1664 45.8457 44.6502 45.75 45.1015 45.5631C45.5528 45.3762 45.9627 45.1019 46.3075 44.756L52.3223 38.7485V45.1041C52.3223 45.6935 52.0882 46.2587 51.6715 46.6755C51.2547 47.0922 50.6895 47.3263 50.1001 47.3263L18.9327 47.3264ZM16.9736 30.75C16.9736 31.4403 16.414 32 15.7236 32C15.0333 32 14.4736 31.4403 14.4736 30.75C14.4736 30.0596 15.0333 29.5 15.7236 29.5C16.414 29.5 16.9736 30.0596 16.9736 30.75Z" fill="#F1C494"></path><mask id="mask0_1_404" style="mask-type:alpha" maskUnits="userSpaceOnUse" x="23" y="19" width="22" height="22"><path d="M45 19H23V41H45V19Z" fill="white"></path></mask><g mask="url(#mask0_1_404)"><path d="M34 41C40.0751 41 45 36.0751 45 30C45 23.9249 40.0751 19 34 19C27.9249 19 23 23.9249 23 30C23 36.0751 27.9249 41 34 41Z" fill="#E48822"></path><path fill-rule="evenodd" clip-rule="evenodd" d="M31.5068 35.2582C32.0218 35.6223 32.632 35.8264 33.261 35.846V36.5253C33.261 36.7581 33.3535 36.9814 33.5181 37.146C33.6827 37.3106 33.906 37.4031 34.1388 37.4031C34.3716 37.4031 34.5949 37.3106 34.7595 37.146C34.9241 36.9814 35.0166 36.7581 35.0166 36.5253V35.846C35.8319 35.8206 36.6086 35.4856 37.1872 34.9071C37.7894 34.3049 38.1277 33.4881 38.1277 32.6365C38.1277 31.7848 37.7894 30.9681 37.1872 30.3659C36.6086 29.7873 35.8319 29.4523 35.0166 29.4269V26.5177C35.2823 26.5359 35.5386 26.6268 35.7572 26.7812C36.0031 26.9549 36.1891 27.2006 36.2896 27.4844L36.2902 27.486C36.3707 27.7015 36.5327 27.8767 36.7411 27.974C36.9495 28.0713 37.1878 28.0829 37.4047 28.0063C37.6216 27.9297 37.7998 27.771 37.9008 27.5644C38.0019 27.3577 38.0179 27.1197 37.9452 26.9014L37.9446 26.8997C37.7231 26.2736 37.313 25.7315 36.7708 25.3481C36.2557 24.9839 35.6455 24.7799 35.0166 24.7602V24.0809C35.0166 23.8481 34.9241 23.6248 34.7595 23.4602C34.5949 23.2956 34.3716 23.2031 34.1388 23.2031C33.906 23.2031 33.6827 23.2956 33.5181 23.4602C33.3535 23.6248 33.261 23.8481 33.261 24.0809V24.7602C32.4457 24.7856 31.669 25.1206 31.0904 25.6992C30.4882 26.3014 30.1499 27.1182 30.1499 27.9698C30.1499 28.8214 30.4882 29.6382 31.0904 30.2404C31.669 30.819 32.4457 31.154 33.261 31.1793V34.0886C32.9953 34.0703 32.7389 33.9795 32.5204 33.8251C32.2745 33.6513 32.0885 33.4056 31.988 33.1218L31.9874 33.1202C31.9068 32.9048 31.7449 32.7295 31.5365 32.6322C31.3281 32.5349 31.0898 32.5234 30.8729 32.6C30.656 32.6766 30.4778 32.8353 30.3767 33.0419C30.2757 33.2485 30.2597 33.4866 30.3323 33.7048L30.333 33.7066C30.5544 34.3327 30.9646 34.8748 31.5068 35.2582ZM33.3611 34.192V31.0809V34.192ZM34.9167 26.4142C34.9165 26.4142 34.9168 26.4142 34.9167 26.4142V26.4142ZM32.3318 26.9406C32.5811 26.6913 32.9115 26.5417 33.261 26.5177V29.4219C32.9115 29.3979 32.5811 29.2483 32.3318 28.999C32.0588 28.7261 31.9055 28.3558 31.9055 27.9698C31.9055 27.5838 32.0588 27.2135 32.3318 26.9406ZM33.3611 29.5254V26.4142V29.5254ZM35.0166 34.0886V31.1843C35.3661 31.2084 35.6965 31.3579 35.9458 31.6072C36.2188 31.8802 36.3721 32.2504 36.3721 32.6365C36.3721 33.0225 36.2188 33.3927 35.9458 33.6657C35.6965 33.915 35.3661 34.0645 35.0166 34.0886Z" fill="white"></path></g></svg>