<svg width="97" height="28" viewBox="0 0 97 28" fill="none" xmlns="http://www.w3.org/2000/svg"><g clip-path="url(#clip0_7649_24112)"><path fill-rule="evenodd" clip-rule="evenodd" d="M74.7162 4.21289L81.994 3.7877C78.15 3.66187 75.8696 3.66187 75.152 3.73723L74.0758 3.96261C73.9474 4.0874 74.178 4.16277 74.7162 4.21289Z" fill="#7B7979"></path><path fill-rule="evenodd" clip-rule="evenodd" d="M73.1014 5.99035L85.0689 5.73904L73.4862 5.33838C71.9481 5.23848 71.1025 5.33839 70.9748 5.6139C70.7439 5.99034 71.4873 6.11514 73.1014 5.99035Z" fill="#7B7979"></path><path fill-rule="evenodd" clip-rule="evenodd" d="M68.8733 8.24609L86.9402 7.61972L70.6668 7.41957C69.4371 7.41957 68.7959 7.54436 68.7959 7.79497L68.8733 8.24609Z" fill="#7B7979"></path><path fill-rule="evenodd" clip-rule="evenodd" d="M70.0779 10.598L88.2208 9.79709L68.5652 9.49565C68.0528 9.54681 67.7716 9.67127 67.72 9.92223C67.6439 10.4729 68.4121 10.6734 70.0779 10.598Z" fill="#7B7979"></path><path fill-rule="evenodd" clip-rule="evenodd" d="M67.4641 12.6289L88.9392 12.1028L69.0789 11.5518C67.7969 11.5518 67.1312 11.7526 67.028 12.2283C67.0032 12.4291 67.1567 12.6037 67.4641 12.6289Z" fill="#7B7979"></path><path fill-rule="evenodd" clip-rule="evenodd" d="M67.2848 14.7578L74.0756 14.6828L75.0234 13.6306H68.2326C67.2073 13.6306 66.7461 13.8556 66.8745 14.3067C66.8993 14.558 67.0277 14.7329 67.2848 14.7578Z" fill="#7B7979"></path><path fill-rule="evenodd" clip-rule="evenodd" d="M68.7959 16.9863L73.1014 16.6856L73.6652 15.7343L68.6173 15.8093C67.644 15.8093 67.1562 16.0094 67.1562 16.3848C67.1562 16.6856 67.2846 16.8612 67.5145 16.8864L68.7959 16.9863Z" fill="#7B7979"></path><path fill-rule="evenodd" clip-rule="evenodd" d="M69.4626 18.9899L80.4051 18.5641L79.6363 17.8132L69.0785 17.8879L67.9769 18.0127C67.8478 18.1126 67.7965 18.2633 67.8478 18.4887C67.9252 18.9402 68.4886 19.1151 69.4626 18.9899Z" fill="#7B7979"></path><path fill-rule="evenodd" clip-rule="evenodd" d="M81.8666 20.317L70.9753 20.2413C69.642 20.2413 69.0528 20.3917 69.079 20.7671C69.207 21.2435 69.9501 21.3689 71.3594 21.2435L82.5322 20.9928L81.8666 20.317Z" fill="#7B7979"></path><path fill-rule="evenodd" clip-rule="evenodd" d="M83.2241 22.4972L71.513 22.3966C71.2569 22.3966 71.1289 22.4972 71.1289 22.697C71.1289 23.0731 71.9484 23.248 73.5632 23.1481L84.377 22.7723L83.2241 22.4972Z" fill="#929294"></path><path fill-rule="evenodd" clip-rule="evenodd" d="M75.8432 24.7012L82.2502 24.5003L75.5358 24.2497C74.6393 24.1249 74.1777 24.1996 74.1777 24.5003L75.8432 24.7012Z" fill="#929294"></path><path fill-rule="evenodd" clip-rule="evenodd" d="M94.0636 1.23242C91.7322 2.20966 87.1967 4.78911 80.4823 9.04718C83.9419 7.16842 87.1193 5.71519 90.066 4.66398L95.3202 2.96048L96.3444 3.03549C96.5495 3.16097 96.2422 3.33622 95.5246 3.53637C94.2949 3.91247 92.014 4.83889 88.6825 6.34122C84.8384 8.04576 82.634 9.24768 81.9939 9.99849L86.4278 10.0991C85.7863 10.8758 85.0181 11.3017 84.1209 11.3518L83.2752 11.3767C84.2499 12.9299 85.8386 13.8058 88.0158 13.9313L89.5023 14.0063L89.5797 15.1343L83.352 15.735L89.3739 16.1104C89.4521 16.9871 89.4266 17.4378 89.2979 17.4378H83.224L88.8102 18.2395L88.4774 19.6419L83.4291 20.0184L87.9136 20.4933L86.8628 21.8961L84.1209 22.2469L86.2482 22.6977L83.9154 24.2754C82.2503 22.6476 80.9944 21.2701 80.2001 20.243L78.5601 18.0138L76.3048 18.4898C78.2782 17.1126 79.329 16.0603 79.5079 15.434C79.4574 14.2317 79.3799 13.4304 79.2515 12.98L78.4317 13.8058C78.3037 12.6035 78.0986 11.8531 77.8941 11.5516L77.5861 12.4787L76.2287 13.6306L77.2013 13.5559C76.6128 16.7621 75.2798 18.8154 73.1783 19.6419L71.9483 18.3899L72.7942 17.6384L71.5129 18.0138L71.2568 17.6384C72.5124 15.6103 73.4864 14.1819 74.2545 13.3554L77.9702 10.0486C80.072 8.34581 81.9939 6.91781 83.8132 5.7909C88.5541 2.98536 91.9886 1.20718 94.0636 0.455675C94.8841 0.155279 95.2165 0.20507 95.0117 0.530701L94.0636 1.23242Z" fill="#740232"></path><path fill-rule="evenodd" clip-rule="evenodd" d="M64.2135 22.6134V26.7971H63.4146V23.4326C63.3371 23.4579 63.2852 23.4326 63.2721 23.3694L63.3372 23.1803L64.2135 22.6134ZM56.8944 26.1044H52.506V25.3695C52.6284 25.1589 52.8197 25.0459 53.0995 25.0459H56.3225C56.6319 25.0459 56.7999 25.1088 56.8639 25.2599L56.9028 25.6128L56.8944 26.1044ZM60.4491 22.4499C60.7578 22.4499 60.9 22.5754 60.9 22.8021C60.9 22.9919 60.7578 23.0921 60.4491 23.0921C60.2164 23.0921 60.0876 22.9919 60.0876 22.8021C60.0876 22.5754 60.2164 22.4499 60.4491 22.4499ZM59.4047 22.4499C59.7258 22.4499 59.868 22.5754 59.868 22.8021C59.868 22.9919 59.7258 23.0921 59.4047 23.0921C59.1585 23.0921 59.0302 22.9919 59.0302 22.8021C59.0302 22.5754 59.1585 22.4499 59.4047 22.4499ZM47.6063 27.0495C47.9034 27.0495 48.0583 27.1753 48.0583 27.4024C48.0583 27.5911 47.9034 27.6917 47.6063 27.6917C47.3492 27.6917 47.2197 27.5911 47.2197 27.4024C47.2197 27.1753 47.3492 27.0495 47.6063 27.0495ZM46.5495 27.0495C46.8459 27.0495 47.0008 27.1753 47.0008 27.4024C47.0008 27.5911 46.8459 27.6917 46.5495 27.6917C46.2913 27.6917 46.1623 27.5911 46.1623 27.4024C46.1623 27.1753 46.2913 27.0495 46.5495 27.0495ZM45.0022 22.5124C45.3241 22.5124 45.479 22.6383 45.479 22.865C45.479 23.0545 45.3241 23.1551 45.0022 23.1551C44.7699 23.1551 44.6408 23.0545 44.6408 22.865C44.6408 22.6383 44.7699 22.5124 45.0022 22.5124ZM43.996 22.5124C44.3189 22.5124 44.4607 22.6383 44.4607 22.865C44.4607 23.0545 44.3189 23.1551 43.996 23.1551C43.7513 23.1551 43.6222 23.0545 43.6222 22.865C43.6222 22.6383 43.7513 22.5124 43.996 22.5124ZM44.2026 26.1044H45.0277V25.1088L44.3957 25.4234C44.2026 25.5496 44.1379 25.7891 44.2026 26.1044ZM60.2425 24.6553C59.8945 24.7562 59.7258 24.8814 59.7258 25.0708H60.2425V24.6553ZM45.8015 22.966V26.1044H48.1608V25.2219C47.9034 25.1593 47.8772 25.0328 48.0961 24.8437L48.9092 24.2896V26.7971H43.416L43.5193 25.6128C43.5193 25.3857 43.7513 25.096 44.2284 24.7808C44.5117 24.5917 44.7699 24.4406 45.0022 24.3397L45.0408 24.0376C44.8477 23.9743 44.7826 23.9114 44.8477 23.8485L45.8015 22.966ZM59.1585 25.6004V24.9446C59.1585 24.6041 59.6105 24.2515 60.5 23.8986L60.9906 23.659V26.1044H62.0473V23.4326L61.8928 23.3694C61.8666 23.3065 61.8928 23.2439 61.9571 23.1803C62.0608 23.0921 62.3444 22.9034 62.8211 22.5881V26.7971H50.7013C50.7013 27.1877 50.5463 27.503 50.2238 27.7173L49.5405 27.9316C49.3216 27.9316 49.102 27.8179 48.8699 27.6167C48.7412 27.503 48.767 27.4397 48.9092 27.4273C49.231 27.5282 49.4889 27.4909 49.6823 27.3143C49.8758 27.1877 49.966 27.0242 49.966 26.7971L50.0049 24.7303L49.7983 24.6553C49.7467 24.6041 49.7725 24.5412 49.8758 24.4787L50.7143 23.8737L50.7398 26.1044H51.7067V23.4955C51.4747 23.3949 51.4747 23.2439 51.7067 23.0797L52.506 22.5252V24.6207C52.7172 24.4199 53.0234 24.3145 53.4082 24.3145H56.3479C56.6698 24.3145 56.9669 24.4157 57.2509 24.6297C57.5348 24.8565 57.6763 25.1714 57.6763 25.5752L57.6682 26.1044H60.2425V25.6004H59.1585Z" fill="#740232"></path><path fill-rule="evenodd" clip-rule="evenodd" d="M20.312 14.3746L22.2151 9.81473L24.1178 14.3746H20.312ZM26.3113 19.6289H29.2977L23.3242 6.56188H22.2151L16.3838 19.6289H18.1189L19.8133 15.5699H24.6169L26.3113 19.6289Z" fill="#740232"></path><path fill-rule="evenodd" clip-rule="evenodd" d="M42.3296 14.3746L44.2327 9.81473L46.1354 14.3746H42.3296ZM48.3282 19.6289H51.3152L45.3418 6.56188H44.2327L38.4014 19.6289H40.1361L41.8305 15.5699H46.6344L48.3282 19.6289Z" fill="#740232"></path><path fill-rule="evenodd" clip-rule="evenodd" d="M28.8496 6.56188H38.9688V8.14649H35.3561V19.6289H32.4832V8.14649H28.8496V6.56188Z" fill="#740232"></path><path fill-rule="evenodd" clip-rule="evenodd" d="M7.64079 19.0434C4.88147 19.0434 2.64522 16.4556 2.64522 13.2647C2.64522 10.073 4.88147 7.48559 7.64079 7.48559C10.4001 7.48559 12.6364 10.073 12.6364 13.2647C12.6364 16.4556 10.4001 19.0434 7.64079 19.0434ZM15.1644 13.2647C15.1644 9.37991 11.7964 6.23042 7.64079 6.23042C3.48553 6.23042 0.117188 9.37991 0.117188 13.2647C0.117188 17.1487 3.48553 20.2985 7.64079 20.2985C8.01604 20.2985 8.38173 20.2643 8.74212 20.2149L12.7432 23.7422L14.8765 22.0739L10.6495 19.7095C13.3062 18.6241 15.1644 16.1483 15.1644 13.2647Z" fill="#740232"></path><path fill-rule="evenodd" clip-rule="evenodd" d="M55.8924 12.734V7.2567H58.9078C58.9078 7.2567 60.5286 8.14683 60.5286 9.78708C60.5286 11.4273 59.8181 12.734 58.7935 12.734C57.7693 12.734 55.8924 12.734 55.8924 12.734ZM59.1921 13.5404C60.5856 13.2625 62.5916 11.9832 62.5916 9.41166C62.5916 6.84015 59.4842 6.56188 59.4842 6.56188H55.8924H54.7914H53.5596V19.6289H55.8924V13.8184H56.6888L60.5286 19.4899H63.8287L59.1921 13.5404Z" fill="#740232"></path><path d="M16.8492 24.7045H18.3283L17.6011 22.7155H17.5887L16.8492 24.7045ZM17.2832 22.2018H17.9251L19.6301 26.4668H18.9882L18.5118 25.1826H16.666L16.1769 26.4668H15.5781L17.2832 22.2018Z" fill="#7B7979"></path><path d="M20.083 26.4668H20.6634V22.2017H20.083V26.4668Z" fill="#7B7979"></path><path d="M23.4316 24.167C23.9756 24.167 24.4399 24.0298 24.4399 23.4086C24.4399 22.9903 24.2079 22.6795 23.664 22.6795H22.2217V24.167H23.4316ZM21.6406 22.2018H23.6947C24.5135 22.2018 25.0206 22.6377 25.0206 23.3187C25.0206 23.8327 24.7886 24.2569 24.2631 24.4V24.4121C24.7702 24.5075 24.8742 24.8722 24.9167 25.2901C24.9538 25.7084 24.929 26.1744 25.1734 26.4668H24.5259C24.3607 26.294 24.4527 25.8339 24.3667 25.4156C24.3055 24.9973 24.2019 24.6447 23.6396 24.6447H22.2217V26.4668H21.6406V22.2018Z" fill="#7B7979"></path><path d="M29.66 26.4668H29.0549L28.0582 22.8825H28.0465L27.0379 26.4668H26.4328L25.3145 22.2018H25.9068L26.7627 25.7502H26.7751L27.753 22.2018H28.3822L29.3481 25.7502H29.3604L30.2467 22.2018H30.8271L29.66 26.4668Z" fill="#7B7979"></path><path d="M31.9824 24.7045H33.4611L32.7339 22.7155H32.7215L31.9824 24.7045ZM32.4163 22.2018H33.0579L34.7629 26.4668H34.1214L33.6446 25.1826H31.7988L31.3097 26.4668H30.7109L32.4163 22.2018Z" fill="#7B7979"></path><path d="M36.5414 24.7225V26.4668H35.9611V24.7225L34.2744 22.2018H34.9648L36.273 24.2327L37.5501 22.2018H38.2104L36.5414 24.7225Z" fill="#7B7979"></path><path d="M41.2231 23.45C41.1556 22.8409 40.74 22.5778 40.1413 22.5778C39.6521 22.5778 39.1634 22.7514 39.1634 23.3065C39.1634 23.8327 39.8601 23.9101 40.5628 24.0653C41.2596 24.2205 41.9563 24.4597 41.9563 25.2959C41.9563 26.204 41.0459 26.5684 40.2513 26.5684C39.2734 26.5684 38.4482 26.1024 38.4482 25.0629H38.9986C38.9986 25.7799 39.6097 26.0906 40.2696 26.0906C40.7952 26.0906 41.3759 25.9292 41.3759 25.3139C41.3759 24.7283 40.6792 24.627 39.9825 24.4777C39.2854 24.3284 38.5826 24.1313 38.5826 23.3487C38.5826 22.4824 39.371 22.1001 40.1657 22.1001C41.058 22.1001 41.7363 22.5125 41.7731 23.45H41.2231Z" fill="#7B7979"></path></g><defs><clipPath id="clip0_7649_24112"><rect width="96.5517" height="28" fill="white"></rect></clipPath></defs></svg>