<svg width="120" height="56" viewBox="0 0 120 56" fill="none" xmlns="http://www.w3.org/2000/svg"><path d="M7.13541 9C5.40431 9 4.00098 10.4033 4.00098 12.1344V26.0969C4.00098 27.828 5.40431 29.2313 7.13541 29.2313H10.1274V36.1434C10.1274 36.905 11.0482 37.2864 11.5867 36.7479L19.1032 29.2313H60.1358C61.8669 29.2313 63.2703 27.828 63.2703 26.0969V12.1344C63.2703 10.4033 61.8669 9 60.1358 9H7.13541Z" fill="#893494"></path><path d="M13.4694 14.6691C13.801 14.6691 14.1148 14.7106 14.4108 14.7935L14.0556 17.2802C13.7595 17.1973 13.4576 17.1558 13.1497 17.1558C12.4037 17.1558 11.7642 17.4815 11.2314 18.1328V23.7279H8.74466V14.9356H11.0005L11.107 16.0546C11.7702 15.1309 12.5576 14.6691 13.4694 14.6691Z" fill="white"></path><path d="M22.822 18.7545C22.822 19.2636 22.7983 19.6603 22.7509 19.9445H17.0137C17.1084 20.6313 17.3512 21.1168 17.742 21.401C18.1446 21.6734 18.6656 21.8096 19.305 21.8096C20.2524 21.8096 21.0517 21.5609 21.7029 21.0636L22.7332 22.8575C21.8687 23.6036 20.5839 23.9766 18.8787 23.9766C17.4933 23.9766 16.4039 23.6036 15.6105 22.8575C14.8289 22.0997 14.4382 20.9688 14.4382 19.4649C14.4382 18.0558 14.8408 16.9072 15.646 16.0191C16.4631 15.1191 17.5466 14.6691 18.8965 14.6691C20.128 14.6691 21.0872 15.0244 21.774 15.7349C22.4726 16.4335 22.822 17.44 22.822 18.7545ZM18.8255 16.6763C17.8426 16.6763 17.2446 17.2091 17.0315 18.2749H20.4418C20.3589 17.2091 19.8201 16.6763 18.8255 16.6763Z" fill="white"></path><path d="M29.4787 14.9356H32.1075L28.7149 23.7279H26.2104L22.9244 14.9356H25.6953L27.0808 19.3761L27.5426 21.1346L28.0222 19.3761L29.4787 14.9356Z" fill="white"></path><path d="M35.2362 13.3725C34.9401 13.6448 34.5671 13.781 34.1171 13.781C33.6671 13.781 33.2882 13.6389 32.9803 13.3547C32.6843 13.0705 32.5363 12.6975 32.5363 12.2357C32.5363 11.7502 32.6843 11.3713 32.9803 11.0989C33.2882 10.8147 33.6671 10.6726 34.1171 10.6726C34.5789 10.6726 34.9579 10.8147 35.2539 11.0989C35.55 11.3713 35.698 11.7502 35.698 12.2357C35.698 12.7094 35.544 13.0883 35.2362 13.3725ZM32.8738 23.7279V14.9356H35.3605V23.7279H32.8738Z" fill="white"></path><path d="M45.1289 18.7545C45.1289 19.2636 45.1052 19.6603 45.0579 19.9445H39.3206C39.4154 20.6313 39.6581 21.1168 40.0489 21.401C40.4515 21.6734 40.9725 21.8096 41.612 21.8096C42.5593 21.8096 43.3586 21.5609 44.0099 21.0636L45.0401 22.8575C44.1757 23.6036 42.8909 23.9766 41.1857 23.9766C39.8002 23.9766 38.7108 23.6036 37.9174 22.8575C37.1359 22.0997 36.7451 20.9688 36.7451 19.4649C36.7451 18.0558 37.1477 16.9072 37.9529 16.0191C38.77 15.1191 39.8535 14.6691 41.2035 14.6691C42.435 14.6691 43.3941 15.0244 44.0809 15.7349C44.7796 16.4335 45.1289 17.44 45.1289 18.7545ZM41.1324 16.6763C40.1496 16.6763 39.5516 17.2091 39.3384 18.2749H42.7488C42.6659 17.2091 42.1271 16.6763 41.1324 16.6763Z" fill="white"></path><path d="M56.4559 14.9356H58.9248L56.0473 23.7279H53.6849L52.1396 18.0617L50.5055 23.7279H48.1076L45.3544 14.9356H48.072L49.1378 19.4649L49.4042 20.8504L49.7239 19.4649L51.0383 14.9356H53.4007L54.6263 19.4294L54.9461 20.8504L55.2658 19.4294L56.4559 14.9356Z" fill="white"></path><path d="M71.3204 23.8173C70.0028 23.8173 68.9625 23.4417 68.1997 22.6904C67.4369 21.9391 67.0612 20.8353 67.0728 19.379C67.0728 17.9689 67.4889 16.842 68.3211 15.9983C69.1648 15.1545 70.2281 14.7327 71.5111 14.7327C72.6669 14.7327 73.6147 15.0043 74.3544 15.5475L73.4008 17.4199C72.8923 17.0501 72.3259 16.8651 71.7018 16.8651C71.043 16.8651 70.5171 17.079 70.1241 17.5066C69.7427 17.9227 69.5462 18.5006 69.5347 19.2403C69.5231 20.0263 69.7196 20.6273 70.1241 21.0434C70.5287 21.4479 71.0834 21.6502 71.7885 21.6502C72.4704 21.6502 73.0425 21.4479 73.5049 21.0434L74.4064 22.9331C73.6782 23.5226 72.6496 23.8173 71.3204 23.8173Z" fill="#424094"></path><path d="M82.9251 18.7202C82.9251 19.2172 82.902 19.6044 82.8558 19.8818H77.2559C77.3484 20.5522 77.5853 21.026 77.9667 21.3034C78.3597 21.5693 78.8682 21.7022 79.4924 21.7022C80.417 21.7022 81.1972 21.4595 81.8329 20.974L82.8384 22.7251C81.9947 23.4532 80.7407 23.8173 79.0763 23.8173C77.724 23.8173 76.6607 23.4532 75.8863 22.7251C75.1234 21.9854 74.742 20.8816 74.742 19.4137C74.742 18.0383 75.135 16.9171 75.9209 16.0503C76.7184 15.1719 77.776 14.7327 79.0936 14.7327C80.2957 14.7327 81.2319 15.0794 81.9022 15.7729C82.5842 16.4548 82.9251 17.4373 82.9251 18.7202ZM79.0243 16.6918C78.065 16.6918 77.4813 17.2119 77.2732 18.2521H80.602C80.521 17.2119 79.9952 16.6918 79.0243 16.6918Z" fill="#424094"></path><path d="M89.4192 14.7327C90.3785 14.7327 91.124 15.0274 91.6557 15.6169C92.1874 16.1948 92.4532 17.0558 92.4532 18.2001V23.5746H90.026V18.7202C90.026 17.5528 89.5348 16.9692 88.5524 16.9692C87.8704 16.9692 87.2521 17.2234 86.6973 17.732V23.5746H84.2701V14.9927H86.4719L86.5586 15.9289C87.333 15.1314 88.2865 14.7327 89.4192 14.7327Z" fill="#424094"></path><path d="M99.5676 21.1647L100.66 22.8811C100.059 23.5052 99.1689 23.8173 97.99 23.8173C96.9266 23.8173 96.1349 23.5746 95.6148 23.0891C95.0947 22.5921 94.8346 21.8004 94.8346 20.714V17.0385H93.2396V15.0621H94.9213V13.4167L97.2618 12.6522V14.9927H100.018L99.3162 17.0385H97.2618V20.3326C97.2618 21.1763 97.6548 21.5982 98.4407 21.5982C98.9262 21.5982 99.3018 21.4537 99.5676 21.1647Z" fill="#424094"></path><path d="M115.06 18.7202C115.06 19.2172 115.037 19.6044 114.99 19.8818H109.39C109.483 20.5522 109.72 21.026 110.101 21.3034C110.494 21.5693 111.003 21.7022 111.627 21.7022C112.552 21.7022 113.332 21.4595 113.967 20.974L114.973 22.7251C114.129 23.4532 112.875 23.8173 111.211 23.8173C109.859 23.8173 108.795 23.4532 108.021 22.7251C107.258 21.9854 106.877 20.8816 106.877 19.4137C106.877 18.0383 107.27 16.9171 108.055 16.0503C108.853 15.1719 109.911 14.7327 111.228 14.7327C112.43 14.7327 113.366 15.0794 114.037 15.7729C114.719 16.4548 115.06 17.4373 115.06 18.7202ZM111.159 16.6918C110.2 16.6918 109.616 17.2119 109.408 18.2521H112.737C112.656 17.2119 112.13 16.6918 111.159 16.6918Z" fill="#424094"></path><path d="M105.931 14.7327C106.255 14.7327 106.561 14.7731 106.85 14.854L106.155 17.2038C105.978 17.1745 105.8 17.1599 105.619 17.1599C104.891 17.1599 104.267 17.4777 103.747 18.1134V23.5746H101.319V14.9927H103.521L103.625 16.085C104.272 15.1834 105.041 14.7327 105.931 14.7327Z" fill="#424094"></path><g clip-path="url(#clip0_2564_14423)"><path d="M8.00097 52.1734L3.29897 54.8054L4.34897 49.52L0.392303 45.8614L5.74364 45.2267L8.00097 40.3334L10.2583 45.2267L15.6096 45.8614L11.653 49.52L12.703 54.8054L8.00097 52.1734Z" fill="url(#paint0_linear_2564_14423)"></path></g><g clip-path="url(#clip1_2564_14423)"><path d="M26.001 52.1734L21.299 54.8054L22.349 49.52L18.3923 45.8614L23.7436 45.2267L26.001 40.3334L28.2583 45.2267L33.6096 45.8614L29.653 49.52L30.703 54.8054L26.001 52.1734Z" fill="url(#paint1_linear_2564_14423)"></path></g><g clip-path="url(#clip2_2564_14423)"><path d="M44.001 52.1734L39.299 54.8054L40.349 49.52L36.3923 45.8614L41.7436 45.2267L44.001 40.3334L46.2583 45.2267L51.6096 45.8614L47.653 49.52L48.703 54.8054L44.001 52.1734Z" fill="url(#paint2_linear_2564_14423)"></path></g><g clip-path="url(#clip3_2564_14423)"><path d="M62.001 52.1734L57.299 54.8054L58.349 49.52L54.3923 45.8614L59.7436 45.2267L62.001 40.3334L64.2583 45.2267L69.6096 45.8614L65.653 49.52L66.703 54.8054L62.001 52.1734Z" fill="url(#paint3_linear_2564_14423)"></path></g><g clip-path="url(#clip4_2564_14423)"><path d="M80.001 52.1734L75.299 54.8054L76.349 49.52L72.3923 45.8614L77.7436 45.2267L80.001 40.3334L82.2583 45.2267L87.6096 45.8614L83.653 49.52L84.703 54.8054L80.001 52.1734Z" fill="url(#paint4_linear_2564_14423)"></path></g><path d="M98.1696 51.3381V49.7638L102.117 43.5455H103.474V45.7244H102.671L100.182 49.6623V49.7362H105.791V51.3381H98.1696ZM102.708 53V50.858L102.745 50.1609V43.5455H104.619V53H102.708ZM108.114 53.12C107.809 53.12 107.547 53.0123 107.329 52.7969C107.113 52.5784 107.006 52.3168 107.006 52.0121C107.006 51.7105 107.113 51.4519 107.329 51.2365C107.547 51.0211 107.809 50.9134 108.114 50.9134C108.409 50.9134 108.667 51.0211 108.889 51.2365C109.111 51.4519 109.221 51.7105 109.221 52.0121C109.221 52.2152 109.169 52.4014 109.064 52.5707C108.963 52.7369 108.829 52.8707 108.663 52.9723C108.497 53.0708 108.314 53.12 108.114 53.12ZM114.061 43.4162C114.547 43.4162 115.015 43.4978 115.464 43.6609C115.917 43.824 116.32 44.084 116.674 44.4411C117.031 44.7981 117.312 45.272 117.518 45.8629C117.728 46.4508 117.834 47.1725 117.837 48.0281C117.837 48.8313 117.746 49.5484 117.565 50.1793C117.386 50.8072 117.129 51.3411 116.794 51.7812C116.458 52.2214 116.053 52.5568 115.58 52.7876C115.106 53.0154 114.576 53.1293 113.991 53.1293C113.361 53.1293 112.803 53.0077 112.32 52.7646C111.837 52.5183 111.448 52.1844 111.152 51.7628C110.86 51.3381 110.683 50.861 110.621 50.3317H112.593C112.67 50.6764 112.831 50.9441 113.077 51.1349C113.324 51.3227 113.628 51.4165 113.991 51.4165C114.607 51.4165 115.075 51.1488 115.395 50.6133C115.715 50.0747 115.876 49.3376 115.88 48.402H115.815C115.673 48.679 115.483 48.9175 115.242 49.1175C115.002 49.3145 114.727 49.4669 114.416 49.5746C114.108 49.6823 113.781 49.7362 113.433 49.7362C112.876 49.7362 112.379 49.6054 111.942 49.3438C111.505 49.0821 111.16 48.7221 110.908 48.2635C110.655 47.8049 110.529 47.2817 110.529 46.6939C110.526 46.0599 110.672 45.4951 110.968 44.9996C111.263 44.5041 111.676 44.1164 112.205 43.8363C112.737 43.5531 113.356 43.4131 114.061 43.4162ZM114.075 44.9858C113.764 44.9858 113.487 45.0597 113.244 45.2074C113.004 45.3551 112.813 45.5536 112.671 45.8029C112.533 46.0522 112.465 46.3307 112.468 46.6385C112.468 46.9493 112.536 47.2294 112.671 47.4787C112.81 47.7249 112.997 47.9219 113.234 48.0696C113.474 48.2143 113.748 48.2866 114.056 48.2866C114.287 48.2866 114.501 48.2435 114.698 48.1573C114.895 48.0711 115.066 47.9527 115.21 47.8018C115.358 47.648 115.473 47.471 115.556 47.271C115.64 47.0709 115.681 46.8585 115.681 46.6339C115.678 46.3353 115.607 46.0614 115.469 45.8121C115.33 45.5629 115.139 45.3628 114.896 45.212C114.653 45.0612 114.379 44.9858 114.075 44.9858Z" fill="black"></path><defs><linearGradient id="paint0_linear_2564_14423" x1="8.00097" y1="40.3334" x2="8.00097" y2="54.8054" gradientUnits="userSpaceOnUse"><stop stop-color="#FEC900"></stop><stop offset="1" stop-color="#F49700"></stop></linearGradient><linearGradient id="paint1_linear_2564_14423" x1="26.001" y1="40.3334" x2="26.001" y2="54.8054" gradientUnits="userSpaceOnUse"><stop stop-color="#FEC900"></stop><stop offset="1" stop-color="#F49700"></stop></linearGradient><linearGradient id="paint2_linear_2564_14423" x1="44.001" y1="40.3334" x2="44.001" y2="54.8054" gradientUnits="userSpaceOnUse"><stop stop-color="#FEC900"></stop><stop offset="1" stop-color="#F49700"></stop></linearGradient><linearGradient id="paint3_linear_2564_14423" x1="62.001" y1="40.3334" x2="62.001" y2="54.8054" gradientUnits="userSpaceOnUse"><stop stop-color="#FEC900"></stop><stop offset="1" stop-color="#F49700"></stop></linearGradient><linearGradient id="paint4_linear_2564_14423" x1="80.001" y1="40.3334" x2="80.001" y2="54.8054" gradientUnits="userSpaceOnUse"><stop stop-color="#FEC900"></stop><stop offset="1" stop-color="#F49700"></stop></linearGradient><clipPath id="clip0_2564_14423"><rect width="16" height="16" fill="white" transform="translate(0.000976562 40)"></rect></clipPath><clipPath id="clip1_2564_14423"><rect width="16" height="16" fill="white" transform="translate(18.001 40)"></rect></clipPath><clipPath id="clip2_2564_14423"><rect width="16" height="16" fill="white" transform="translate(36.001 40)"></rect></clipPath><clipPath id="clip3_2564_14423"><rect width="16" height="16" fill="white" transform="translate(54.001 40)"></rect></clipPath><clipPath id="clip4_2564_14423"><rect width="16" height="16" fill="white" transform="translate(72.001 40)"></rect></clipPath></defs></svg>