<svg width="120" height="56" viewBox="0 0 120 56" fill="none" xmlns="http://www.w3.org/2000/svg"><g clip-path="url(#clip0_12636_8018)"><path d="M27.4683 25.414L21.2046 25.5315C20.9935 25.5315 20.7823 25.6491 20.6415 25.8373C20.0082 26.8485 18.0376 29.6706 16.278 31.646C15.9027 31.9988 15.2928 31.9047 15.0347 31.4579C14.9878 31.3638 14.9174 31.2698 14.9174 31.2462C14.542 30.3761 13.3925 25.3434 12.8764 24.7084C12.243 23.9559 6.80037 22.5919 5.95582 22.3097C5.34587 22.098 5.18165 21.2984 5.65084 20.8516C7.03497 19.5346 9.26364 17.6767 10.8589 16.6185C11.07 16.5009 11.2108 16.2657 11.2108 16.0305L11.117 10.0571C11.117 9.58678 11.5862 9.23402 12.0318 9.44567C13.3691 10.0101 15.7619 11.5152 17.2634 12.8322C17.4276 13.0203 17.6856 13.0908 17.9203 13.0203C18.9994 12.7146 22.0257 11.8444 24.9816 11.6798C25.3805 11.6563 25.7089 11.9855 25.6619 12.4089C25.5212 13.8199 25.1224 16.8536 24.4655 18.8526C24.3951 19.0643 24.4186 19.2759 24.5828 19.464C25.2162 20.2872 26.7176 22.3567 28.0313 24.4262C28.266 24.873 27.9844 25.414 27.4683 25.414Z" fill="white"></path><path d="M20.36 18.053C20.36 18.8291 19.7267 19.4876 18.9525 19.4876C18.1783 19.4876 17.5449 18.8526 17.5449 18.053C17.5449 17.2769 18.1783 16.6185 18.9525 16.6185C19.7267 16.6185 20.36 17.2769 20.36 18.053ZM27.4683 25.414L21.2046 25.5315C20.9935 25.5315 20.7823 25.6491 20.6415 25.8373C20.0082 26.8485 18.0376 29.6706 16.278 31.646C15.9027 31.9988 15.2928 31.9047 15.0347 31.4579C14.9878 31.3638 14.9174 31.2698 14.9174 31.2462C14.542 30.3761 13.3925 25.3434 12.8764 24.7084C12.243 23.9559 6.80037 22.5919 5.95582 22.3097C5.34587 22.098 5.18165 21.2984 5.65084 20.8516C7.03497 19.5346 9.26364 17.6767 10.8589 16.6185C11.07 16.5009 11.2108 16.2657 11.2108 16.0305L11.117 10.0571C11.117 9.58678 11.5862 9.23402 12.0318 9.44567C13.3691 10.0101 15.7619 11.5152 17.2634 12.8322C17.4276 13.0203 17.6856 13.0908 17.9203 13.0203C18.9994 12.7146 22.0257 11.8444 24.9816 11.6798C25.3805 11.6563 25.7089 11.9855 25.6619 12.4089C25.5212 13.8199 25.1224 16.8536 24.4655 18.8526C24.3951 19.0643 24.4186 19.2759 24.5828 19.464C25.2162 20.2872 26.7176 22.3567 28.0313 24.4262C28.266 24.873 27.9844 25.414 27.4683 25.414ZM23.7851 13.7729C23.8321 13.6082 23.6679 13.4436 23.4802 13.4671C17.1461 14.1256 11.3516 18.7586 9.47476 20.4282C9.16979 20.6869 9.26364 21.1808 9.63899 21.322C9.63899 21.322 13.674 21.9804 14.6359 22.8035C15.3397 23.4149 16.0201 27.0836 16.0201 27.0836C16.1608 27.4364 16.6065 27.507 16.8646 27.2483C22.3306 21.6277 23.574 15.325 23.7851 13.7729Z" fill="url(#paint0_linear_12636_8018)"></path><path d="M13.0641 29.0589C13.0172 28.8472 12.9468 28.6356 12.8764 28.4004L10.8587 30.5405C10.718 30.7052 10.6476 30.9168 10.6476 31.1285C10.6476 31.3637 10.7414 31.5754 10.9057 31.7165C11.0464 31.8576 11.2576 31.9281 11.4687 31.9281C11.7033 31.9281 11.9145 31.8341 12.0787 31.6695L13.4159 30.2583C13.2987 29.9291 13.1814 29.5292 13.0641 29.0589Z" fill="url(#paint1_linear_12636_8018)"></path><path d="M11.962 25.4622C11.7978 25.3446 11.4693 25.2271 11.0939 25.0859L6.07359 30.2127C5.90937 30.3774 5.83899 30.589 5.83899 30.8007C5.83899 31.0123 5.90937 31.2475 6.07359 31.3886C6.2378 31.5297 6.44894 31.6238 6.66008 31.6238C6.87122 31.6238 7.08235 31.5532 7.27003 31.3886L12.2435 26.3088C12.1496 25.9561 12.0558 25.6504 11.962 25.4622Z" fill="url(#paint2_linear_12636_8018)"></path><path d="M7.43425 23.9316L5.76854 25.6249C5.62778 25.7896 5.53394 26.0013 5.53394 26.2129C5.53394 26.4246 5.60432 26.6598 5.76854 26.8009C5.93277 26.942 6.14391 27.0361 6.35506 27.0361C6.5662 27.0361 6.80081 26.942 6.94157 26.8009L9.26417 24.4491C8.60726 24.2844 7.95038 24.0963 7.43425 23.9316Z" fill="url(#paint3_linear_12636_8018)"></path><path d="M13.0641 29.0589C13.0172 28.8472 12.9468 28.6356 12.8764 28.4004L10.8587 30.5405C10.718 30.7052 10.6476 30.9168 10.6476 31.1285C10.6476 31.3637 10.7414 31.5754 10.9057 31.7165C11.0464 31.8576 11.2576 31.9281 11.4687 31.9281C11.7033 31.9281 11.9145 31.8341 12.0787 31.6695L13.4159 30.2583C13.2987 29.9291 13.1814 29.5292 13.0641 29.0589Z" fill="url(#paint4_linear_12636_8018)" stroke="url(#paint5_linear_12636_8018)" stroke-width="0.828388"></path><path d="M7.43425 23.9316L5.76854 25.6249C5.62778 25.7896 5.53394 26.0013 5.53394 26.2129C5.53394 26.4246 5.60432 26.6598 5.76854 26.8009C5.93277 26.942 6.14391 27.0361 6.35506 27.0361C6.5662 27.0361 6.80081 26.942 6.94157 26.8009L9.26417 24.4491C8.60726 24.2844 7.95038 24.0963 7.43425 23.9316Z" stroke="url(#paint6_linear_12636_8018)" stroke-width="0.828388"></path><path d="M11.962 25.4622C11.7978 25.3446 11.4693 25.2271 11.0939 25.0859L6.07359 30.2127C5.90937 30.3774 5.83899 30.589 5.83899 30.8007C5.83899 31.0123 5.90937 31.2475 6.07359 31.3886C6.2378 31.5297 6.44894 31.6238 6.66008 31.6238C6.87122 31.6238 7.08235 31.5532 7.27003 31.3886L12.2435 26.3088C12.1496 25.9561 12.0558 25.6504 11.962 25.4622Z" stroke="url(#paint7_linear_12636_8018)" stroke-opacity="0.5" stroke-width="0.828388"></path><g filter="url(#filter0_ii_12636_8018)"><path d="M27.4681 25.414L21.2044 25.5315C20.9932 25.5315 20.7821 25.6491 20.6413 25.8373C20.008 26.8485 18.0373 29.6706 16.2778 31.646C15.9025 31.9988 15.2925 31.9047 15.0345 31.4579C14.9876 31.3638 14.9172 31.2698 14.9172 31.2462C14.5418 30.3761 13.3923 25.3434 12.8761 24.7084C12.2428 23.9559 6.80012 22.5919 5.95558 22.3097C5.34562 22.098 5.1814 21.2984 5.6506 20.8516C7.03472 19.5346 9.2634 17.6767 10.8586 16.6185C11.0698 16.5009 11.2105 16.2657 11.2105 16.0305L11.1167 10.0571C11.1167 9.58678 11.5859 9.23402 12.0316 9.44567C13.3688 10.0101 15.7617 11.5152 17.2631 12.8322C17.4274 13.0203 17.6854 13.0908 17.92 13.0203C18.9992 12.7146 22.0254 11.8444 24.9814 11.6798C25.3802 11.6563 25.7086 11.9855 25.6617 12.4089C25.521 13.8199 25.1221 16.8536 24.4652 18.8526C24.3949 19.0643 24.4183 19.2759 24.5825 19.464C25.216 20.2872 26.7174 22.3567 28.0311 24.4262C28.2657 24.873 27.9842 25.414 27.4681 25.414Z" stroke="url(#paint8_linear_12636_8018)" stroke-width="0.828388"></path></g><path d="M37.3607 19.0039C36.6928 18.3827 35.9583 18.2053 35.1347 18.2053C34.044 18.1831 33.3317 18.5381 33.3317 19.2258C33.354 19.9358 34.0885 20.202 35.1792 20.313C36.7374 20.4461 38.7852 20.8011 38.763 22.9754C38.7407 24.5506 37.3607 25.6377 35.157 25.6377C33.7769 25.6377 32.3968 25.3271 31.2838 24.0847L32.2187 22.8423C33.0201 23.7075 34.1998 24.0847 35.2015 24.0847C36.0473 24.0847 36.9823 23.774 37.0045 22.9975C37.0268 22.2432 36.2922 21.9548 35.0457 21.8217C33.443 21.6664 31.6177 21.156 31.5955 19.2924C31.5955 17.4287 33.532 16.7188 35.1125 16.7188C36.4257 16.7188 37.4274 17.0072 38.3846 17.8503L37.3607 19.0039Z" fill="#1A232B"></path><path d="M42.5024 14.4341C42.5024 15.8984 40.2988 15.8984 40.2988 14.4341C40.2988 13.0142 42.5024 13.0142 42.5024 14.4341ZM40.5212 16.8968V25.3721H42.302V16.8968H40.5212Z" fill="#1A232B"></path><path d="M47.4217 14.5V16.9405H49.8927V18.4714H47.3996V22.4871C47.3996 23.3746 47.8 23.8849 48.6238 23.8849C48.9577 23.8849 49.3584 23.774 49.7144 23.5964L50.2263 25.1051C49.6475 25.3714 49.1356 25.4823 48.5346 25.4823C46.687 25.5267 45.6408 24.4839 45.6408 22.5093V18.4936H44.016V16.9627H45.6408V14.6775L47.4217 14.5Z" fill="#1A232B"></path><path d="M53.009 21.7995C53.1647 23.0863 54.2332 23.9294 55.7693 23.9294C56.6371 23.9294 57.7057 23.5966 58.2176 23.0197L59.3753 24.129C58.5071 25.0831 57.0378 25.5712 55.7245 25.5712C52.9423 25.5712 51.1615 23.7963 51.1615 21.1117C51.1615 18.5381 52.9643 16.7188 55.6133 16.7188C58.3512 16.7188 60.1988 18.3827 59.8648 21.8217L53.009 21.7995ZM58.1732 20.313C58.062 18.9818 57.0826 18.2718 55.6577 18.2718C54.3668 18.2718 53.2982 18.9818 53.0311 20.313H58.1732Z" fill="#1A232B"></path><path d="M63.4494 16.8966V26.3702C63.4494 28.5001 62.6703 29.6095 60.778 29.6095C60.1773 29.6095 59.5762 29.4542 58.9976 29.077L59.643 27.6792C59.9989 27.8567 60.3776 27.9454 60.7336 27.9454C61.5794 27.9232 61.7129 27.3464 61.7129 26.3702V16.8966H63.4494ZM61.4682 14.4117C61.4682 15.876 63.6718 15.876 63.6718 14.4117C63.6718 12.9696 61.4682 12.9696 61.4682 14.4117Z" fill="#1A232B"></path><path d="M72.6641 16.9178H74.3782C74.3782 19.7354 74.3782 22.5531 74.3782 25.3708H72.6861L72.5968 23.9952C72.0403 25.0824 70.7275 25.5927 69.681 25.5927C67.2103 25.6149 65.3407 24.0174 65.3407 21.1331C65.3407 18.3155 67.2771 16.7402 69.7258 16.7402C70.9274 16.7402 72.085 17.2949 72.6195 18.2711L72.6641 16.9178ZM67.1211 21.1331C67.1211 22.8859 68.3676 23.9509 69.8811 23.9509C73.5318 23.9509 73.5318 18.3598 69.8811 18.3598C68.3456 18.3598 67.1211 19.4026 67.1211 21.1331Z" fill="#1A232B"></path><path d="M78.562 13.392V18.2287C79.1184 17.2303 80.498 16.72 81.5442 16.72C83.9934 16.72 85.8407 18.2509 85.8407 21.1129C85.8407 23.9085 83.9707 25.5059 81.5002 25.5059C80.3647 25.5059 79.2297 25.0843 78.562 23.9972L78.4507 25.3284H76.7812V13.3477L78.562 13.392ZM78.6512 21.1351C78.6512 22.7991 79.8755 23.8863 81.3663 23.8863C82.8358 23.8863 84.0374 22.8213 84.0374 21.1351C84.0374 19.4046 82.8358 18.384 81.3663 18.384C79.8975 18.4062 78.6512 19.5156 78.6512 21.1351Z" fill="#1A232B"></path><path d="M89.4925 13.392V18.2287C90.049 17.2303 91.4291 16.72 92.4754 16.72C94.9239 16.72 96.7713 18.2509 96.7713 21.1129C96.7713 23.9085 94.9013 25.5059 92.4308 25.5059C91.2952 25.5059 90.1603 25.0843 89.4925 23.9972L89.3812 25.3284H87.7118V13.3477L89.4925 13.392ZM89.5811 21.1351C89.5811 22.7991 90.8054 23.8863 92.2975 23.8863C93.7663 23.8863 94.9679 22.8213 94.9679 21.1351C94.9679 19.4046 93.7663 18.384 92.2975 18.384C90.828 18.4062 89.5811 19.5156 89.5811 21.1351Z" fill="#1A232B"></path><path d="M99.9752 21.7995C100.131 23.0863 101.2 23.9294 102.736 23.9294C103.604 23.9294 104.672 23.5966 105.184 23.0197L106.342 24.129C105.473 25.0831 104.004 25.5712 102.691 25.5712C99.9085 25.5712 98.1278 23.7963 98.1278 21.1117C98.1278 18.5381 99.9312 16.7188 102.58 16.7188C105.318 16.7188 107.165 18.3827 106.831 21.8217L99.9752 21.7995ZM105.139 20.313C105.028 18.9818 104.049 18.2718 102.624 18.2718C101.333 18.2718 100.265 18.9818 99.9978 20.313H105.139Z" fill="#1A232B"></path><path d="M110.305 16.9184L110.415 18.0277C111.038 16.9406 111.996 16.7188 112.908 16.7188C113.732 16.7188 114.533 17.0072 115.001 17.4287L114.199 18.9596C113.777 18.6268 113.354 18.4493 112.709 18.4493C111.484 18.4493 110.415 19.2037 110.415 20.7567V25.3271H108.635V16.874L110.305 16.9184Z" fill="#1A232B"></path></g><path d="M5.84291 53.494C6.85233 53.5095 7.8307 53.626 8.79354 53.8279C9.63214 51.5528 9.9738 49.0525 9.6865 46.4746L3.00098 47.2278L3.31933 50.0853L7.52011 49.6116L5.82738 53.4863H5.84291V53.494Z" fill="#FFA300"></path><path d="M7.33391 41.4737C6.81366 42.3356 6.22354 43.1276 5.57129 43.8652C7.12426 45.7288 9.11982 47.274 11.4881 48.3145L14.1747 42.1492L11.5347 41L9.84195 44.8747L7.33391 41.4737Z" fill="#FFA300"></path><path d="M17.0008 48.7723C16.5116 47.8949 16.1234 46.9787 15.8128 46.0469C13.4212 46.4584 11.084 47.4135 9.00305 48.9509L12.9942 54.363L15.3081 52.6547L12.8001 49.2538L17.0008 48.7801V48.7723Z" fill="#FFA300"></path><path d="M22.8429 53.494C23.8523 53.5095 24.8307 53.626 25.7935 53.8279C26.6321 51.5528 26.9738 49.0525 26.6865 46.4746L20.001 47.2278L20.3193 50.0853L24.5201 49.6116L22.8274 53.4863H22.8429V53.494Z" fill="#FFA300"></path><path d="M24.3339 41.4737C23.8137 42.3356 23.2235 43.1276 22.5713 43.8652C24.1243 45.7288 26.1198 47.274 28.4881 48.3145L31.1747 42.1492L28.5347 41L26.8419 44.8747L24.3339 41.4737Z" fill="#FFA300"></path><path d="M34.0008 48.7723C33.5116 47.8949 33.1234 46.9787 32.8128 46.0469C30.4212 46.4584 28.084 47.4135 26.0031 48.9509L29.9942 54.363L32.3081 52.6547L29.8001 49.2538L34.0008 48.7801V48.7723Z" fill="#FFA300"></path><path d="M39.8429 53.494C40.8523 53.5095 41.8307 53.626 42.7935 53.8279C43.6321 51.5528 43.9738 49.0525 43.6865 46.4746L37.001 47.2278L37.3193 50.0853L41.5201 49.6116L39.8274 53.4863H39.8429V53.494Z" fill="#FFA300"></path><path d="M41.3339 41.4737C40.8137 42.3356 40.2235 43.1276 39.5713 43.8652C41.1243 45.7288 43.1198 47.274 45.4881 48.3145L48.1747 42.1492L45.5347 41L43.8419 44.8747L41.3339 41.4737Z" fill="#FFA300"></path><path d="M51.0008 48.7723C50.5116 47.8949 50.1234 46.9787 49.8128 46.0469C47.4212 46.4584 45.084 47.4135 43.0031 48.9509L46.9942 54.363L49.3081 52.6547L46.8001 49.2538L51.0008 48.7801V48.7723Z" fill="#FFA300"></path><path d="M56.8429 53.494C57.8523 53.5095 58.8307 53.626 59.7935 53.8279C60.6321 51.5528 60.9738 49.0525 60.6865 46.4746L54.001 47.2278L54.3193 50.0853L58.5201 49.6116L56.8274 53.4863H56.8429V53.494Z" fill="#FFA300"></path><path d="M58.3339 41.4737C57.8137 42.3356 57.2235 43.1276 56.5713 43.8652C58.1243 45.7288 60.1198 47.274 62.4881 48.3145L65.1747 42.1492L62.5347 41L60.8419 44.8747L58.3339 41.4737Z" fill="#FFA300"></path><path d="M68.0008 48.7723C67.5116 47.8949 67.1234 46.9787 66.8128 46.0469C64.4212 46.4584 62.084 47.4135 60.0031 48.9509L63.9942 54.363L66.3081 52.6547L63.8001 49.2538L68.0008 48.7801V48.7723Z" fill="#FFA300"></path><path fill-rule="evenodd" clip-rule="evenodd" d="M81.001 49.5269V54.3586L80.9941 54.3637L77.7035 49.9015C77.5645 51.2616 77.2539 52.5784 76.7935 53.8272C75.8307 53.6253 74.8523 53.5089 73.8429 53.4933V53.4856H73.8274L75.5201 49.6109L71.3193 50.0846L71.001 47.2271L76.5055 46.607C75.4026 45.8087 74.4208 44.8846 73.5713 43.8652C74.2236 43.1276 74.8137 42.3356 75.3339 41.4737L77.842 44.8747L79.5347 41L82.1748 42.1492L79.9654 47.2192C80.3071 47.066 80.6525 46.9255 81.001 46.7978V49.2318L80.8 49.2544L81.001 49.5269ZM78.6185 47.9015C78.3277 47.7526 78.043 47.5959 77.7647 47.4317C77.7818 47.7589 77.7887 48.0844 77.786 48.4081C78.0598 48.2298 78.3375 48.061 78.6185 47.9015Z" fill="#FFA300"></path><path d="M81.001 46.793V49.2305L85.0008 48.7332V48.7255C84.5116 47.848 84.1234 46.9318 83.8128 46C82.8627 46.1635 81.9212 46.4555 81.001 46.793Z" fill="#C3CCD5"></path><path d="M81.001 49.5234L83.308 52.6079L81.001 54.3672V49.5234Z" fill="#C3CCD5"></path><path d="M97.8547 51.3381V49.7638L101.802 43.5455H103.159V45.7244H102.356L99.8675 49.6623V49.7362H105.476V51.3381H97.8547ZM102.393 53V50.858L102.43 50.1609V43.5455H104.304V53H102.393ZM107.799 53.12C107.494 53.12 107.232 53.0123 107.014 52.7969C106.798 52.5784 106.691 52.3168 106.691 52.0121C106.691 51.7105 106.798 51.4519 107.014 51.2365C107.232 51.0211 107.494 50.9134 107.799 50.9134C108.094 50.9134 108.353 51.0211 108.574 51.2365C108.796 51.4519 108.907 51.7105 108.907 52.0121C108.907 52.2152 108.854 52.4014 108.75 52.5707C108.648 52.7369 108.514 52.8707 108.348 52.9723C108.182 53.0708 107.999 53.12 107.799 53.12ZM113.693 53.1293C113.003 53.1293 112.389 53.0108 111.851 52.7738C111.315 52.5337 110.892 52.2044 110.581 51.7859C110.273 51.3642 110.115 50.878 110.106 50.3271H112.118C112.131 50.5579 112.206 50.761 112.345 50.9364C112.486 51.1088 112.674 51.2427 112.908 51.3381C113.142 51.4335 113.405 51.4812 113.697 51.4812C114.002 51.4812 114.271 51.4273 114.505 51.3196C114.739 51.2119 114.922 51.0626 115.055 50.8718C115.187 50.681 115.253 50.4609 115.253 50.2116C115.253 49.9593 115.182 49.7362 115.041 49.5423C114.902 49.3453 114.702 49.1914 114.441 49.0806C114.182 48.9698 113.874 48.9144 113.517 48.9144H112.635V47.4464H113.517C113.819 47.4464 114.085 47.3941 114.316 47.2894C114.55 47.1848 114.731 47.0401 114.861 46.8555C114.99 46.6677 115.055 46.4492 115.055 46.1999C115.055 45.9629 114.998 45.7552 114.884 45.5767C114.773 45.3951 114.616 45.2536 114.413 45.152C114.213 45.0504 113.979 44.9996 113.711 44.9996C113.44 44.9996 113.193 45.0489 112.968 45.1474C112.743 45.2428 112.563 45.3797 112.428 45.5582C112.292 45.7367 112.22 45.946 112.211 46.1861H110.295C110.304 45.6413 110.46 45.1612 110.761 44.7457C111.063 44.3303 111.469 44.0056 111.98 43.7717C112.494 43.5347 113.074 43.4162 113.72 43.4162C114.373 43.4162 114.944 43.5347 115.433 43.7717C115.922 44.0086 116.302 44.3287 116.573 44.7319C116.847 45.132 116.983 45.5813 116.98 46.0799C116.983 46.6093 116.818 47.0509 116.486 47.4048C116.156 47.7588 115.727 47.9834 115.198 48.0788V48.1527C115.893 48.242 116.423 48.4835 116.786 48.8775C117.152 49.2683 117.334 49.7577 117.33 50.3455C117.334 50.8841 117.178 51.3627 116.864 51.7812C116.553 52.1998 116.124 52.5291 115.576 52.7692C115.028 53.0092 114.401 53.1293 113.693 53.1293Z" fill="black"></path><defs><filter id="filter0_ii_12636_8018" x="4.96558" y="8.96484" width="23.561" height="23.4762" filterUnits="userSpaceOnUse" color-interpolation-filters="sRGB"><feFlood flood-opacity="0" result="BackgroundImageFix"></feFlood><feBlend mode="normal" in="SourceGraphic" in2="BackgroundImageFix" result="shape"></feBlend><feColorMatrix in="SourceAlpha" type="matrix" values="0 0 0 0 0 0 0 0 0 0 0 0 0 0 0 0 0 0 127 0" result="hardAlpha"></feColorMatrix><feOffset dy="0.165678"></feOffset><feGaussianBlur stdDeviation="0.0828388"></feGaussianBlur><feComposite in2="hardAlpha" operator="arithmetic" k2="-1" k3="1"></feComposite><feColorMatrix type="matrix" values="0 0 0 0 1 0 0 0 0 1 0 0 0 0 1 0 0 0 0.8 0"></feColorMatrix><feBlend mode="normal" in2="shape" result="effect1_innerShadow_12636_8018"></feBlend><feColorMatrix in="SourceAlpha" type="matrix" values="0 0 0 0 0 0 0 0 0 0 0 0 0 0 0 0 0 0 127 0" result="hardAlpha"></feColorMatrix><feOffset dy="0.0828388"></feOffset><feGaussianBlur stdDeviation="0.0828388"></feGaussianBlur><feComposite in2="hardAlpha" operator="arithmetic" k2="-1" k3="1"></feComposite><feColorMatrix type="matrix" values="0 0 0 0 0.441667 0 0 0 0 0.441667 0 0 0 0 0.441667 0 0 0 0.4 0"></feColorMatrix><feBlend mode="normal" in2="effect1_innerShadow_12636_8018" result="effect2_innerShadow_12636_8018"></feBlend></filter><linearGradient id="paint0_linear_12636_8018" x1="24.7179" y1="12.2813" x2="10.8567" y2="26.1085" gradientUnits="userSpaceOnUse"><stop offset="0.1745" stop-color="#52BFCA"></stop><stop offset="0.9163" stop-color="#7238DF"></stop></linearGradient><linearGradient id="paint1_linear_12636_8018" x1="8.83604" y1="33.6247" x2="14.2706" y2="28.2958" gradientUnits="userSpaceOnUse"><stop offset="0.1875" stop-color="#25E2EA"></stop><stop offset="1" stop-color="#19A6D1"></stop></linearGradient><linearGradient id="paint2_linear_12636_8018" x1="1.60358" y1="35.7292" x2="13.7273" y2="23.841" gradientUnits="userSpaceOnUse"><stop stop-color="#A443FD"></stop><stop offset="1" stop-color="#A959F3"></stop></linearGradient><linearGradient id="paint3_linear_12636_8018" x1="3.54832" y1="28.9727" x2="9.55739" y2="23.0805" gradientUnits="userSpaceOnUse"><stop offset="0.3958" stop-color="#E55EC4"></stop><stop offset="1" stop-color="#8225D0"></stop></linearGradient><linearGradient id="paint4_linear_12636_8018" x1="8.83604" y1="33.6247" x2="14.2706" y2="28.2958" gradientUnits="userSpaceOnUse"><stop offset="0.1875" stop-color="#25E2EA"></stop><stop offset="1" stop-color="#19A6D1"></stop></linearGradient><linearGradient id="paint5_linear_12636_8018" x1="10.6476" y1="32.0986" x2="12.717" y2="29.9575" gradientUnits="userSpaceOnUse"><stop></stop><stop offset="0.0001" stop-color="#E4FCFF"></stop><stop offset="1" stop-color="#E4FCFF" stop-opacity="0"></stop></linearGradient><linearGradient id="paint6_linear_12636_8018" x1="5.53394" y1="26.9511" x2="8.24779" y2="24.1849" gradientUnits="userSpaceOnUse"><stop stop-color="#FFF5FE"></stop><stop offset="0.769332" stop-color="#FFF5FE" stop-opacity="0"></stop></linearGradient><linearGradient id="paint7_linear_12636_8018" x1="6.10013" y1="31.4164" x2="11.9312" y2="25.467" gradientUnits="userSpaceOnUse"><stop stop-color="#F6EDFE"></stop><stop offset="0.850896" stop-color="#A851F8" stop-opacity="0"></stop></linearGradient><linearGradient id="paint8_linear_12636_8018" x1="25.8033" y1="11.5298" x2="10.7215" y2="27.3137" gradientUnits="userSpaceOnUse"><stop offset="0.00924772" stop-color="#2D9FAB"></stop><stop offset="0.0885417" stop-color="#2D9FAB" stop-opacity="0.823892"></stop><stop offset="0.171875" stop-color="#2D9FAB" stop-opacity="0.8"></stop><stop offset="0.302083" stop-color="#2D9FAB" stop-opacity="0.8"></stop><stop offset="1" stop-color="white" stop-opacity="0.5"></stop></linearGradient><clipPath id="clip0_12636_8018"><rect width="110" height="24" fill="white" transform="translate(5.00098 9)"></rect></clipPath></defs></svg>