<svg xmlns="http://www.w3.org/2000/svg" width="60" height="60" viewBox="0 0 60 60" fill="none">
<path d="M34.172 31.0285L23.0285 31.0285C22.4605 31.0285 22 30.568 22 30C22 29.432 22.4605 28.9715 23.0285 28.9715L34.172 28.9715L29.4951 24.1611C29.1125 23.7676 29.1125 23.1411 29.4951 22.7476C29.8932 22.3382 30.5508 22.3382 30.9489 22.7476L37.6611 29.6515C37.8498 29.8455 37.8498 30.1545 37.6611 30.3485L30.9489 37.2524C30.5508 37.6618 29.8932 37.6618 29.4951 37.2524C29.1125 36.8589 29.1125 36.2324 29.4951 35.8389L34.172 31.0285Z" fill="#262E36"/>
<path d="M30 59C13.9837 59 1 46.0163 1 30H-1C-1 47.1208 12.8792 61 30 61V59ZM59 30C59 46.0163 46.0163 59 30 59V61C47.1208 61 61 47.1208 61 30H59ZM30 1C46.0163 1 59 13.9837 59 30H61C61 12.8792 47.1208 -1 30 -1V1ZM30 -1C12.8792 -1 -1 12.8792 -1 30H1C1 13.9837 13.9837 1 30 1V-1Z" fill="transparent"/>
</svg>