<svg width="100" height="20" viewBox="0 0 100 20" fill="none" xmlns="http://www.w3.org/2000/svg"><path d="M10.0001 15.216L4.12259 18.506L5.43509 11.8993L0.489258 7.32601L7.17842 6.53268L10.0001 0.416016L12.8218 6.53268L19.5109 7.32601L14.5651 11.8993L15.8776 18.506L10.0001 15.216Z" fill="url(#paint0_linear_12505_1176)"></path><path d="M30.0001 15.216L24.1226 18.506L25.4351 11.8993L20.4893 7.32601L27.1784 6.53268L30.0001 0.416016L32.8218 6.53268L39.5109 7.32601L34.5651 11.8993L35.8776 18.506L30.0001 15.216Z" fill="url(#paint1_linear_12505_1176)"></path><path d="M50.0001 15.216L44.1226 18.506L45.4351 11.8993L40.4893 7.32601L47.1784 6.53268L50.0001 0.416016L52.8218 6.53268L59.5109 7.32601L54.5651 11.8993L55.8776 18.506L50.0001 15.216Z" fill="url(#paint2_linear_12505_1176)"></path><path d="M70.0001 15.216L64.1226 18.506L65.4351 11.8993L60.4893 7.32601L67.1784 6.53268L70.0001 0.416016L72.8218 6.53268L79.5109 7.32601L74.5651 11.8993L75.8776 18.506L70.0001 15.216Z" fill="url(#paint3_linear_12505_1176)"></path><path d="M90.0001 15.216L84.1226 18.506L85.4351 11.8993L80.4893 7.32601L87.1784 6.53268L90.0001 0.416016L92.8218 6.53268L99.5109 7.32601L94.5651 11.8993L95.8776 18.506L90.0001 15.216Z" fill="url(#paint4_linear_12505_1176)"></path><defs><linearGradient id="paint0_linear_12505_1176" x1="10.0001" y1="0.416016" x2="10.0001" y2="18.506" gradientUnits="userSpaceOnUse"><stop stop-color="#FEC900"></stop><stop offset="1" stop-color="#F49700"></stop></linearGradient><linearGradient id="paint1_linear_12505_1176" x1="30.0001" y1="0.416016" x2="30.0001" y2="18.506" gradientUnits="userSpaceOnUse"><stop stop-color="#FEC900"></stop><stop offset="1" stop-color="#F49700"></stop></linearGradient><linearGradient id="paint2_linear_12505_1176" x1="50.0001" y1="0.416016" x2="50.0001" y2="18.506" gradientUnits="userSpaceOnUse"><stop stop-color="#FEC900"></stop><stop offset="1" stop-color="#F49700"></stop></linearGradient><linearGradient id="paint3_linear_12505_1176" x1="70.0001" y1="0.416016" x2="70.0001" y2="18.506" gradientUnits="userSpaceOnUse"><stop stop-color="#FEC900"></stop><stop offset="1" stop-color="#F49700"></stop></linearGradient><linearGradient id="paint4_linear_12505_1176" x1="90.0001" y1="0.416016" x2="90.0001" y2="18.506" gradientUnits="userSpaceOnUse"><stop stop-color="#FEC900"></stop><stop offset="1" stop-color="#F49700"></stop></linearGradient></defs></svg>