<svg width="120" height="56" viewBox="0 0 120 56" fill="none" xmlns="http://www.w3.org/2000/svg"><g clip-path="url(#clip0_12636_7977)"><path d="M-1.44221 16.3643V14.8182H6.68137V16.3643H3.53436V25H1.70481V16.3643H-1.44221ZM10.3914 25.1491C9.64569 25.1491 8.99938 24.9851 8.4525 24.657C7.90563 24.3288 7.48139 23.8698 7.17978 23.2798C6.88148 22.6899 6.73233 22.0005 6.73233 21.2116C6.73233 20.4228 6.88148 19.7318 7.17978 19.1385C7.48139 18.5452 7.90563 18.0845 8.4525 17.7564C8.99938 17.4283 9.64569 17.2642 10.3914 17.2642C11.1372 17.2642 11.7835 17.4283 12.3303 17.7564C12.8772 18.0845 13.2998 18.5452 13.5981 19.1385C13.8997 19.7318 14.0505 20.4228 14.0505 21.2116C14.0505 22.0005 13.8997 22.6899 13.5981 23.2798C13.2998 23.8698 12.8772 24.3288 12.3303 24.657C11.7835 24.9851 11.1372 25.1491 10.3914 25.1491ZM10.4014 23.7074C10.8057 23.7074 11.1438 23.5964 11.4156 23.3743C11.6874 23.1489 11.8895 22.8473 12.0221 22.4695C12.158 22.0916 12.2259 21.6707 12.2259 21.2067C12.2259 20.7393 12.158 20.3168 12.0221 19.9389C11.8895 19.5578 11.6874 19.2545 11.4156 19.0291C11.1438 18.8037 10.8057 18.6911 10.4014 18.6911C9.98707 18.6911 9.64237 18.8037 9.36728 19.0291C9.0955 19.2545 8.89166 19.5578 8.75577 19.9389C8.62319 20.3168 8.55691 20.7393 8.55691 21.2067C8.55691 21.6707 8.62319 22.0916 8.75577 22.4695C8.89166 22.8473 9.0955 23.1489 9.36728 23.3743C9.64237 23.5964 9.98707 23.7074 10.4014 23.7074ZM15.578 27.8636V17.3636H17.3479V18.6264H17.4523C17.5451 18.4408 17.676 18.2436 17.8451 18.0348C18.0141 17.8227 18.2428 17.642 18.5312 17.4929C18.8195 17.3404 19.1874 17.2642 19.6349 17.2642C20.2248 17.2642 20.7568 17.415 21.2307 17.7166C21.708 18.0149 22.0858 18.4574 22.3643 19.044C22.646 19.6274 22.7868 20.3433 22.7868 21.1918C22.7868 22.0303 22.6493 22.7429 22.3742 23.3295C22.0991 23.9162 21.7246 24.3636 21.2506 24.6719C20.7767 24.9801 20.2397 25.1342 19.6398 25.1342C19.2023 25.1342 18.8394 25.0613 18.551 24.9155C18.2627 24.7696 18.0307 24.594 17.855 24.3885C17.6827 24.1797 17.5484 23.9825 17.4523 23.7969H17.3778V27.8636H15.578ZM17.343 21.1818C17.343 21.6757 17.4126 22.1082 17.5518 22.4794C17.6943 22.8506 17.8981 23.1406 18.1633 23.3494C18.4317 23.5549 18.7565 23.6577 19.1377 23.6577C19.5354 23.6577 19.8685 23.5516 20.137 23.3395C20.4055 23.1241 20.6076 22.8307 20.7435 22.4595C20.8827 22.085 20.9523 21.6591 20.9523 21.1818C20.9523 20.7079 20.8844 20.2869 20.7485 19.919C20.6126 19.5511 20.4104 19.2628 20.142 19.054C19.8735 18.8452 19.5387 18.7408 19.1377 18.7408C18.7532 18.7408 18.4268 18.8419 18.1583 19.044C17.8898 19.2462 17.686 19.5296 17.5468 19.8942C17.4109 20.2588 17.343 20.688 17.343 21.1818ZM27.8802 25V14.8182H31.6984C32.4806 14.8182 33.1369 14.9541 33.6672 15.2259C34.2008 15.4976 34.6035 15.8788 34.8753 16.3693C35.1504 16.8565 35.2879 17.425 35.2879 18.0746C35.2879 18.7275 35.1487 19.2943 34.8703 19.7749C34.5952 20.2521 34.1892 20.6217 33.6523 20.8835C33.1153 21.142 32.4558 21.2713 31.6736 21.2713H28.9541V19.7401H31.425C31.8824 19.7401 32.2569 19.6771 32.5486 19.5511C32.8402 19.4219 33.0557 19.2346 33.1949 18.9893C33.3374 18.7408 33.4086 18.4358 33.4086 18.0746C33.4086 17.7133 33.3374 17.4051 33.1949 17.1499C33.0523 16.8913 32.8353 16.6958 32.5436 16.5632C32.2519 16.4273 31.8757 16.3594 31.415 16.3594H29.7247V25H27.8802ZM33.1402 20.3864L35.6608 25H33.6025L31.1267 20.3864H33.1402ZM39.1036 25.1541C38.6197 25.1541 38.1839 25.0679 37.7961 24.8956C37.4116 24.7199 37.1067 24.4614 36.8813 24.12C36.6592 23.7786 36.5482 23.3577 36.5482 22.8572C36.5482 22.4264 36.6278 22.0701 36.7868 21.7884C36.9459 21.5066 37.163 21.2812 37.4381 21.1122C37.7132 20.9432 38.0231 20.8156 38.3678 20.7294C38.7158 20.6399 39.0754 20.5753 39.4466 20.5355C39.8941 20.4891 40.257 20.4477 40.5354 20.4112C40.8138 20.3714 41.016 20.3118 41.142 20.2322C41.2712 20.1494 41.3358 20.0218 41.3358 19.8494V19.8196C41.3358 19.4451 41.2248 19.1551 41.0028 18.9496C40.7807 18.7441 40.4608 18.6413 40.0432 18.6413C39.6024 18.6413 39.2528 18.7375 38.9942 18.9297C38.739 19.1219 38.5667 19.349 38.4772 19.6108L36.7968 19.3722C36.9294 18.9081 37.1481 18.5204 37.453 18.2088C37.758 17.8939 38.1308 17.6586 38.5716 17.5028C39.0125 17.3438 39.4997 17.2642 40.0333 17.2642C40.4012 17.2642 40.7674 17.3073 41.132 17.3935C41.4966 17.4796 41.8297 17.6222 42.1313 17.821C42.4329 18.0166 42.6749 18.2834 42.8572 18.6214C43.0428 18.9595 43.1356 19.3821 43.1356 19.8892V25H41.4055V23.951H41.3458C41.2364 24.1631 41.0823 24.362 40.8834 24.5476C40.6879 24.7299 40.441 24.8774 40.1427 24.9901C39.8477 25.0994 39.5013 25.1541 39.1036 25.1541ZM39.5709 23.8317C39.9322 23.8317 40.2454 23.7604 40.5106 23.6179C40.7757 23.4721 40.9796 23.2798 41.1221 23.0412C41.2679 22.8026 41.3408 22.5424 41.3408 22.2607V21.3608C41.2845 21.4072 41.1884 21.4503 41.0525 21.4901C40.9199 21.5298 40.7707 21.5646 40.605 21.5945C40.4393 21.6243 40.2752 21.6508 40.1128 21.674C39.9504 21.6972 39.8096 21.7171 39.6903 21.7337C39.4218 21.7701 39.1815 21.8298 38.9694 21.9126C38.7573 21.9955 38.5899 22.1115 38.4672 22.2607C38.3446 22.4065 38.2833 22.5954 38.2833 22.8274C38.2833 23.1589 38.4043 23.4091 38.6462 23.5781C38.8882 23.7472 39.1964 23.8317 39.5709 23.8317ZM48.7584 17.3636V18.7557H44.3685V17.3636H48.7584ZM45.4523 15.5341H47.252V22.7031C47.252 22.9451 47.2885 23.1307 47.3614 23.2599C47.4376 23.3859 47.5371 23.4721 47.6597 23.5185C47.7823 23.5649 47.9182 23.5881 48.0674 23.5881C48.1801 23.5881 48.2828 23.5798 48.3756 23.5632C48.4717 23.5466 48.5447 23.5317 48.5944 23.5185L48.8976 24.9254C48.8015 24.9586 48.664 24.995 48.485 25.0348C48.3093 25.0746 48.0939 25.0978 47.8387 25.1044C47.3879 25.1177 46.9819 25.0497 46.6206 24.9006C46.2594 24.7481 45.9727 24.5128 45.7606 24.1946C45.5518 23.8764 45.449 23.4787 45.4523 23.0014V15.5341ZM53.5622 25.1491C52.7966 25.1491 52.1354 24.9901 51.5786 24.6719C51.0251 24.3504 50.5992 23.8963 50.3009 23.3097C50.0026 22.7197 49.8534 22.0253 49.8534 21.2266C49.8534 20.4411 50.0026 19.7517 50.3009 19.1584C50.6025 18.5618 51.0234 18.0978 51.5637 17.7663C52.1039 17.4316 52.7386 17.2642 53.4678 17.2642C53.9384 17.2642 54.3825 17.3404 54.8002 17.4929C55.2211 17.642 55.5923 17.8741 55.9138 18.1889C56.2386 18.5038 56.4938 18.9048 56.6794 19.392C56.865 19.8759 56.9578 20.4527 56.9578 21.1222V21.674H50.6986V20.4609H55.2327C55.2294 20.1162 55.1548 19.8097 55.009 19.5412C54.8631 19.2694 54.6593 19.0556 54.3975 18.8999C54.1389 18.7441 53.8373 18.6662 53.4926 18.6662C53.1247 18.6662 52.8016 18.7557 52.5232 18.9347C52.2448 19.1103 52.0277 19.3423 51.8719 19.6307C51.7194 19.9157 51.6415 20.2289 51.6382 20.5703V21.6293C51.6382 22.0734 51.7194 22.4545 51.8818 22.7727C52.0442 23.0876 52.2713 23.3295 52.5629 23.4986C52.8546 23.6643 53.196 23.7472 53.5871 23.7472C53.8489 23.7472 54.0859 23.7107 54.298 23.6378C54.5102 23.5616 54.6941 23.4505 54.8499 23.3047C55.0057 23.1589 55.1233 22.9782 55.2029 22.7628L56.8833 22.9517C56.7772 23.3958 56.575 23.7836 56.2767 24.1151C55.9817 24.4432 55.6039 24.6984 55.1432 24.8807C54.6825 25.0597 54.1555 25.1491 53.5622 25.1491ZM61.3142 25.1342C60.7143 25.1342 60.1773 24.9801 59.7034 24.6719C59.2294 24.3636 58.8549 23.9162 58.5798 23.3295C58.3047 22.7429 58.1672 22.0303 58.1672 21.1918C58.1672 20.3433 58.3064 19.6274 58.5848 19.044C58.8665 18.4574 59.246 18.0149 59.7233 17.7166C60.2006 17.415 60.7325 17.2642 61.3192 17.2642C61.7666 17.2642 62.1345 17.3404 62.4229 17.4929C62.7112 17.642 62.9399 17.8227 63.1089 18.0348C63.278 18.2436 63.4089 18.4408 63.5017 18.6264H63.5763V14.8182H65.3809V25H63.6111V23.7969H63.5017C63.4089 23.9825 63.2747 24.1797 63.099 24.3885C62.9233 24.594 62.6913 24.7696 62.403 24.9155C62.1146 25.0613 61.7517 25.1342 61.3142 25.1342ZM61.8163 23.6577C62.1975 23.6577 62.5223 23.5549 62.7907 23.3494C63.0592 23.1406 63.2631 22.8506 63.4023 22.4794C63.5415 22.1082 63.6111 21.6757 63.6111 21.1818C63.6111 20.688 63.5415 20.2588 63.4023 19.8942C63.2664 19.5296 63.0642 19.2462 62.7957 19.044C62.5306 18.8419 62.2041 18.7408 61.8163 18.7408C61.4153 18.7408 61.0805 18.8452 60.8121 19.054C60.5436 19.2628 60.3414 19.5511 60.2055 19.919C60.0696 20.2869 60.0017 20.7079 60.0017 21.1818C60.0017 21.6591 60.0696 22.085 60.2055 22.4595C60.3447 22.8307 60.5486 23.1241 60.817 23.3395C61.0888 23.5516 61.4219 23.6577 61.8163 23.6577ZM72.1585 25H70.1897L73.7742 14.8182H76.0512L79.6407 25H77.672L74.9525 16.9062H74.873L72.1585 25ZM72.2231 21.0078H77.5924V22.4893H72.2231V21.0078ZM83.9909 28.0227C83.3445 28.0227 82.7894 27.9349 82.3254 27.7592C81.8614 27.5869 81.4885 27.3549 81.2068 27.0632C80.925 26.7715 80.7295 26.4484 80.6201 26.0938L82.2409 25.701C82.3138 25.8501 82.4198 25.9976 82.559 26.1435C82.6982 26.2926 82.8855 26.4152 83.1208 26.5114C83.3595 26.6108 83.6594 26.6605 84.0207 26.6605C84.5311 26.6605 84.9537 26.5362 85.2884 26.2876C85.6232 26.0424 85.7906 25.638 85.7906 25.0746V23.6278H85.7011C85.6083 23.8134 85.4724 24.004 85.2934 24.1996C85.1178 24.3951 84.8841 24.5592 84.5924 24.6918C84.3041 24.8243 83.9411 24.8906 83.5036 24.8906C82.917 24.8906 82.385 24.7531 81.9078 24.478C81.4338 24.1996 81.056 23.7853 80.7742 23.2351C80.4958 22.6816 80.3566 21.9889 80.3566 21.157C80.3566 20.3184 80.4958 19.6108 80.7742 19.0341C81.056 18.4541 81.4355 18.0149 81.9127 17.7166C82.39 17.415 82.922 17.2642 83.5086 17.2642C83.9561 17.2642 84.324 17.3404 84.6123 17.4929C84.904 17.642 85.136 17.8227 85.3083 18.0348C85.4807 18.2436 85.6116 18.4408 85.7011 18.6264H85.8005V17.3636H87.5754V25.1243C87.5754 25.7772 87.4196 26.3175 87.108 26.745C86.7965 27.1726 86.3706 27.4924 85.8303 27.7045C85.2901 27.9167 84.6769 28.0227 83.9909 28.0227ZM84.0058 23.4787C84.3869 23.4787 84.7117 23.3859 84.9802 23.2003C85.2487 23.0147 85.4525 22.7479 85.5917 22.3999C85.7309 22.0518 85.8005 21.6342 85.8005 21.147C85.8005 20.6664 85.7309 20.2455 85.5917 19.8842C85.4558 19.523 85.2536 19.2429 84.9852 19.044C84.72 18.8419 84.3936 18.7408 84.0058 18.7408C83.6047 18.7408 83.27 18.8452 83.0015 19.054C82.733 19.2628 82.5309 19.5495 82.395 19.9141C82.2591 20.2753 82.1911 20.6863 82.1911 21.147C82.1911 21.6143 82.2591 22.0237 82.395 22.375C82.5342 22.723 82.738 22.9948 83.0065 23.1903C83.2783 23.3826 83.6114 23.4787 84.0058 23.4787ZM92.8005 25.1491C92.0349 25.1491 91.3737 24.9901 90.8169 24.6719C90.2633 24.3504 89.8374 23.8963 89.5392 23.3097C89.2409 22.7197 89.0917 22.0253 89.0917 21.2266C89.0917 20.4411 89.2409 19.7517 89.5392 19.1584C89.8408 18.5618 90.2617 18.0978 90.8019 17.7663C91.3422 17.4316 91.9769 17.2642 92.7061 17.2642C93.1767 17.2642 93.6208 17.3404 94.0384 17.4929C94.4594 17.642 94.8306 17.8741 95.1521 18.1889C95.4769 18.5038 95.7321 18.9048 95.9177 19.392C96.1033 19.8759 96.1961 20.4527 96.1961 21.1222V21.674H89.9369V20.4609H94.471C94.4677 20.1162 94.3931 19.8097 94.2472 19.5412C94.1014 19.2694 93.8976 19.0556 93.6357 18.8999C93.3772 18.7441 93.0756 18.6662 92.7309 18.6662C92.363 18.6662 92.0399 18.7557 91.7615 18.9347C91.483 19.1103 91.266 19.3423 91.1102 19.6307C90.9577 19.9157 90.8798 20.2289 90.8765 20.5703V21.6293C90.8765 22.0734 90.9577 22.4545 91.1201 22.7727C91.2825 23.0876 91.5096 23.3295 91.8012 23.4986C92.0929 23.6643 92.4343 23.7472 92.8254 23.7472C93.0872 23.7472 93.3242 23.7107 93.5363 23.6378C93.7484 23.5616 93.9324 23.4505 94.0882 23.3047C94.2439 23.1589 94.3616 22.9782 94.4411 22.7628L96.1215 22.9517C96.0155 23.3958 95.8133 23.7836 95.515 24.1151C95.22 24.4432 94.8422 24.6984 94.3815 24.8807C93.9208 25.0597 93.3938 25.1491 92.8005 25.1491ZM99.5184 20.5256V25H97.7187V17.3636H99.4388V18.6612H99.5283C99.704 18.2337 99.984 17.8939 100.369 17.642C100.756 17.3902 101.235 17.2642 101.805 17.2642C102.332 17.2642 102.791 17.3769 103.182 17.6023C103.577 17.8277 103.882 18.1541 104.097 18.5817C104.316 19.0092 104.424 19.5279 104.42 20.1378V25H102.621V20.4162C102.621 19.9058 102.488 19.5064 102.223 19.218C101.961 18.9297 101.598 18.7855 101.134 18.7855C100.819 18.7855 100.539 18.8551 100.294 18.9943C100.052 19.1302 99.8614 19.3274 99.7222 19.5859C99.5863 19.8445 99.5184 20.1577 99.5184 20.5256ZM109.581 25.1491C108.819 25.1491 108.164 24.9818 107.617 24.647C107.074 24.3123 106.654 23.8499 106.359 23.2599C106.068 22.6667 105.922 21.9839 105.922 21.2116C105.922 20.4361 106.071 19.7517 106.369 19.1584C106.668 18.5618 107.088 18.0978 107.632 17.7663C108.179 17.4316 108.825 17.2642 109.571 17.2642C110.191 17.2642 110.739 17.3786 111.217 17.6072C111.697 17.8326 112.08 18.1525 112.365 18.5668C112.65 18.9777 112.812 19.4583 112.852 20.0085H111.132C111.062 19.6406 110.897 19.334 110.635 19.0888C110.376 18.8402 110.03 18.7159 109.596 18.7159C109.228 18.7159 108.905 18.8153 108.626 19.0142C108.348 19.2098 108.131 19.4915 107.975 19.8594C107.823 20.2273 107.746 20.6681 107.746 21.1818C107.746 21.7022 107.823 22.1496 107.975 22.5241C108.128 22.8954 108.341 23.1821 108.616 23.3842C108.895 23.5831 109.221 23.6825 109.596 23.6825C109.861 23.6825 110.098 23.6328 110.307 23.5334C110.519 23.4306 110.696 23.2831 110.839 23.0909C110.981 22.8987 111.079 22.665 111.132 22.3899H112.852C112.809 22.9302 112.65 23.4091 112.375 23.8267C112.1 24.241 111.725 24.5658 111.251 24.8011C110.777 25.0331 110.221 25.1491 109.581 25.1491ZM115.449 27.8636C115.203 27.8636 114.976 27.8438 114.767 27.804C114.562 27.7675 114.398 27.7244 114.275 27.6747L114.693 26.2727C114.955 26.349 115.188 26.3854 115.394 26.3821C115.599 26.3788 115.78 26.3142 115.936 26.1882C116.095 26.0656 116.229 25.8601 116.339 25.5717L116.493 25.1591L113.723 17.3636H115.633L117.392 23.1307H117.472L119.237 17.3636H121.151L118.093 25.9247C117.951 26.3291 117.762 26.6754 117.527 26.9638C117.291 27.2554 117.003 27.4775 116.662 27.63C116.324 27.7857 115.919 27.8636 115.449 27.8636Z" fill="#171D2E"></path><g clip-path="url(#clip1_12636_7977)"><path d="M16.0014 52.174L11.2994 54.806L12.3494 49.5206L8.3927 45.862L13.744 45.2273L16.0014 40.334L18.2587 45.2273L23.61 45.862L19.6534 49.5206L20.7034 54.806L16.0014 52.174Z" fill="url(#paint0_linear_12636_7977)"></path></g><g clip-path="url(#clip2_12636_7977)"><path d="M32.0014 52.174L27.2994 54.806L28.3494 49.5206L24.3927 45.862L29.744 45.2273L32.0014 40.334L34.2587 45.2273L39.61 45.862L35.6534 49.5206L36.7034 54.806L32.0014 52.174Z" fill="url(#paint1_linear_12636_7977)"></path></g><g clip-path="url(#clip3_12636_7977)"><path d="M48.0014 52.174L43.2994 54.806L44.3494 49.5206L40.3927 45.862L45.744 45.2273L48.0014 40.334L50.2587 45.2273L55.61 45.862L51.6534 49.5206L52.7034 54.806L48.0014 52.174Z" fill="url(#paint2_linear_12636_7977)"></path></g><g clip-path="url(#clip4_12636_7977)"><path d="M64.0014 52.174L59.2994 54.806L60.3494 49.5206L56.3927 45.862L61.744 45.2273L64.0014 40.334L66.2587 45.2273L71.61 45.862L67.6534 49.5206L68.7034 54.806L64.0014 52.174Z" fill="url(#paint3_linear_12636_7977)"></path></g><g clip-path="url(#clip5_12636_7977)"><path d="M80.0014 52.174L75.2994 54.806L76.3494 49.5206L72.3927 45.862L77.744 45.2273L80.0014 40.334L82.2587 45.2273L87.61 45.862L83.6534 49.5206L84.7034 54.806L80.0014 52.174Z" fill="black" fill-opacity="0.16"></path><path d="M75.2992 54.804L80.0012 52.172V40.332L77.7439 45.2254L72.3926 45.86L76.3492 49.5187L75.2992 54.804Z" fill="url(#paint4_linear_12636_7977)"></path></g><path d="M92.6838 51.3381V49.7638L96.6309 43.5455H97.9881V45.7244H97.1848L94.6966 49.6623V49.7362H100.306V51.3381H92.6838ZM97.2218 53V50.858L97.2587 50.1609V43.5455H99.133V53H97.2218ZM102.628 53.12C102.323 53.12 102.061 53.0123 101.843 52.7969C101.627 52.5784 101.52 52.3168 101.52 52.0121C101.52 51.7105 101.627 51.4519 101.843 51.2365C102.061 51.0211 102.323 50.9134 102.628 50.9134C102.923 50.9134 103.182 51.0211 103.403 51.2365C103.625 51.4519 103.736 51.7105 103.736 52.0121C103.736 52.2152 103.683 52.4014 103.579 52.5707C103.477 52.7369 103.343 52.8707 103.177 52.9723C103.011 53.0708 102.828 53.12 102.628 53.12ZM105.35 53L109.27 45.2443V45.1797H104.704V43.5455H111.338V45.2028L107.414 53H105.35Z" fill="black"></path></g><defs><linearGradient id="paint0_linear_12636_7977" x1="16.0014" y1="40.334" x2="16.0014" y2="54.806" gradientUnits="userSpaceOnUse"><stop stop-color="#FEC900"></stop><stop offset="1" stop-color="#F49700"></stop></linearGradient><linearGradient id="paint1_linear_12636_7977" x1="32.0014" y1="40.334" x2="32.0014" y2="54.806" gradientUnits="userSpaceOnUse"><stop stop-color="#FEC900"></stop><stop offset="1" stop-color="#F49700"></stop></linearGradient><linearGradient id="paint2_linear_12636_7977" x1="48.0014" y1="40.334" x2="48.0014" y2="54.806" gradientUnits="userSpaceOnUse"><stop stop-color="#FEC900"></stop><stop offset="1" stop-color="#F49700"></stop></linearGradient><linearGradient id="paint3_linear_12636_7977" x1="64.0014" y1="40.334" x2="64.0014" y2="54.806" gradientUnits="userSpaceOnUse"><stop stop-color="#FEC900"></stop><stop offset="1" stop-color="#F49700"></stop></linearGradient><linearGradient id="paint4_linear_12636_7977" x1="76.1969" y1="40.332" x2="76.1969" y2="54.804" gradientUnits="userSpaceOnUse"><stop stop-color="#FEC900"></stop><stop offset="1" stop-color="#F49700"></stop></linearGradient><clipPath id="clip0_12636_7977"><rect width="120" height="56" fill="white" transform="translate(0.000976562)"></rect></clipPath><clipPath id="clip1_12636_7977"><rect width="16" height="16" fill="white" transform="translate(8.00098 40)"></rect></clipPath><clipPath id="clip2_12636_7977"><rect width="16" height="16" fill="white" transform="translate(24.001 40)"></rect></clipPath><clipPath id="clip3_12636_7977"><rect width="16" height="16" fill="white" transform="translate(40.001 40)"></rect></clipPath><clipPath id="clip4_12636_7977"><rect width="16" height="16" fill="white" transform="translate(56.001 40)"></rect></clipPath><clipPath id="clip5_12636_7977"><rect width="16" height="16" fill="white" transform="translate(72.001 40)"></rect></clipPath></defs></svg>