<svg width="95" height="23" viewBox="0 0 95 23" fill="none" xmlns="http://www.w3.org/2000/svg"><g clip-path="url(#clip0_12083_114132)"><path d="M11.7667 1.88286C11.3925 2.37103 11.1846 2.97079 11.1846 3.5845C11.1846 3.79371 11.1846 8.7452 11.1846 8.92652C11.1569 9.33101 11.0045 9.7076 10.755 10.0284C10.6164 10.1679 9.79868 10.9071 9.72938 10.9908L10.1867 11.0048C10.3392 10.8653 11.9192 9.45654 12.0716 9.26127C12.529 8.75915 12.7923 8.1036 12.7923 7.42016C12.7923 7.19699 12.7923 2.49656 12.7923 2.28735C12.7785 1.77128 12.9725 1.25521 13.3329 0.878613C13.5269 0.669395 14.1367 0.153325 14.2476 0.0277944L13.7625 0.0138462C13.6655 0.139377 11.933 1.71548 11.7667 1.88286Z" fill="white" fill-opacity="0.72"></path><path d="M7.87222 21.3123L9.79869 23H11.0876C12.3211 23 13.513 22.5118 14.3862 21.6331C15.1762 20.8381 15.4672 19.7641 15.4672 18.7599V15.9842C15.4534 15.3566 15.19 14.7568 14.7188 14.3384C14.6357 14.2547 14.0674 13.7107 14.0674 13.7107V15.8448C14.0674 15.8448 14.6911 16.4864 14.802 16.6119C15.3702 17.2256 15.3702 18.3414 13.5546 20.1128C13.2359 20.4196 12.335 21.2844 11.0876 21.2844L7.87222 21.3123Z" fill="white" fill-opacity="0.72"></path><path d="M13.2358 9.9169C13.0279 10.1401 12.82 10.698 12.82 11.2001V12.2462H13.8734C14.2892 12.2462 14.8297 11.8696 14.9406 11.6743C14.9406 11.6604 14.9406 10.6282 14.9406 10.6282C15.093 10.8514 15.287 11.0606 15.5088 11.228C15.6197 11.0885 16.5898 9.9169 17.3937 9.90295C18.7381 9.889 18.4332 11.6046 17.8926 12.1486C17.7125 12.3299 16.9225 13.0552 16.673 13.2923C16.0355 13.906 14.9406 13.6131 14.9406 12.037C14.9406 12.037 13.7764 13.1528 13.5962 13.3062C13.416 13.4597 12.82 14.1012 12.82 14.1012V16.8769C12.82 18.2019 12.3904 18.6482 12.0301 19.0527C11.8915 19.2062 10.4085 20.573 10.2006 20.7265L9.71552 20.7404C9.71552 20.7404 10.5887 19.9454 10.755 19.7641C10.949 19.5549 11.1846 19.1364 11.1846 18.439C11.1846 18.2577 11.1569 14.0873 11.1569 14.0873H4.39346C2.03734 14.0873 1.5384 11.4651 1.52454 10.7538C1.52454 10.5445 1.52454 8.45237 1.52454 8.11762C1.52454 7.68524 1.24735 6.95995 0.817705 6.73679H1.48296C1.56612 6.76468 1.9819 6.93206 1.9819 8.55001C1.9819 8.55001 1.95419 10.419 1.95419 10.5306C1.95419 11.3535 2.60558 12.288 3.53417 12.288L11.1846 12.2741C11.1846 12.0649 11.3925 11.2838 11.7667 10.8654C11.9746 10.6282 13.6239 9.12187 13.8041 8.96844H14.2892C14.2199 9.03818 13.416 9.74952 13.2497 9.94479L13.2358 9.9169ZM15.7444 11.493C15.9384 11.758 16.1602 12.023 16.3958 12.2601C17.2274 12.9296 17.6154 12.2043 17.0611 11.4512C16.8393 11.1443 15.9939 11.228 15.7444 11.493Z" fill="white" fill-opacity="0.72"></path><path d="M7.53958 16.4585C7.53958 16.835 6.36153 17.8253 6.29223 17.8811C6.20907 17.4766 5.90416 17.0443 5.03101 16.1516L6.31995 14.8545C7.1931 15.7332 7.53958 15.9284 7.53958 16.4585Z" fill="white" fill-opacity="0.72"></path><path d="M9.78482 1.54821C10.0482 1.81322 10.6025 2.51061 10.2699 2.85931C9.97885 3.15221 9.52149 3.62644 9.52149 3.62644C9.49377 3.45906 9.06413 3.04063 9.06413 3.04063C9.06413 3.04063 9.06413 4.29594 9.06413 4.44936C9.05027 5.02122 8.84237 5.17465 8.84237 5.17465C8.84237 5.17465 9.88184 6.20679 9.88184 7.54578C9.88184 8.18739 9.88184 8.78714 9.88184 8.91267C9.8957 9.16373 9.79868 9.42874 9.61851 9.61006C9.52149 9.72165 8.56518 10.698 8.41273 10.8235C8.19098 11.0188 7.91378 11.1304 7.62273 11.1164H4.03312C3.46488 11.1164 2.88278 10.6701 2.88278 10.2238C2.88278 10.1122 2.89664 8.88478 2.89664 8.88478C3.07681 9.094 3.27085 9.34506 3.71435 9.34506C4.0747 9.34506 4.43505 9.0661 4.53206 8.95452C4.62908 8.84293 7.24853 6.10916 7.24853 6.10916C7.24853 6.10916 6.02889 4.96543 5.22504 4.42147C4.83697 4.15646 4.31031 4.49121 4.22715 4.8399C3.97768 5.92783 4.22715 7.57368 4.22715 7.57368L3.24313 6.58338C2.8412 6.17889 2.85506 5.27228 3.34014 4.79806C3.40944 4.71437 4.144 3.9054 5.05872 3.9054H6.48625C7.44256 3.9054 8.49588 4.8678 8.49588 4.8678C8.57904 4.77016 8.63448 4.65858 8.64834 4.53305C8.64834 4.03093 8.63448 2.70588 8.63448 2.70588C7.91378 1.98059 7.81677 1.22741 8.16326 0.878714C8.81465 0.223165 9.05027 0 9.05027 0C9.05027 0 9.02255 0.795027 9.78482 1.54821ZM5.28048 8.80109C4.92013 9.17768 4.86469 9.26137 4.53206 9.47059H8.57904C9.67394 9.47059 9.45219 8.78714 9.25816 8.43845C8.85623 7.72711 7.58116 6.41601 7.58116 6.41601C7.58116 6.41601 5.34977 8.73135 5.28048 8.80109Z" fill="white" fill-opacity="0.72"></path><path d="M0.665257 12.5112H0C0 12.5112 0.706836 12.9017 0.706836 13.9199V17.1698C0.706836 19.2759 2.43928 21.2286 4.54592 21.2286H6.30608C7.3594 21.2286 7.73361 20.9775 8.37115 20.4057C8.60676 20.1964 8.91167 19.8478 9.02254 19.7222C9.38289 19.3038 9.78482 18.969 9.78482 17.8811V16.8211C9.78482 15.9005 9.25816 15.5239 8.99483 15.2589C8.82851 15.0915 8.38501 14.6592 8.38501 14.6592V16.835C8.38501 16.835 8.82851 17.3092 9.02254 17.4627C9.93727 18.188 9.21658 19.4433 8.35729 19.4433C8.19097 19.4433 4.73996 19.4433 4.49048 19.4433C3.07681 19.4712 1.15034 18.2019 1.15034 16.0539V14.2965C1.1642 12.5112 0.665257 12.5112 0.665257 12.5112Z" fill="white" fill-opacity="0.72"></path><path d="M4.90628 16.4724C4.90628 16.849 3.72822 17.8393 3.65893 17.8951C3.57577 17.4906 3.27086 17.0582 2.39771 16.1656L3.68665 14.8684C4.54594 15.7332 4.90628 15.9284 4.90628 16.4724Z" fill="white" fill-opacity="0.72"></path><path d="M53.9225 6.75213C54.6534 6.7305 55.2122 6.12481 55.2122 5.41095C55.1907 4.67547 54.5889 4.11304 53.8795 4.11304C53.1702 4.13467 52.5898 4.71873 52.5898 5.43258C52.5898 6.16807 53.1917 6.75213 53.9225 6.75213Z" fill="white" fill-opacity="0.72"></path><path d="M32.0837 17.0921H28.8594C27.8492 17.0921 27.9352 16.2485 27.8277 15.5346V10.9054C27.8277 10.9054 28.537 10.8838 29.3323 10.8838C30.2136 10.8838 31.3314 10.754 32.4061 11.3597C31.8472 10.1699 30.6435 9.43443 29.3323 9.4777H27.8492V7.98509C27.8492 7.98509 27.8492 6.68718 27.5268 6.31944H29.6547C31.4818 6.31944 32.9005 6.2978 34.3836 7.27124C34.3836 7.27124 34.1042 4.82684 30.5575 4.82684H23.6362C23.6362 4.82684 24.8399 5.86517 24.7969 7.96346L24.8399 16.3999C24.8399 18.5198 25.6782 18.5847 25.6782 18.5847H32.4921C34.0397 18.5847 34.5771 17.4815 34.5771 16.8758L34.5986 16.0754C34.5986 16.0754 34.1042 17.0921 32.0837 17.0921Z" fill="white" fill-opacity="0.72"></path><path d="M50.2254 16.3782V10.4727C50.2254 8.17975 48.3768 7.57406 46.9797 7.57406C45.1526 7.57406 44.5937 9.10992 44.3573 9.65072C43.9489 8.22301 42.5087 7.57406 41.348 7.57406C39.134 7.57406 38.5751 9.69399 38.5751 9.69399C38.5751 9.69399 38.5322 7.63896 36.7481 7.63896H35.007C35.007 7.63896 36.0173 8.04996 36.0173 9.82378V16.3782C36.0173 18.5414 36.8771 18.5847 36.8771 18.5847H39.7574C39.0695 18.0655 38.6611 17.2435 38.6611 16.3566V10.5376C38.7041 10.278 39.134 9.41277 40.3592 9.41277C41.0686 9.41277 41.8424 10.1483 41.8209 10.9703V16.3782C41.8209 18.5631 42.6807 18.5847 42.6807 18.5847H45.561C44.8732 18.0439 44.4648 17.2435 44.4648 16.3566V10.5376C44.7442 9.69399 45.647 9.21808 46.5068 9.4993C47.1516 9.71562 47.603 10.2997 47.6245 10.9919C47.6245 10.9919 47.6245 15.924 47.6245 16.3782C47.646 18.5847 48.4843 18.5631 48.4843 18.5631C49.9889 18.5631 51.3646 18.5631 51.3646 18.5631C50.6553 18.0439 50.2469 17.2435 50.2254 16.3782Z" fill="white" fill-opacity="0.72"></path><path d="M55.2552 16.3783C55.2552 17.2436 55.6636 18.0656 56.3515 18.5848C56.3515 18.5848 54.9758 18.5848 53.4712 18.5848C53.4712 18.5848 52.5899 18.6064 52.5899 16.4V9.80225C52.5899 8.0717 51.6011 7.61742 51.6011 7.61742H53.3422C53.9655 7.61742 55.2337 7.61743 55.2337 10.0618V16.3351L55.2552 16.3783Z" fill="white" fill-opacity="0.72"></path><path d="M64.1111 8.46097C64.1111 8.46097 63.8317 7.68222 62.6494 7.68222C60.8439 7.68222 60.414 9.84541 60.414 9.84541C60.2635 8.13649 59.8121 7.63896 58.5439 7.63896H56.8028C56.8028 7.63896 57.8131 8.04996 57.8131 9.82378V16.3782C57.8131 18.5414 58.6729 18.5847 58.6729 18.5847H61.5532C60.8654 18.0655 60.457 17.2435 60.457 16.3782V10.9919C60.5214 10.5376 60.7794 10.1266 61.1663 9.88867C62.1336 9.23971 63.4018 9.4344 64.1541 10.3213L64.1111 8.46097Z" fill="white" fill-opacity="0.72"></path><path d="M77.5024 8.85041C78.1043 8.85041 78.6847 9.00183 79.2005 9.28305V7.63902H76.7931V5.12972C76.2772 5.95173 75.6109 6.68722 74.8586 7.31454C74.0418 7.98513 72.3222 8.82878 72.3222 8.82878L74.1492 8.85041V16.4648C74.1492 18.5848 75.0305 18.5848 75.0305 18.5848C76.5997 18.5848 77.8894 18.5848 77.8894 18.5848C77.2015 18.0872 76.7931 17.2868 76.7716 16.4432V8.85041C77.5454 8.85041 77.0296 8.85041 77.5024 8.85041Z" fill="white" fill-opacity="0.72"></path><path d="M86.2294 12.1601C84.6173 13.8474 83.3491 13.5878 82.3388 14.8425C82.3388 14.8425 82.5108 16.5298 83.779 17.1138C84.2089 17.3085 85.9929 17.9575 87.1322 15.9673V17.7411C87.1322 17.7411 86.4013 18.6064 84.0584 18.6064C81.2426 18.6064 79.308 16.3783 79.308 13.3499C79.308 10.3647 80.8772 7.61742 83.8649 7.59579C86.7668 7.55252 88.3574 9.93203 86.2294 12.1601ZM84.4668 11.4679C84.9397 10.581 85.3266 8.33127 83.693 8.46106C81.8014 8.61248 82.1668 13.6527 82.1668 13.6527C82.7902 12.9605 83.736 12.8091 84.4668 11.4679Z" fill="white" fill-opacity="0.72"></path><path d="M67.0989 17.3301C66.4541 17.3301 65.9812 16.6379 65.9812 15.9457C65.9812 13.22 68.1952 12.8307 68.797 12.1168V16.7244C68.5176 16.9407 68.2596 17.3301 67.0989 17.3301ZM68.797 11.0568C68.1307 12.225 62.9289 12.4845 63.7242 16.5297C64.0466 18.1305 65.0999 18.6064 66.4326 18.6064C67.7223 18.6064 68.5176 17.9358 68.84 17.2868C69.0335 18.4982 69.6568 18.5847 69.6568 18.5847C71.1615 18.5847 72.5371 18.5847 72.5371 18.5847C71.8493 18.0656 71.4194 17.2652 71.4194 16.3999V10.2348C71.4194 8.76386 69.8073 7.61736 68.0877 7.61736C67.1204 7.59573 66.1961 7.87695 65.4008 8.41774V10.3214C65.4008 10.3214 66.0027 8.80712 67.4858 8.80712C68.9475 8.80712 69.055 9.54261 69.055 9.91035C69.0765 10.2997 69.012 10.7107 68.797 11.0568Z" fill="white" fill-opacity="0.72"></path><path d="M92.5919 15.5995C92.6134 16.3782 91.9255 17.3949 90.4639 17.3949C88.9592 17.3949 88.3574 15.8591 88.3574 15.8591V17.806C89.1742 18.3251 90.12 18.5847 91.0872 18.5847C93.0433 18.5847 95.0423 17.0921 94.9993 14.9938C94.9778 14.3016 94.7414 13.631 94.333 13.0902C93.6666 12.2033 92.4629 11.576 91.5171 10.9919C90.9798 10.6674 90.7003 10.0617 90.7003 9.86704C90.6788 9.4993 90.8723 8.76381 92.3125 8.76381C93.7311 8.76381 94.3545 10.278 94.3545 10.278V8.43933C93.5592 7.87691 92.5919 7.57406 91.6031 7.57406C89.8835 7.57406 88.3144 8.72055 88.3574 10.1915C88.3789 11.4894 88.9163 12.3114 89.9695 13.1118C90.4424 13.4579 90.9368 13.7608 91.4527 14.042C92.2695 14.4963 92.5704 15.0587 92.5919 15.5995Z" fill="white" fill-opacity="0.72"></path></g><defs><clipPath id="clip0_12083_114132"><rect width="95" height="23" fill="white"></rect></clipPath></defs></svg>