<svg width="97" height="28" viewBox="0 0 97 28" fill="none" xmlns="http://www.w3.org/2000/svg"><g clip-path="url(#clip0_12083_114134)"><path d="M94.0641 1.23218C91.7327 2.20941 87.1972 4.78886 80.4828 9.04694C83.9424 7.16817 87.1198 5.71494 90.0665 4.66373L95.3206 2.96023L96.3449 3.03524C96.55 3.16073 96.2427 3.33598 95.5251 3.53612C94.2953 3.91222 92.0145 4.83865 88.683 6.34097C87.6502 6.79891 86.7358 7.22058 85.9383 7.60696L86.9409 7.61929L85.8339 7.65767C84.0781 8.51254 82.9034 9.19213 82.2935 9.70752L88.2215 9.79843L83.1178 10.0237L86.4283 10.0988C85.7868 10.8756 85.0186 11.3015 84.1213 11.3516L83.2757 11.3765C83.4046 11.5818 83.5442 11.7753 83.6945 11.9568L88.9394 12.1023L83.9326 12.225C84.9081 13.2494 86.2737 13.8306 88.0163 13.931L89.5028 14.006L89.5802 15.134L83.3525 15.7348L89.3744 16.1102C89.4526 16.9868 89.4271 17.4376 89.2984 17.4376H83.2244L88.8106 18.2392L88.4779 19.6417L83.4296 20.0181L87.9141 20.4931L86.8633 21.8958L84.1213 22.2467L86.2487 22.6975L83.9159 24.2751C83.4005 23.7713 82.9243 23.2914 82.4888 22.8384L73.5637 23.1486C71.9488 23.2485 71.1294 23.0735 71.1294 22.6975C71.1294 22.4976 71.2574 22.3971 71.5134 22.3971L82.1554 22.4885C81.6578 21.9612 81.2196 21.4741 80.8436 21.0321L71.3595 21.2449C69.9501 21.3703 69.2071 21.2449 69.079 20.7685C69.0529 20.3931 69.6421 20.2427 70.9754 20.2427L80.2506 20.3072C80.2337 20.2856 80.2171 20.2641 80.2006 20.2428L78.5606 18.0135L76.3053 18.4895C78.2787 17.1123 79.3295 16.0601 79.5084 15.4337C79.4579 14.2314 79.3804 13.4301 79.252 12.9797L78.4322 13.8056C78.3042 12.6033 78.0991 11.8528 77.8946 11.5514L77.5866 12.4785L76.2292 13.6303L77.2018 13.5556C76.6133 16.7618 75.2803 18.8151 73.1788 19.6417L72.426 18.8754L69.4633 18.9907C68.4893 19.1159 67.9258 18.941 67.8484 18.4895C67.7971 18.2641 67.8484 18.1134 67.9775 18.0135L69.0792 17.8887L71.417 17.8722L71.2573 17.6381C71.4431 17.338 71.6227 17.0511 71.7964 16.7773L68.7966 16.9868L67.5153 16.8869C67.2854 16.8617 67.157 16.6861 67.157 16.3853C67.157 16.0099 67.6447 15.8098 68.618 15.8098L72.4598 15.7527C72.7172 15.3645 72.9599 15.011 73.1888 14.6923L67.2855 14.7575C67.0283 14.7326 66.9 14.5577 66.8752 14.3064C66.7468 13.8553 67.208 13.6303 68.2333 13.6303H74.0106C74.0943 13.5321 74.1758 13.4404 74.255 13.3551L75.2869 12.4368L67.4642 12.6285C67.1569 12.6032 67.0034 12.4287 67.0282 12.2278C67.1314 11.7522 67.797 11.5513 69.0791 11.5513L76.0641 11.7451L77.7312 10.2615L70.0786 10.5994C68.4128 10.6747 67.6446 10.4742 67.7206 9.92357C67.7723 9.67261 68.0534 9.54815 68.5659 9.49699L78.4669 9.64884C79.2777 9.00016 80.062 8.39381 80.8243 7.83135L68.874 8.24567L68.7966 7.79454C68.7966 7.54393 69.4378 7.41914 70.6675 7.41914L81.2105 7.54881C82.1054 6.89983 82.9705 6.31291 83.8137 5.79065L83.856 5.76562L73.1022 5.99144C71.488 6.11623 70.7446 5.99144 70.9755 5.61499C71.1032 5.33949 71.9488 5.23958 73.4869 5.33948L83.9638 5.70188C88.6272 2.94758 92.011 1.19898 94.0641 0.45543C94.8846 0.155035 95.217 0.204826 95.0122 0.530455L94.0641 1.23218Z" fill="white" fill-opacity="0.72"></path><path d="M74.7166 4.21258L81.9944 3.78739C78.1503 3.66156 75.8699 3.66156 75.1523 3.73692L74.0761 3.96231C73.9477 4.0871 74.1783 4.16246 74.7166 4.21258Z" fill="white" fill-opacity="0.72"></path><path d="M82.2508 24.5008L75.8437 24.7017L74.1783 24.5008C74.1783 24.2001 74.6398 24.1254 75.5364 24.2502L82.2508 24.5008Z" fill="white" fill-opacity="0.72"></path><path d="M64.214 26.7979V22.6141L63.3376 23.181L63.2725 23.3701C63.2856 23.4334 63.3376 23.4586 63.415 23.4334V26.7979H64.214Z" fill="white" fill-opacity="0.72"></path><path d="M60.9004 22.8029C60.9004 22.5761 60.7583 22.4506 60.4495 22.4506C60.2168 22.4506 60.0881 22.5761 60.0881 22.8029C60.0881 22.9926 60.2168 23.0929 60.4495 23.0929C60.7583 23.0929 60.9004 22.9926 60.9004 22.8029Z" fill="white" fill-opacity="0.72"></path><path d="M59.8684 22.8029C59.8684 22.5761 59.7263 22.4506 59.4051 22.4506C59.159 22.4506 59.0306 22.5761 59.0306 22.8029C59.0306 22.9926 59.159 23.0929 59.4051 23.0929C59.7263 23.0929 59.8684 22.9926 59.8684 22.8029Z" fill="white" fill-opacity="0.72"></path><path d="M48.0587 27.4031C48.0587 27.176 47.9038 27.0502 47.6067 27.0502C47.3496 27.0502 47.2202 27.176 47.2202 27.4031C47.2202 27.5919 47.3496 27.6925 47.6067 27.6925C47.9038 27.6925 48.0587 27.5919 48.0587 27.4031Z" fill="white" fill-opacity="0.72"></path><path d="M47.0012 27.4031C47.0012 27.176 46.8463 27.0502 46.5499 27.0502C46.2918 27.0502 46.1627 27.176 46.1627 27.4031C46.1627 27.5919 46.2918 27.6925 46.5499 27.6925C46.8463 27.6925 47.0012 27.5919 47.0012 27.4031Z" fill="white" fill-opacity="0.72"></path><path d="M45.4794 22.8658C45.4794 22.639 45.3245 22.5132 45.0026 22.5132C44.7703 22.5132 44.6412 22.639 44.6412 22.8658C44.6412 23.0552 44.7703 23.1558 45.0026 23.1558C45.3245 23.1558 45.4794 23.0552 45.4794 22.8658Z" fill="white" fill-opacity="0.72"></path><path d="M44.4612 22.8658C44.4612 22.639 44.3194 22.5132 43.9965 22.5132C43.7517 22.5132 43.6226 22.639 43.6226 22.8658C43.6226 23.0552 43.7517 23.1558 43.9965 23.1558C44.3194 23.1558 44.4612 23.0552 44.4612 22.8658Z" fill="white" fill-opacity="0.72"></path><path fill-rule="evenodd" clip-rule="evenodd" d="M45.8019 26.1051V22.9667L44.8481 23.8492C44.783 23.9121 44.8481 23.975 45.0412 24.0383L45.0026 24.3404C44.7703 24.4414 44.5121 24.5924 44.2288 24.7815C43.7517 25.0968 43.5197 25.3864 43.5197 25.6136L43.4164 26.7979H48.9096V24.2903L48.0965 24.8444C47.8776 25.0335 47.9038 25.16 48.1613 25.2226V26.1051H45.8019ZM45.0281 26.1051H44.203C44.1383 25.7899 44.203 25.5503 44.3961 25.4241L45.0281 25.1096V26.1051Z" fill="white" fill-opacity="0.72"></path><path fill-rule="evenodd" clip-rule="evenodd" d="M59.159 24.9454V25.6011H60.243V26.1051H57.6686L57.6767 25.5759C57.6767 25.1721 57.5353 24.8572 57.2513 24.6304C56.9673 24.4165 56.6702 24.3152 56.3484 24.3152H53.4087C53.0239 24.3152 52.7176 24.4206 52.5065 24.6215V22.526L51.7072 23.0804C51.4752 23.2446 51.4752 23.3957 51.7072 23.4963V26.1051H50.7402L50.7148 23.8745L49.8762 24.4794C49.7729 24.542 49.7471 24.6049 49.7988 24.656L50.0053 24.731L49.9664 26.7979C49.9664 27.025 49.8762 27.1885 49.6828 27.315C49.4893 27.4916 49.2315 27.529 48.9096 27.428C48.7675 27.4405 48.7416 27.5037 48.8704 27.6175C49.1024 27.8186 49.322 27.9324 49.5409 27.9324L50.2242 27.7181C50.5468 27.5037 50.7017 27.1885 50.7017 26.7979H62.8216V22.5889C62.3448 22.9041 62.0612 23.0929 61.9576 23.181C61.8932 23.2446 61.867 23.3072 61.8932 23.3701L62.0477 23.4334V26.1051H60.991V23.6598L60.5004 23.8993C59.611 24.2523 59.159 24.6049 59.159 24.9454ZM52.5065 26.1051H56.8948L56.9033 25.6136L56.8644 25.2606C56.8004 25.1096 56.6324 25.0466 56.3229 25.0466H53.0999C52.8202 25.0466 52.6288 25.1597 52.5065 25.3702V26.1051ZM59.7263 25.0715C59.7263 24.8821 59.895 24.757 60.243 24.656V25.0715H59.7263Z" fill="white" fill-opacity="0.72"></path><path fill-rule="evenodd" clip-rule="evenodd" d="M26.3112 19.6285H29.2976L23.3242 6.56146H22.2151L16.3838 19.6285H18.1189L19.8133 15.5695H24.6168L26.3112 19.6285ZM20.312 14.3742L22.2151 9.8143L24.1178 14.3742H20.312Z" fill="white" fill-opacity="0.72"></path><path fill-rule="evenodd" clip-rule="evenodd" d="M51.3158 19.6285H48.3287L46.635 15.5695H41.8311L40.1367 19.6285H38.4019L44.2332 6.56146H45.3423L51.3158 19.6285ZM44.2332 9.8143L42.3301 14.3742H46.136L44.2332 9.8143Z" fill="white" fill-opacity="0.72"></path><path d="M28.8498 6.56146H38.969V8.14606H35.3563V19.6285H32.4834V8.14606H28.8498V6.56146Z" fill="white" fill-opacity="0.72"></path><path fill-rule="evenodd" clip-rule="evenodd" d="M7.64079 6.2317C11.7964 6.2317 15.1644 9.38119 15.1644 13.2659C15.1644 16.1496 13.3062 18.6253 10.6495 19.7108L14.8765 22.0752L12.7432 23.7435L8.74212 20.2162C8.38173 20.2656 8.01604 20.2998 7.64079 20.2998C3.48553 20.2998 0.117188 17.15 0.117188 13.2659C0.117188 9.38119 3.48553 6.2317 7.64079 6.2317ZM2.64521 13.2659C2.64521 16.4569 4.88147 19.0446 7.64079 19.0446C10.4001 19.0446 12.6364 16.4569 12.6364 13.2659C12.6364 10.0743 10.4001 7.48687 7.64079 7.48687C4.88147 7.48687 2.64521 10.0743 2.64521 13.2659Z" fill="white" fill-opacity="0.72"></path><path fill-rule="evenodd" clip-rule="evenodd" d="M59.193 13.54C60.5865 13.2621 62.5925 11.9827 62.5925 9.41123C62.5925 6.83973 59.4851 6.56146 59.4851 6.56146H53.5605V19.6285H55.8933V13.8179H56.6897L60.5295 19.4895H63.8296L59.193 13.54ZM55.8933 12.7336V7.25627H58.9087C58.9087 7.25627 60.5295 8.1464 60.5295 9.78665C60.5295 11.4269 59.819 12.7336 58.7944 12.7336H55.8933Z" fill="white" fill-opacity="0.72"></path><path fill-rule="evenodd" clip-rule="evenodd" d="M17.9258 22.2017H17.2838L15.5788 26.4667H16.1776L16.6667 25.1825H18.5125L18.9889 26.4667H19.6308L17.9258 22.2017ZM18.3289 24.7045H16.8499L17.5894 22.7154H17.6018L18.3289 24.7045Z" fill="white" fill-opacity="0.72"></path><path d="M20.0832 26.4667H20.6636V22.2016H20.0832V26.4667Z" fill="white" fill-opacity="0.72"></path><path fill-rule="evenodd" clip-rule="evenodd" d="M23.6952 22.2017H21.6411V26.4667H22.2222V24.6447H23.64C24.2024 24.6447 24.306 24.9972 24.3672 25.4155C24.4017 25.5837 24.4075 25.7586 24.4128 25.9189C24.4207 26.1573 24.4276 26.3634 24.5263 26.4667H25.1739C24.9755 26.2293 24.9545 25.8774 24.9337 25.5296C24.9289 25.4491 24.9241 25.3687 24.9171 25.29C24.8747 24.8721 24.7707 24.5074 24.2636 24.412V24.3999C24.7891 24.2568 25.0211 23.8327 25.0211 23.3186C25.0211 22.6377 24.514 22.2017 23.6952 22.2017ZM24.4404 23.4085C24.4404 24.0297 23.976 24.1669 23.4321 24.1669H22.2222V22.6795H23.6644C24.2084 22.6795 24.4404 22.9902 24.4404 23.4085Z" fill="white" fill-opacity="0.72"></path><path d="M29.6603 26.4667H29.0552L28.0585 22.8824H28.0468L27.0382 26.4667H26.433L25.3147 22.2017H25.9071L26.763 25.7501H26.7754L27.7533 22.2017H28.3825L29.3483 25.7501H29.3607L30.247 22.2017H30.8274L29.6603 26.4667Z" fill="white" fill-opacity="0.72"></path><path fill-rule="evenodd" clip-rule="evenodd" d="M33.0584 22.2017H32.4168L30.7114 26.4667H31.3102L31.7993 25.1825H33.6451L34.1218 26.4667H34.7634L33.0584 22.2017ZM33.4615 24.7045H31.9828L32.722 22.7154H32.7344L33.4615 24.7045Z" fill="white" fill-opacity="0.72"></path><path d="M36.5419 24.7224V26.4667H35.9616V24.7224L34.2749 22.2017H34.9653L36.2735 24.2326L37.5506 22.2017H38.2109L36.5419 24.7224Z" fill="white" fill-opacity="0.72"></path><path d="M40.1418 22.5778C40.7406 22.5778 41.1562 22.8409 41.2237 23.45H41.7737C41.7369 22.5125 41.0586 22.1001 40.1662 22.1001C39.3716 22.1001 38.5832 22.4824 38.5832 23.3487C38.5832 24.1313 39.286 24.3284 39.983 24.4777C40.0324 24.4883 40.0818 24.4986 40.1309 24.5089C40.775 24.6438 41.3765 24.7698 41.3765 25.3139C41.3765 25.9292 40.7958 26.0906 40.2702 26.0906C39.6103 26.0906 38.9991 25.7799 38.9991 25.0629H38.4488C38.4488 26.1024 39.2739 26.5684 40.2518 26.5684C41.0465 26.5684 41.9569 26.204 41.9569 25.2959C41.9569 24.4597 41.2601 24.2205 40.5634 24.0653C40.4832 24.0476 40.4031 24.0309 40.324 24.0144C39.7107 23.8866 39.164 23.7726 39.164 23.3065C39.164 22.7514 39.6527 22.5778 40.1418 22.5778Z" fill="white" fill-opacity="0.72"></path></g><defs><clipPath id="clip0_12083_114134"><rect width="96.5517" height="28" fill="white"></rect></clipPath></defs></svg>