<svg width="94" height="34" viewBox="0 0 94 34" fill="none" xmlns="http://www.w3.org/2000/svg"><g clip-path="url(#clip0_7647_22128)"><path d="M0 32.0141H65.0744L63.7841 34H0V32.0141ZM76.928 31.1133H74.5359L79.3654 23.5962C79.3654 23.5962 80.0889 22.0369 79.1438 20.3914L72.4105 9.39448C72.4105 9.39448 71.8212 8.37476 72.4105 7.39667L74.4032 4.45495L82.3046 17.188C82.3046 17.188 84.341 19.8548 82.1268 23.1577L76.928 31.1133ZM82.7041 28.8093L85.6419 24.3974C85.6419 24.3974 86.498 22.5765 88.7138 22.5765H91.8294L94 25.9552C94 25.9552 92.2862 25.7813 91.5174 26.9883L88.3129 31.751C88.3129 31.751 87.2668 33.9792 84.4737 33.9792H69.3808L75.1237 25.2863C75.1237 25.2863 75.9362 24.2666 74.8012 22.5765L69.6928 14.4767C69.6928 14.4767 68.4357 13.2801 69.738 11.2273L71.2303 8.99908L78.3313 20.3483C78.3313 20.3483 79.5884 21.9076 78.3313 23.7731L72.9999 31.971H84.2401C84.2401 31.971 85.5092 32.2029 86.599 30.6004L89.3936 26.3625C89.3936 26.3625 90.0282 24.9355 91.43 24.3543H89.1705C89.1705 24.3543 87.9903 24.3974 87.0889 25.7813L84.6063 29.5659C84.6063 29.5659 83.7049 31.1698 81.7138 31.1698H77.7842L82.5262 23.9143C82.5262 23.9143 85.1083 20.5668 83.295 17.4943L75.4358 4.67494C75.4358 4.67494 74.8464 3.56752 75.5247 2.53592L77.2385 0L86.186 14.2136C86.186 14.2136 87.4989 16.3422 87.4989 17.9892C87.4989 19.6348 86.4528 21.5018 85.874 22.4457L81.9338 28.5045C81.9338 28.5045 81.4892 29.0857 81.7997 29.3057C82.1253 29.5228 82.4373 29.1274 82.7041 28.8093Z" fill="white" fill-opacity="0.72"></path><path d="M34.1576 22.6428H32.7663V29.2382H37.5521V28.0743H34.1576V22.6428Z" fill="white" fill-opacity="0.72"></path><path d="M40 22.6428H38.6193V29.2382H40V22.6428Z" fill="white" fill-opacity="0.72"></path><path d="M23.0486 22.6428H21.6799V29.2382H23.0486V22.6428Z" fill="white" fill-opacity="0.72"></path><path fill-rule="evenodd" clip-rule="evenodd" d="M48.5149 16.9674C48.5149 14.98 46.8885 13.3672 44.8747 13.3672C42.8609 13.3672 41.224 14.9815 41.224 16.9674C41.224 18.9429 42.8609 20.5558 44.8747 20.5558C46.8885 20.5558 48.5149 18.9429 48.5149 16.9674ZM47.19 16.9673C47.19 15.7038 46.1439 14.6841 44.8747 14.6841C43.595 14.6841 42.5595 15.7053 42.5595 16.9673C42.5595 18.207 43.595 19.2386 44.8747 19.2386C46.1439 19.2386 47.19 18.207 47.19 16.9673Z" fill="white" fill-opacity="0.72"></path><path d="M55.114 22.6428H49.8715V29.2382H55.114V28.1397H51.2643V26.5388H54.5367V25.3407H51.2643V23.7279H55.114V22.6428Z" fill="white" fill-opacity="0.72"></path><path d="M62.4939 13.773H57.2514V20.3476H62.4939V19.261H58.6426V17.6586H61.9271V16.462H58.6426V14.8596H62.4939V13.773Z" fill="white" fill-opacity="0.72"></path><path d="M25.1739 22.6428V29.2382L26.5622 29.2397V23.7086H28.5217C28.7779 23.7086 29.613 23.7858 29.613 24.7625C29.613 25.7941 28.579 25.8164 28.579 25.8164H27.1319L29.9145 29.2397H31.6283L29.6145 26.7692C31.2394 26.1345 31.0615 24.5633 31.0615 24.5633C31.0615 22.6755 29.1472 22.6428 29.1472 22.6428H25.1739Z" fill="white" fill-opacity="0.72"></path><path d="M49.6273 13.773V20.3462H51.0186V14.8373H52.9766C53.2328 14.8373 54.0679 14.9042 54.0679 15.8912C54.0679 16.9228 53.0324 16.9451 53.0324 16.9451H51.5853L54.3679 20.3476H56.0817L54.0679 17.889C55.6822 17.2528 55.5149 15.6935 55.5149 15.6935C55.5149 13.8057 53.6006 13.773 53.6006 13.773H49.6273Z" fill="white" fill-opacity="0.72"></path><path fill-rule="evenodd" clip-rule="evenodd" d="M34.5797 13.773V20.3476L35.9935 20.3462V17.1532L36.7381 18.1521H38.3088C39.0097 18.1521 40.4236 17.7121 40.4236 15.8139C40.4236 13.9053 38.4761 13.773 38.4761 13.773H34.5797ZM35.9709 14.7822V16.945H37.8295C38.0631 16.945 39.076 16.9227 39.076 15.8911C39.076 14.7168 37.8295 14.7822 37.8295 14.7822H35.9709Z" fill="white" fill-opacity="0.72"></path><path fill-rule="evenodd" clip-rule="evenodd" d="M16.0365 22.6428L12.8545 29.2382H14.3453L15.2135 27.3058H18.296L19.1416 29.2382H20.6776L17.5499 22.6428H16.0365ZM16.7842 23.8274L17.8076 26.1864H15.726L16.7842 23.8274Z" fill="white" fill-opacity="0.72"></path><path fill-rule="evenodd" clip-rule="evenodd" d="M29.0583 13.773L25.8869 20.3476H27.3791L28.2474 18.4271H31.3299L32.1649 20.3476H33.7114L30.5837 13.773H29.0583ZM29.8045 14.9591L30.84 17.2958H28.7463L29.8045 14.9591Z" fill="white" fill-opacity="0.72"></path><path d="M23.6621 19.206H21.7809C21.5699 19.206 19.844 18.7779 19.8455 17.0982C19.8455 14.9369 21.9271 14.9369 21.9271 14.9369H25.0322V13.773H21.5925C20.7017 13.773 18.397 14.5415 18.4196 17.1428C18.4422 19.7664 20.9685 20.3476 21.4915 20.3476H24.9976V16.1885H23.6621V19.206Z" fill="white" fill-opacity="0.72"></path><path d="M43.2151 22.6428H41.8133V29.2382H43.2151V23.8052H45.6088C46.5644 23.8052 46.6096 24.706 46.6096 24.706V29.2382H48.022V24.9141C48.022 22.5209 45.752 22.6428 45.752 22.6428H44.0939L43.2151 23.6625V22.6428Z" fill="white" fill-opacity="0.72"></path><path d="M12.3315 13.773H10.9402V20.3462H12.3315V14.9354H14.7236C15.6808 14.9354 15.7365 15.8362 15.7365 15.8362V20.3462H17.1489V16.0443C17.1489 13.6526 14.8683 13.773 14.8683 13.773H13.2103L12.3315 14.7823V13.773Z" fill="white" fill-opacity="0.72"></path><path d="M9.01537 13.773H7.64672V20.3476H9.01537V13.773Z" fill="white" fill-opacity="0.72"></path><path d="M56.6394 28.107V29.2263L60.9488 29.2278C60.9488 29.2278 62.6732 29.2382 62.6732 27.2627C62.6732 25.2872 60.9926 25.4626 60.9926 25.4626H58.9999C58.4874 25.4626 57.9417 25.3184 57.9417 24.5618C57.9417 23.8052 58.7542 23.8052 58.7542 23.8052H62.4818V22.6413H58.2311C58.2311 22.6413 56.5278 22.6413 56.5278 24.6272C56.5278 26.625 58.2522 26.5046 58.2522 26.5046H60.4891C60.5058 26.5046 60.5249 26.504 60.5458 26.5033C60.7883 26.4955 61.2789 26.4796 61.2789 27.3281C61.2789 28.2497 60.5117 28.107 60.5117 28.107H56.6394Z" fill="white" fill-opacity="0.72"></path><path d="M0.144745 19.2283V20.3476H4.45269C4.45269 20.3476 6.17858 20.3595 6.17858 18.3825C6.17858 16.4189 4.49791 16.5943 4.49791 16.5943H2.50522C2.00328 16.5943 1.44708 16.4516 1.44708 15.6935C1.44708 14.9369 2.25953 14.9369 2.25953 14.9369H5.98715V13.773H1.73648C1.73648 13.773 0.0332031 13.7626 0.0332031 15.7604C0.0332031 17.7463 1.75759 17.6259 1.75759 17.6259H3.99446C4.01137 17.6259 4.03063 17.6253 4.05177 17.6246C4.29451 17.6165 4.7843 17.6003 4.7843 18.4494C4.7843 19.3725 4.01707 19.2283 4.01707 19.2283H0.144745Z" fill="white" fill-opacity="0.72"></path></g><defs><clipPath id="clip0_7647_22128"><rect width="94" height="34" fill="white"></rect></clipPath></defs></svg>